<?xml version="1.0" standalone="no"?>
<!DOCTYPE svg PUBLIC "-//W3C//DTD SVG 1.1//EN" "http://www.w3.org/Graphics/SVG/1.1/DTD/svg11.dtd" >
<svg xmlns="http://www.w3.org/2000/svg" xmlns:xlink="http://www.w3.org/1999/xlink" version="1.1">
<metadata>
Created by FontForge 20170924 at Tue Dec  4 06:16:51 2018
 By www-data
Copyright (c) 2018 by Ludka Biniek. All rights reserved.
</metadata>
<defs>
<font id="GellerHeadline-Black" horiz-adv-x="0" >
  <font-face 
    font-family="GellerHeadline-Black"
    font-weight="400"
    font-stretch="normal"
    units-per-em="1000"
    panose-1="0 0 10 0 0 0 0 0 0 0"
    ascent="744"
    descent="-256"
    x-height="457"
    cap-height="648"
    bbox="-841 -282 1115 1046"
    underline-thickness="50"
    underline-position="-150"
    unicode-range="U+0020-FB02"
  />
<missing-glyph horiz-adv-x="460" 
d="M377 693v-919h-292v919h292zM306 631h-152v-30h60v-34h-61v-30h153v30h-61v34h61v30zM245 513h-92v-96h153v32h-61v64zM214 482v-33h-30v33h30zM306 392h-153v-30h61v-34h-61v-30h92v64h61v30zM306 337h-30v-60h-123v-32h153v92zM306 225h-92v-51h31v21h31v-43h-92v73
h-31v-104h153v104zM306 66h-153v-104h153v104zM276 36v-43h-92v43h92zM306 -59h-153v-30h65l-65 -43v-31h153v31h-94l65 43h29v30z" />
    <glyph glyph-name="fi" unicode="fi" horiz-adv-x="617" 
d="M569 79q0 -31 4.5 -37t31.5 -12v-30h-260v30q27 6 31.5 12t4.5 37v233q0 50 -5.5 62.5t-39.5 35.5v6h-83v-337q0 -31 8.5 -37t57.5 -12v-30h-290v30q27 6 31.5 12t4.5 37v337h-50v38l50 3v7q0 239 261 239q190 0 190 -110q0 -44 -38.5 -65t-95.5 -8q0 76 -14.5 109
t-48.5 33q-37 0 -51.5 -34.5t-14.5 -125.5v-45h88v-30q127 35 236 44q-8 -80 -8 -125v-267z" />
    <glyph glyph-name="fl" unicode="fl" horiz-adv-x="616" 
d="M568 79q0 -31 4.5 -37t31.5 -12v-30h-260v30q27 6 31.5 12t4.5 37v437q0 80 -11.5 113t-49.5 33q-39 0 -52.5 -31t-13.5 -129v-45h88v-41h-88v-337q0 -31 8.5 -37t57.5 -12v-30h-290v30q27 6 31.5 12t4.5 37v337h-50v38l50 3v7q0 239 255 239q101 0 143 -20q70 13 113 13
q-8 -80 -8 -125v-492z" />
    <glyph glyph-name="T_h.liga" unicode="Th" horiz-adv-x="1132" 
d="M1079 79q0 -31 4.5 -37t31.5 -12v-30h-260v30q27 6 31.5 12t4.5 37v182q0 55 -12 79t-42 24q-27 0 -51 -18v-267q0 -31 4.5 -37t31.5 -12v-30h-260v30q27 6 31.5 12t4.5 37v528h-187v-525q0 -31 7.5 -37t50.5 -12v-33h-315v33q44 6 51 12t7 37v525h-16q-45 0 -69.5 -30.5
t-77.5 -146.5h-28q-4 148 7 218h570v15q111 26 196 33q-8 -80 -8 -125v-196q63 97 164 97q55 0 92 -33.5t37 -95.5v-264z" />
    <glyph glyph-name="f_b.liga" unicode="fb" horiz-adv-x="905" 
d="M879 258q1 -144 -68.5 -207.5t-183.5 -63.5q-105 0 -163 41l-69 -44l-15 7v525q0 80 -11.5 113t-49.5 33q-39 0 -52.5 -31t-13.5 -129v-45h88v-41h-88v-337q0 -31 8.5 -37t57.5 -12v-30h-290v30q27 6 31.5 12t4.5 37v337h-50v38l50 3v7q0 239 255 239q99 0 142 -19
q65 12 114 12q-8 -80 -8 -125v-194q65 95 158 95q152 0 153 -214zM626 30q31 0 42 40.5t11 140.5q0 83 -14.5 118.5t-47.5 35.5q-23 0 -49 -18v-112q0 -115 13.5 -160t44.5 -45z" />
    <glyph glyph-name="f_f" unicode="ff" horiz-adv-x="657" 
d="M627 703q84 0 124 -26t40 -67q0 -44 -38.5 -65t-95.5 -8q0 77 -8 101t-32 24q-23 0 -33.5 -32.5t-10.5 -127.5v-45h88v-41h-88v-337q0 -31 8.5 -37t57.5 -12v-30h-290v30q27 6 31.5 12t4.5 37v337h-132v-337q0 -31 8.5 -37t57.5 -12v-30h-290v30q27 6 31.5 12t4.5 37v337
h-50v38l50 3q5 231 267 231q96 0 141 -25q58 40 154 40zM253 457h132v7q0 74 26 128q-16 55 -76 55q-45 0 -63.5 -36.5t-18.5 -123.5v-30z" />
    <glyph glyph-name="f_f_i" unicode="ffi" horiz-adv-x="937" 
d="M889 79q0 -31 4.5 -37t31.5 -12v-30h-260v30q27 6 31.5 12t4.5 37v233q0 50 -5.5 62.5t-39.5 35.5v6h-83v-337q0 -31 8.5 -37t57.5 -12v-30h-290v30q27 6 31.5 12t4.5 37v337h-132v-337q0 -31 8.5 -37t57.5 -12v-30h-290v30q27 6 31.5 12t4.5 37v337h-50v38l50 3
q5 231 267 231q99 0 143 -26q64 41 171 41q190 0 190 -110q0 -44 -38.5 -65t-95.5 -8q0 76 -14.5 109t-48.5 33q-37 0 -51.5 -34.5t-14.5 -125.5v-45h88v-30q127 35 236 44q-8 -80 -8 -125v-267zM253 457h132v7q0 73 26 128q-17 55 -76 55q-45 0 -63.5 -36.5t-18.5 -123.5
v-30z" />
    <glyph glyph-name="f_f_l" unicode="ffl" horiz-adv-x="936" 
d="M888 79q0 -31 4.5 -37t31.5 -12v-30h-260v30q27 6 31.5 12t4.5 37v437q0 80 -11.5 113t-49.5 33q-39 0 -52.5 -31t-13.5 -129v-45h88v-41h-88v-337q0 -31 8.5 -37t57.5 -12v-30h-290v30q27 6 31.5 12t4.5 37v337h-132v-337q0 -31 8.5 -37t57.5 -12v-30h-290v30
q27 6 31.5 12t4.5 37v337h-50v38l50 3q5 231 267 231q96 0 143 -25q62 40 165 40q100 0 143 -19q72 12 113 12q-8 -80 -8 -125v-492zM253 457h132v7q0 74 26 128q-17 55 -76 55q-45 0 -63.5 -36.5t-18.5 -123.5v-30z" />
    <glyph glyph-name="f_h.liga" unicode="fh" horiz-adv-x="914" 
d="M861 79q0 -31 4.5 -37t31.5 -12v-30h-260v30q27 6 31.5 12t4.5 37v182q0 55 -12 79t-42 24q-27 0 -51 -18v-267q0 -31 4.5 -37t31.5 -12v-30h-260v30q27 6 31.5 12t4.5 37v437q0 80 -11.5 113t-49.5 33q-39 0 -52.5 -31t-13.5 -129v-45h88v-41h-88v-337q0 -31 8.5 -37
t57.5 -12v-30h-290v30q27 6 31.5 12t4.5 37v337h-50v38l50 3v7q0 239 255 239q101 0 143 -20q63 13 113 13q-8 -80 -8 -125v-196q63 97 164 97q55 0 92 -33.5t37 -95.5v-264z" />
    <glyph glyph-name="f_k.liga" unicode="fk" horiz-adv-x="925" 
d="M917 32l8 -2v-30q-17 -5 -141 -5q-50 0 -78.5 22t-51.5 76l-54 126h-32v-140q0 -31 4.5 -37t31.5 -12v-30h-260v30q27 6 31.5 12t4.5 37v437q0 80 -11.5 113t-49.5 33q-39 0 -52.5 -31t-13.5 -129v-45h88v-41h-88v-337q0 -31 8.5 -37t57.5 -12v-30h-290v30q27 6 31.5 12
t4.5 37v337h-50v38l50 3v7q0 239 255 239q100 0 143 -19q74 12 113 12q-8 -80 -8 -125v-313h49l87 89q31 32 26 53t-45 27v30h199v-30q-15 -2 -27.5 -10t-50.5 -40l-65 -55l74 -139q55 -103 70 -125t32 -26z" />
    <glyph glyph-name=".notdef" horiz-adv-x="460" 
d="M377 693v-919h-292v919h292zM306 631h-152v-30h60v-34h-61v-30h153v30h-61v34h61v30zM245 513h-92v-96h153v32h-61v64zM214 482v-33h-30v33h30zM306 392h-153v-30h61v-34h-61v-30h92v64h61v30zM306 337h-30v-60h-123v-32h153v92zM306 225h-92v-51h31v21h31v-43h-92v73
h-31v-104h153v104zM306 66h-153v-104h153v104zM276 36v-43h-92v43h92zM306 -59h-153v-30h65l-65 -43v-31h153v31h-94l65 43h29v30z" />
    <glyph glyph-name=".null" 
 />
    <glyph glyph-name="nonmarkingreturn" horiz-adv-x="333" 
 />
    <glyph glyph-name="space" unicode=" " horiz-adv-x="186" 
 />
    <glyph glyph-name="exclam" unicode="!" horiz-adv-x="259" 
d="M120 200l-74 353q-8 50 19 76.5t62 26.5q41 0 67.5 -26t18.5 -77l-75 -353h-18zM132 -13q-39 0 -65.5 25t-26.5 59q0 37 26.5 62t65.5 25q36 0 61.5 -25t25.5 -62q0 -34 -25.5 -59t-61.5 -25z" />
    <glyph glyph-name="quotedbl" unicode="&#x22;" horiz-adv-x="428" 
d="M105 422q-9 28 -23.5 71.5l-20 60t-12.5 41t-9 38.5t-2 28q0 39 20 60.5t56 21.5q34 0 53 -21.5t19 -60.5q0 -14 -2 -28.5t-8.5 -38t-12 -41t-18.5 -59.5t-22 -72h-18zM308 422q-10 32 -23.5 72t-19.5 59t-12.5 42t-9 37.5t-2.5 28.5q0 38 20 60t57 22q34 0 53 -21.5
t19 -60.5q0 -14 -2 -28.5t-8.5 -38t-12 -41t-18.5 -59.5t-22 -72h-19z" />
    <glyph glyph-name="numbersign" unicode="#" horiz-adv-x="435" 
d="M456 317h-120l-35 -147h124l-10 -30h-122l-36 -152l-34 6l35 146h-123l-36 -152l-35 6l35 146h-110l10 30h107l36 147h-112l10 30h109l36 150l35 -5l-35 -145h123l36 150l34 -5l-35 -145h123zM265 170l36 147h-123l-35 -147h122z" />
    <glyph glyph-name="dollar" unicode="$" horiz-adv-x="407" 
d="M397 155q0 -75 -48 -114t-119 -47v-69h-37v68q-101 1 -162 25q-6 70 1 118h22q46 -100 132 -100q26 0 42.5 12.5t16.5 34.5q0 26 -23 44.5t-55.5 33t-65.5 32.5t-56 52.5t-23 84.5q0 81 49.5 118t121.5 40v67h37v-68q71 -2 129 -27q7 -58 -1 -116h-20q-46 102 -117 102
q-20 0 -33 -12t-13 -33q0 -27 23 -47t55.5 -34.5t65 -32t55.5 -51.5t23 -81z" />
    <glyph glyph-name="percent" unicode="%" horiz-adv-x="712" 
d="M134 -14l-32 25l476 645l32 -24zM189 344q-79 0 -121.5 33.5t-42.5 112.5q0 165 169 165q80 0 120.5 -31.5t40.5 -112.5q0 -83 -47.5 -125t-118.5 -42zM197 373q18 0 24.5 27t6.5 98q0 76 -8.5 101.5t-30.5 25.5q-21 0 -28.5 -26t-7.5 -94q0 -75 10.5 -103.5t33.5 -28.5z
M521 -14q-78 0 -121 33.5t-43 112.5q0 165 169 165q80 0 120.5 -31.5t40.5 -113.5q0 -83 -47.5 -124.5t-118.5 -41.5zM529 15q18 0 24.5 27t6.5 97q0 77 -8.5 102.5t-30.5 25.5q-21 0 -28.5 -26t-7.5 -94q0 -75 10.5 -103.5t33.5 -28.5z" />
    <glyph glyph-name="ampersand" unicode="&#x26;" horiz-adv-x="760" 
d="M616 183l137 -170v-13q-59 -13 -103 -13q-27 0 -46 2.5t-50 16t-62 38.5q-86 -57 -198 -57q-121 0 -192.5 52t-71.5 147q0 86 54 128.5t140 50.5q-50 77 -50 131q0 160 214 160q95 0 137 -19q7 -71 0 -141h-28q-24 65 -47 92.5t-54 27.5q-53 0 -50 -51q2 -32 43 -92.5
t129 -169.5l65 -80q16 37 16 77q0 53 -13 70.5t-57 22.5v33h138v1q3 -14 3 -35q0 -108 -54 -209zM187 243q0 -68 49 -108t123 -40q37 0 71 9q-13 13 -30 35l-91 112l-65 84q-57 -21 -57 -92z" />
    <glyph glyph-name="quotesingle" unicode="'" horiz-adv-x="224" 
d="M105 422q-9 28 -23.5 71.5l-20 60t-12.5 41t-9 38.5t-2 28q0 39 20 60.5t56 21.5q34 0 53 -21.5t19 -60.5q0 -14 -2 -28.5t-8.5 -38t-12 -41t-18.5 -59.5t-22 -72h-18z" />
    <glyph glyph-name="parenleft" unicode="(" horiz-adv-x="347" 
d="M294 -117q-30 23 -50.5 40.5t-55.5 58t-57 81t-39 103t-17 131.5q0 84 20.5 157t55.5 124t69.5 84.5t72.5 58.5l30 -13q-33 -56 -52.5 -96.5t-39.5 -126t-20 -184.5q0 -75 10 -139t30 -116t34 -80t39 -70z" />
    <glyph glyph-name="parenright" unicode=")" horiz-adv-x="347" 
d="M53 -117l-30 13q33 55 52.5 95t40 126t20.5 184q0 99 -20 184.5t-39.5 126t-52.5 96.5l30 13q38 -25 72.5 -58.5t69.5 -84.5t55.5 -124t20.5 -157q0 -69 -17 -131.5t-39 -103.5t-56.5 -80.5t-56 -58t-50.5 -40.5z" />
    <glyph glyph-name="asterisk" unicode="*" horiz-adv-x="356" 
d="M172 514l-23 77q-8 26 -8 32q0 15 10.5 24t25.5 9q16 0 26.5 -9t10.5 -24q0 -6 -8 -32l-23 -77h-11zM201 498l-6 9l56 59q18 20 23 23q14 7 26.5 2.5t20.5 -17.5t5.5 -27t-15.5 -21q-4 -3 -32 -9zM155 497l-79 19q-28 6 -31 8q-29 18 -10 49q8 13 20.5 17.5t25.5 -2.5
q5 -2 13 -11t11 -12l55 -58zM275 393q-5 3 -12.5 11.5t-11.5 11.5l-55 58l5 10l79 -19q28 -6 31 -8q13 -8 16 -22t-5 -27q-20 -31 -47 -15zM82 392q-29 -16 -47 16q-8 13 -5.5 26.5t15.5 20.5q4 3 32 9l78 19l6 -9l-56 -59q-18 -20 -23 -23zM178 325q-15 0 -25.5 9t-10.5 24
q0 6 8 32l23 77h11l23 -77q8 -26 8 -32q0 -15 -10.5 -24t-26.5 -9z" />
    <glyph glyph-name="plus" unicode="+" horiz-adv-x="368" 
d="M352 341v-39h-145v-166h-45v166h-146l1 39h145v166l45 -1v-165h145z" />
    <glyph glyph-name="comma" unicode="," horiz-adv-x="233" 
d="M38 -122l-11 27q50 17 73.5 34t23.5 47t-32 30q-68 0 -68 66q0 32 22.5 54t64.5 22q44 0 73 -27t29 -82q0 -71 -45.5 -116t-129.5 -55z" />
    <glyph glyph-name="hyphen" unicode="-" horiz-adv-x="409" 
d="M52 222v65h306v-65h-306z" />
    <glyph glyph-name="period" unicode="." horiz-adv-x="245" 
d="M125 -13q-39 0 -65.5 25t-26.5 59q0 37 26.5 62t65.5 25q37 0 62 -25t25 -62q0 -34 -25.5 -59t-61.5 -25z" />
    <glyph glyph-name="slash" unicode="/" horiz-adv-x="305" 
d="M-18 -110l265 825h71l-264 -825h-72z" />
    <glyph glyph-name="zero" unicode="0" horiz-adv-x="561" 
d="M284 -12q-144 0 -200 56.5t-56 188.5q0 136 63 201.5t195 65.5q133 0 190 -59.5t57 -179.5q0 -138 -61 -205.5t-188 -67.5zM288 28q28 0 36.5 43t8.5 174q0 124 -12.5 169.5t-41.5 45.5q-35 0 -43 -39.5t-8 -175.5q0 -130 12.5 -173.5t47.5 -43.5z" />
    <glyph glyph-name="one" unicode="1" horiz-adv-x="410" 
d="M34 431v16q190 44 278 48q0 -10 -2 -38.5t-2 -44.5v-283q0 -68 10 -80.5t71 -18.5v-30h-350v30q61 6 71 18.5t10 80.5v176q0 64 -13 82.5t-73 43.5z" />
    <glyph glyph-name="two" unicode="2" horiz-adv-x="485" 
d="M17 0l-3 14l98 95q40 39 63 64.5t42.5 62t19.5 69.5q0 39 -23 64t-65 25q-27 0 -49.5 -13.5t-31.5 -26.5l-9 -14l-16 6q9 69 58.5 113t140.5 44q88 0 130.5 -38t42.5 -100q0 -136 -214 -200l-2 -13h138q45 0 67 12.5t44 54.5h27l-30 -219h-428z" />
    <glyph glyph-name="three" unicode="3" horiz-adv-x="513" 
d="M232 -126q-105 0 -154 32.5t-49 88.5q0 49 44 71t110 3q-7 -73 5.5 -114t56.5 -41q62 0 62 98q0 162 -166 155l-6 29q145 24 145 107q0 35 -26.5 55.5t-70.5 20.5q-36 0 -64 -13.5t-38 -26.5l-10 -13l-18 7q23 83 75.5 125t144.5 42q86 0 135.5 -35t49.5 -98t-44.5 -96.5
t-99.5 -45.5v-13q84 -6 127.5 -45.5t43.5 -108.5q0 -82 -62.5 -133t-190.5 -51z" />
    <glyph glyph-name="four" unicode="4" horiz-adv-x="564" 
d="M545 75l-16 -37h-75v-138h-188v138h-232l-7 12l283 440h147q-3 -27 -3 -76v-332h84zM104 82h162v262l-162 -252v-10z" />
    <glyph glyph-name="five" unicode="5" horiz-adv-x="497" 
d="M124 281q186 8 268.5 -36.5t82.5 -163.5q0 -207 -245 -207q-104 0 -158 33t-54 88q0 49 44 71t110 3q-7 -74 7.5 -114.5t68.5 -40.5q36 0 52.5 23.5t16.5 58.5q0 139 -264 123l67 371h333l7 -10l-23 -153h-303z" />
    <glyph glyph-name="six" unicode="6" horiz-adv-x="565" 
d="M364 375q74 0 119 -44t45 -126q0 -106 -65 -162t-182 -56q-245 0 -243 261q1 148 111.5 254t310.5 107l11 -36q-92 -18 -151.5 -80t-81.5 -160l7 -2q39 44 119 44zM291 27q47 0 47 118q0 77 -24 117t-58 40q-12 0 -24 -4q-6 -37 -6 -79q-1 -192 65 -192z" />
    <glyph glyph-name="seven" unicode="7" horiz-adv-x="442" 
d="M220 -114h-109v31l224 408v13h-167q-48 0 -70 -14t-43 -55h-27l30 221h379l2 -13z" />
    <glyph glyph-name="eight" unicode="8" horiz-adv-x="520" 
d="M346 366q35 -22 56.5 -38t46.5 -40.5t37 -53t12 -62.5q0 -52 -19.5 -89.5t-54 -57.5t-74.5 -29t-89 -9q-117 0 -178 35t-61 97q0 37 16.5 62.5t43.5 37t49.5 16t44.5 4.5v9q-68 44 -105 85.5t-37 97.5q0 174 235 174q99 0 157.5 -29.5t58.5 -89.5q0 -21 -6 -38t-17.5 -28
t-23 -18.5t-28 -12t-26.5 -6.5t-23.5 -3.5t-14.5 -1.5v-12zM252 565q-23 0 -36.5 -13t-13.5 -36q0 -35 26.5 -63.5t77.5 -61.5q7 51 7 92q0 39 -16 60.5t-45 21.5zM270 27q25 0 42 17t17 52q0 24 -17.5 48t-38 39.5t-57.5 39.5q-16 -46 -16 -94q0 -49 19.5 -75.5t50.5 -26.5
z" />
    <glyph glyph-name="nine" unicode="9" horiz-adv-x="567" 
d="M286 500q244 0 243 -261q0 -70 -27 -133.5t-78 -114.5t-133.5 -82t-184.5 -31l-12 36q188 36 233 240l-6 2q-43 -46 -119 -46q-74 0 -119 45t-45 128q0 105 65 161t183 56zM311 184q13 0 22 3q6 52 6 80q3 193 -64 193q-46 0 -46 -118q0 -78 24 -118t58 -40z" />
    <glyph glyph-name="colon" unicode=":" horiz-adv-x="250" 
d="M127 304q-35 0 -60 24.5t-25 57.5q0 36 24.5 60.5t60.5 24.5q34 0 57.5 -24.5t23.5 -60.5q0 -33 -24 -57.5t-57 -24.5zM127 -13q-36 0 -60.5 24.5t-24.5 57.5q0 36 24.5 60.5t60.5 24.5q34 0 57.5 -24.5t23.5 -60.5q0 -33 -24 -57.5t-57 -24.5z" />
    <glyph glyph-name="semicolon" unicode=";" horiz-adv-x="247" 
d="M129 304q-35 0 -60 24.5t-25 57.5q0 36 24.5 60.5t60.5 24.5q34 0 57.5 -24.5t23.5 -60.5q0 -33 -24 -57.5t-57 -24.5zM45 -122l-11 27q50 17 73.5 34t23.5 47t-32 30q-68 0 -68 66q0 32 22.5 54t64.5 22q44 0 73 -27t29 -82q0 -71 -45.5 -116t-129.5 -55z" />
    <glyph glyph-name="less" unicode="&#x3c;" horiz-adv-x="369" 
d="M346 435l-254 -114l254 -111l-19 -37l-315 143v14l315 142z" />
    <glyph glyph-name="equal" unicode="=" horiz-adv-x="351" 
d="M20 367l1 39h310l-1 -39h-310zM20 237l1 39h310l-1 -39h-310z" />
    <glyph glyph-name="greater" unicode="&#x3e;" horiz-adv-x="369" 
d="M42 472l315 -142v-14l-315 -143l-20 37l254 111l-254 114z" />
    <glyph glyph-name="question" unicode="?" horiz-adv-x="429" 
d="M210 195q-53 6 -85.5 41t-32.5 76q0 29 16.5 56.5t40 49.5t47.5 44t40.5 47.5t16.5 52.5q0 58 -48 58q-18 0 -29 -11.5t-15.5 -32t-5.5 -48.5t1 -61q-63 -19 -106 2t-43 70q0 56 50 86.5t136 30.5q220 0 220 -134q0 -47 -20 -88.5t-48.5 -69t-56.5 -51t-48 -47t-20 -44.5
l2 -20zM185 -13q-39 0 -65.5 25t-26.5 59q0 37 26.5 62t65.5 25q37 0 62.5 -25t25.5 -62q0 -34 -26 -59t-62 -25z" />
    <glyph glyph-name="at" unicode="@" horiz-adv-x="806" 
d="M451 156l19 77h-13q-34 -105 -69 -156t-94 -51q-60 0 -87 52.5t-14 155.5q13 105 62.5 151.5t137.5 46.5q52 0 104 -18q75 15 135 15l3 -11q-18 -18 -28 -92l-21 -170q-3 -30 3 -43.5t30 -13.5q51 0 84 62t33 147q0 126 -84 200t-214 74q-158 0 -263 -111.5t-105 -279.5
q0 -153 86 -238.5t227 -85.5q63 0 119.5 15.5t81.5 31.5l26 15l17 -28q-3 -3 -9.5 -8t-30 -17t-50.5 -21.5t-71.5 -17.5t-93.5 -8q-154 0 -252 90t-98 252q0 199 117.5 324t307.5 125q155 0 246 -88t91 -208q0 -139 -68.5 -217t-177.5 -78q-69 0 -87 25.5t0 101.5zM448 311
q9 49 0.5 69.5t-33.5 18.5q-26 -1 -42.5 -45t-28.5 -138q-7 -53 -4.5 -78t18.5 -25q20 0 47 60.5t43 137.5z" />
    <glyph glyph-name="A" unicode="A" horiz-adv-x="701" 
d="M624 82q11 -33 17 -39t36 -10v-33h-304v33q38 3 46.5 28t-8.5 80l-17 54h-215l-17 -50q-19 -59 -5 -83t69 -29v-33h-211v33q31 4 38.5 10.5t20.5 39.5l172 448q18 47 14 62t-34 22v33h214zM193 237l188 1l-90 287z" />
    <glyph glyph-name="B" unicode="B" horiz-adv-x="691" 
d="M462 334q101 2 158.5 -35.5t57.5 -104.5q0 -93 -74.5 -143.5t-217.5 -50.5h-354v33q44 6 51 12t7 37v484q0 31 -7 37t-51 12v33h335q147 1 211.5 -34.5t64.5 -116.5q0 -128 -181 -156v-7zM451 482q0 65 -28 94t-92 29h-42v-253h35q69 0 98 29.5t29 100.5zM374 43
q96 0 96 135q0 68 -26.5 99.5t-97.5 31.5h-57v-217q0 -32 9.5 -40.5t52.5 -8.5h23z" />
    <glyph glyph-name="C" unicode="C" horiz-adv-x="625" 
d="M382 611q-135 0 -135 -273q0 -132 42.5 -219t120.5 -87q92 0 161 172h30q0 -114 -23 -196q-82 -21 -201 -21q-70 0 -129 15.5t-111 51t-82 103.5t-30 162q0 161 91.5 249t251.5 88q133 0 211 -36q7 -79 0 -177h-28q-31 89 -71 128.5t-98 39.5z" />
    <glyph glyph-name="D" unicode="D" horiz-adv-x="736" 
d="M335 648q206 0 295.5 -67t89.5 -221q0 -360 -350 -360h-338v33q44 6 51 12t7 37v484q0 31 -7 37t-51 12v33h303zM374 43q56 0 94.5 70t38.5 199q0 156 -39.5 224.5t-130.5 68.5h-48v-513q0 -32 9.5 -40.5t52.5 -8.5h23z" />
    <glyph glyph-name="E" unicode="E" horiz-adv-x="628" 
d="M567 217h30q-7 -133 -23 -217h-542v33q44 6 51 12t7 37v484q0 31 -7 37t-51 12v33h536q9 -88 0 -199h-28q-34 90 -75.5 123t-117.5 33h-58v-259h40q52 1 73 17.5t41 71.5h29q5 -118 0 -230h-28q-22 62 -42.5 80t-72.5 18h-40v-211q0 -32 9.5 -40.5t52.5 -8.5h34
q61 0 100.5 38.5t81.5 135.5z" />
    <glyph glyph-name="F" unicode="F" horiz-adv-x="592" 
d="M568 648q9 -88 0 -199h-28q-34 90 -75.5 123t-117.5 33h-58v-261h40q52 1 73 17.5t41 71.5h29q5 -118 0 -230h-28q-22 62 -42.5 80t-72.5 18h-40v-219q0 -31 9.5 -37t64.5 -12v-33h-331v33q44 6 51 12t7 37v484q0 31 -7 37t-51 12v33h536z" />
    <glyph glyph-name="G" unicode="G" horiz-adv-x="667" 
d="M374 279h290v-33q-26 -6 -30.5 -12t-4.5 -37v-152q-25 -20 -90 -39t-172 -19q-52 0 -98.5 9t-92 32.5t-78.5 60t-53 95.5t-20 135q0 162 94 249.5t264 87.5q133 0 211 -36q7 -79 0 -177h-28q-31 89 -71 128.5t-98 39.5q-150 0 -150 -273q0 -132 42.5 -219t120.5 -87h20
v165q0 31 -7 37t-49 12v33z" />
    <glyph glyph-name="H" unicode="H" horiz-adv-x="785" 
d="M753 615q-43 -6 -50.5 -12t-7.5 -37v-484q0 -31 7.5 -37t50.5 -12v-33h-315v33q44 6 51 12t7 37v213h-207v-213q0 -31 7.5 -37t50.5 -12v-33h-315v33q44 6 51 12t7 37v484q0 31 -7 37t-51 12v33h315v-33q-43 -6 -50.5 -12t-7.5 -37v-229l207 1v228q0 31 -7 37t-51 12v33
h315v-33z" />
    <glyph glyph-name="I" unicode="I" horiz-adv-x="379" 
d="M32 0v33q44 6 51 12t7 37v484q0 31 -7 37t-51 12v33h315v-33q-43 -6 -50.5 -12t-7.5 -37v-484q0 -31 7.5 -37t50.5 -12v-33h-315z" />
    <glyph glyph-name="J" unicode="J" horiz-adv-x="533" 
d="M213 30q27 0 40.5 24.5t13.5 103.5v408q0 31 -7 37t-51 12v33h315v-33q-44 -6 -51 -12t-7 -37v-342q0 -76 -17.5 -125t-54 -72.5t-76 -31.5t-99.5 -8q-105 0 -158.5 34t-53.5 95q0 54 44 77t112 4q-6 -83 4 -125t46 -42z" />
    <glyph glyph-name="K" unicode="K" horiz-adv-x="737" 
d="M709 37l14 -4v-35q-67 -3 -159 -3q-50 0 -83.5 25.5t-60.5 83.5l-92 195h-39v-217q0 -31 7.5 -37t50.5 -12v-33h-315v33q44 6 51 12t7 37v484q0 31 -7 37t-51 12v33h315v-33q-43 -6 -50.5 -12t-7.5 -37v-226l53 1l144 166q52 62 48.5 82.5t-58.5 25.5v33h231v-33
q-35 -4 -58 -16.5t-54 -46.5l-113 -118l161 -299q36 -66 45.5 -80.5t20.5 -17.5z" />
    <glyph glyph-name="L" unicode="L" horiz-adv-x="597" 
d="M32 0v33q44 6 51 12t7 37v484q0 31 -7 37t-51 12v33h315v-33q-43 -6 -50.5 -12t-7.5 -37v-474q0 -32 9.5 -40.5t52.5 -8.5h10q58 0 98 39t92 151h30q-8 -152 -26 -233h-523z" />
    <glyph glyph-name="M" unicode="M" horiz-adv-x="830" 
d="M767 92q4 -35 12.5 -44t43.5 -15v-33h-301v33q35 5 42 13.5t3 39.5l-35 342l-184 -430h-30l-152 430l-1 -5q-26 -197 -31 -285q-3 -54 12 -77t59 -28v-33h-206v33q38 4 51.5 20.5t23.5 73.5q24 128 43 284l10 85q12 106 -63 119v33h230l120 -362l131 363l232 -1v-33
q-43 -6 -50.5 -19t-2.5 -69z" />
    <glyph glyph-name="N" unicode="N" horiz-adv-x="662" 
d="M449 648h206v-33q-23 -2 -31 -3.5t-16 -12t-10 -26.5t-4 -52q-4 -60 -6 -306l-2 -224h-30l-422 410v-34q0 -158 6 -229q5 -55 22 -77.5t64 -27.5v-33h-206v33q23 2 31 3.5t16 12t10 26.5t4 52q6 98 8 288v82q1 68 -8 87t-44 31v33h138l367 -361v51q0 88 -7 172
q-5 55 -22 77.5t-64 27.5v33z" />
    <glyph glyph-name="O" unicode="O" horiz-adv-x="725" 
d="M363 656q337 0 337 -322q0 -169 -87 -258t-250 -89q-166 0 -252 82t-86 245q0 166 87.5 254t250.5 88zM356 611q-35 0 -58 -20.5t-33.5 -62t-14 -84.5t-3.5 -106q0 -306 125 -306q24 0 41.5 10.5t29 31t19 44.5t11 59t4.5 64.5t1 70.5q0 69 -5.5 120t-19 93t-38 64
t-59.5 22z" />
    <glyph glyph-name="P" unicode="P" horiz-adv-x="661" 
d="M369 648q161 0 221.5 -40t60.5 -152q0 -116 -68 -169t-174 -53h-120v-152q0 -31 9.5 -37t64.5 -12v-33h-331v33q44 6 51 12t7 37v484q0 31 -7 37t-51 12v33h337zM346 277q93 0 93 166q0 85 -24.5 123.5t-84.5 38.5h-41v-328h57z" />
    <glyph glyph-name="Q" unicode="Q" horiz-adv-x="723" 
d="M654 -139h12l11 -12q-52 -55 -138 -55q-74 0 -123.5 47.5t-95.5 146.5q-295 22 -295 326q0 166 87.5 254t250.5 88q337 0 337 -322q0 -137 -57.5 -221.5t-166.5 -112.5q87 -91 120.5 -115t57.5 -24zM247 338q0 -306 125 -306q24 0 41.5 10.5t29 31t19 44.5t11 59
t4.5 64.5t1 70.5q0 69 -5.5 120t-19 93t-38 64t-59.5 22t-58 -20.5t-33.5 -62t-14 -84.5t-3.5 -106z" />
    <glyph glyph-name="R" unicode="R" horiz-adv-x="721" 
d="M624 135q31 -60 45 -77t35 -25v-35q-110 -3 -161 -3q-46 0 -72 22.5t-45 65.5l-83 186h-54v-187q0 -31 7.5 -37t50.5 -12v-33h-315v33q44 6 51 12t7 37v484q0 31 -7 37t-51 12v33h322q162 0 232 -38.5t70 -126.5q0 -66 -34.5 -110t-87.5 -65zM289 312h41q62 0 87 36.5
t25 126.5q0 62 -26.5 96t-75.5 34h-51v-293z" />
    <glyph glyph-name="S" unicode="S" horiz-adv-x="565" 
d="M292 -13q-158 0 -236 36q-8 84 0 167h28q32 -84 75.5 -121t116.5 -37q41 0 67.5 19.5t26.5 55.5q0 42 -34 71t-82 49t-96 44t-82 69.5t-34 110.5q0 104 68.5 154.5t174.5 50.5q132 0 210 -36q8 -83 0 -167h-28q-31 82 -72 120t-97 38q-35 0 -58 -20t-23 -55
q0 -41 34 -70.5t82 -50.5t96 -45t82 -69t34 -108q0 -100 -76 -153t-177 -53z" />
    <glyph glyph-name="T" unicode="T" horiz-adv-x="626" 
d="M598 648q11 -70 7 -218h-28q-63 116 -88 146.5t-59 30.5h-19v-525q0 -31 7.5 -37t50.5 -12v-33h-315v33q44 6 51 12t7 37v525h-16q-45 0 -69.5 -30.5t-77.5 -146.5h-28q-4 148 7 218h570z" />
    <glyph glyph-name="U" unicode="U" horiz-adv-x="673" 
d="M352 -13q-143 0 -210.5 61t-67.5 184v334q0 31 -6.5 37t-45.5 12v33h304v-33q-40 -6 -46.5 -12t-6.5 -37v-256q0 -70 4.5 -114.5t18 -83.5t41 -57t70.5 -18q75 0 114 58t39 190q0 116 -9 225q-5 55 -22 77.5t-64 27.5v33h201v-33q-20 -2 -27 -4t-14 -12t-9 -26t-4 -52
q-4 -73 -4 -242q0 -155 -61.5 -223.5t-194.5 -68.5z" />
    <glyph glyph-name="V" unicode="V" horiz-adv-x="673" 
d="M459 648h208v-33q-28 -4 -35 -10t-21 -40l-237 -573h-40l-262 574q-15 34 -21.5 39.5t-32.5 9.5v33h314v-33q-41 -4 -48.5 -27.5t16.5 -80.5l121 -280l104 276q21 58 5.5 82.5t-71.5 29.5v33z" />
    <glyph glyph-name="W" unicode="W" horiz-adv-x="973" 
d="M755 648h211v-33q-31 -4 -38.5 -10.5t-20.5 -39.5l-213 -573h-40l-150 400l-172 -400h-40l-217 574q-13 34 -19 39.5t-35 9.5v33h301v-33q-39 -4 -46 -27.5t14 -80.5l97 -275l91 230l-39 104q-12 33 -18.5 39t-35.5 10v33h301v-33q-39 -4 -46.5 -27.5t13.5 -80.5l90 -255
l81 251q19 59 4 83t-73 29v33z" />
    <glyph glyph-name="X" unicode="X" horiz-adv-x="656" 
d="M582 82q17 -30 26.5 -38t33.5 -11v-33h-304v33q18 4 23 11.5t0.5 22.5t-20.5 44l-75 136l-77 -112q-34 -50 -25.5 -73t62.5 -29v-33h-199v33q20 3 28.5 10t33.5 40l156 202l-156 281q-17 30 -26 38t-33 11v33h304v-33q-18 -4 -23 -11.5t-0.5 -22.5t20.5 -44l64 -115
l60 89q33 49 24 73.5t-63 30.5v33h199v-33q-20 -3 -28.5 -10t-33.5 -40l-138 -181z" />
    <glyph glyph-name="Y" unicode="Y" horiz-adv-x="667" 
d="M437 648h211v-33q-25 -3 -34.5 -10.5t-27.5 -39.5l-153 -271v-212q0 -31 7.5 -37t50.5 -12v-33h-315v33q44 6 51 12t7 37v199l-151 285q-16 31 -25 38.5t-33 10.5v33h304v-33q-41 -4 -45.5 -22.5t27.5 -80.5l94 -179l89 172q27 55 12 80t-69 30v33z" />
    <glyph glyph-name="Z" unicode="Z" horiz-adv-x="594" 
d="M348 43q61 0 93.5 31.5t91.5 145.5h28q-3 -18 -9 -76t-11.5 -99t-9.5 -45h-499l-7 13l313 592h-69q-65 0 -97 -28t-84 -127h-28q2 126 11 198l493 1l8 -15l-315 -591h91z" />
    <glyph glyph-name="bracketleft" unicode="[" horiz-adv-x="327" 
d="M217 -4q0 -46 12.5 -54.5t87.5 -14.5v-37h-198q-12 0 -16 4t-4 16v785q0 12 4 16t16 4h198v-37q-75 -6 -87.5 -14.5t-12.5 -54.5v-613z" />
    <glyph glyph-name="backslash" unicode="\" horiz-adv-x="289" 
d="M238 -110l-243 825h76l243 -825h-76z" />
    <glyph glyph-name="bracketright" unicode="]" horiz-adv-x="327" 
d="M110 609q0 46 -12.5 54.5t-87.5 14.5v37h198q12 0 16 -4t4 -16v-785q0 -12 -4 -16t-16 -4h-198v37q75 6 87.5 14.5t12.5 54.5v613z" />
    <glyph glyph-name="asciicircum" unicode="^" horiz-adv-x="346" 
d="M328 332l-36 -20l-122 263l-115 -263l-37 20l148 325h14z" />
    <glyph glyph-name="underscore" unicode="_" horiz-adv-x="441" 
d="M20 -104v65h401v-65h-401z" />
    <glyph glyph-name="grave" unicode="`" horiz-adv-x="338" 
d="M255 513q-91 43 -146 82q-41 29 -39 61q2 26 24 43t58 16q32 -1 51 -25t38 -85l27 -86z" />
    <glyph glyph-name="a" unicode="a" horiz-adv-x="547" 
d="M540 69l8 -15q-20 -30 -55.5 -48.5t-76.5 -18.5q-51 0 -80 20.5t-37 71.5q-27 -48 -59.5 -70t-83.5 -22q-67 0 -99.5 34t-32.5 83q0 21 5.5 38t19.5 31t25.5 23.5t37 20.5t41 16.5t50 17t50.5 17.5l43 15v53q0 93 -45 93q-48 0 -37 -129q-41 -6 -76 -5t-58 17.5t-23 46.5
q0 49 63 81t143 32q127 0 174 -37.5t47 -141.5v-157q0 -46 6 -59.5t23 -13.5q3 0 27 6zM260 87q20 0 36 17v17v122q-5 -2 -20 -9.5t-18.5 -9.5t-14 -8.5t-13 -11t-7.5 -12.5t-6 -17.5t-1 -22.5q0 -65 44 -65z" />
    <glyph glyph-name="b" unicode="b" horiz-adv-x="577" 
d="M398 472q153 0 153 -214q0 -144 -69 -207.5t-183 -63.5q-105 0 -163 41l-69 -44l-15 7v546q0 50 -5.5 62.5t-39.5 35.5v16q134 37 241 45q-8 -80 -8 -125v-194q65 95 158 95zM298 30q31 0 42 40.5t11 140.5q0 83 -14.5 118.5t-47.5 35.5q-23 0 -49 -18v-112
q0 -115 13.5 -160t44.5 -45z" />
    <glyph glyph-name="c" unicode="c" horiz-adv-x="457" 
d="M256 -13q-103 0 -166.5 59t-63.5 177q0 123 66.5 186t170.5 63q85 0 130.5 -26.5t45.5 -75.5t-42.5 -71.5t-106.5 -8.5q0 73 -8.5 106t-35.5 33q-53 0 -53 -149q0 -79 36.5 -119t105.5 -40q28 0 52 9.5t34 19.5l10 10l15 -15q-1 -6 -3.5 -17t-16 -38t-32 -48t-55.5 -38
t-83 -17z" />
    <glyph glyph-name="d" unicode="d" horiz-adv-x="582" 
d="M525 127q0 -50 5.5 -62.5t39.5 -35.5v-16q-21 -5 -106.5 -13t-126.5 -8l12 95l-6 4q-65 -104 -164 -104q-153 0 -153 216q0 143 69 206t183 63q34 0 59 -4v69q0 50 -5.5 62.5t-39.5 35.5v16q134 37 241 45q-8 -80 -8 -125v-444zM289 94q25 0 48 17v113q0 116 -13 160.5
t-45 44.5q-31 0 -42 -40t-11 -139q0 -84 15 -120t48 -36z" />
    <glyph glyph-name="e" unicode="e" horiz-adv-x="474" 
d="M446 160l15 -15q-1 -6 -3.5 -17t-16.5 -38t-34.5 -48t-60 -38t-90.5 -17q-102 0 -166 59.5t-64 176.5q0 123 66.5 186t170.5 63q105 0 149.5 -46.5t44.5 -139.5l-17 -17h-241q4 -148 137 -148q34 0 61.5 9.5t38.5 19.5zM246 429q-23 0 -34 -28t-13 -93h89q1 71 -8.5 96
t-33.5 25z" />
    <glyph glyph-name="f" unicode="f" horiz-adv-x="337" 
d="M307 703q84 0 124 -26t40 -67q0 -44 -38.5 -65t-95.5 -8q0 77 -8 101t-32 24q-23 0 -33.5 -32.5t-10.5 -127.5v-45h88v-41h-88v-337q0 -31 8.5 -37t57.5 -12v-30h-290v30q27 6 31.5 12t4.5 37v337h-50v38l50 3v7q0 115 60.5 177t181.5 62z" />
    <glyph glyph-name="g" unicode="g" horiz-adv-x="514" 
d="M508 402l-71 2l-1 -9q43 -30 43 -89q0 -89 -63.5 -129.5t-159.5 -40.5q-62 0 -110 14q-28 -7 -28 -34q0 -37 54 -37h157q198 0 198 -144q0 -86 -69 -130t-199 -44q-240 0 -240 90q0 36 30.5 54.5t84.5 16.5v13q-51 0 -86.5 28.5t-35.5 82.5q0 52 28.5 81t73.5 36
q-78 38 -78 132q0 50 19 85.5t52 55t70.5 28t82.5 8.5h1h1h1h1h1h1h11h1q27 -1 70 -6.5t74 -5.5q51 0 112 12l7 -3q0 -18 -8 -37q-12 -28 -25 -30zM260 177q25 0 34 24.5t9 94.5q0 72 -11 103.5t-36 31.5q-26 0 -35 -25.5t-9 -95.5q0 -71 11.5 -102t36.5 -31zM399 -124
q0 26 -28 37.5t-100 11.5h-105q-12 -17 -12 -39q0 -77 126 -76q119 1 119 66z" />
    <glyph glyph-name="h" unicode="h" horiz-adv-x="595" 
d="M542 79q0 -31 4.5 -37t31.5 -12v-30h-260v30q27 6 31.5 12t4.5 37v182q0 55 -12 79t-42 24q-27 0 -51 -18v-267q0 -31 4.5 -37t31.5 -12v-30h-260v30q27 6 31.5 12t4.5 37v458q0 50 -5.5 62.5t-39.5 35.5v16q134 37 241 45q-8 -80 -8 -125v-196q63 97 164 97
q55 0 92 -33.5t37 -95.5v-264z" />
    <glyph glyph-name="i" unicode="i" horiz-adv-x="298" 
d="M163 528q-38 0 -64.5 26t-26.5 61q0 39 26.5 65t64.5 26q36 0 61 -26t25 -65q0 -35 -25 -61t-61 -26zM26 0v30q27 6 31.5 12t4.5 37v233q0 50 -5.5 62.5t-39.5 35.5v16q134 37 241 45q-8 -80 -8 -125v-267q0 -31 4.5 -37t31.5 -12v-30h-260z" />
    <glyph glyph-name="j" unicode="j" horiz-adv-x="287" 
d="M149 528q-38 0 -64.5 26t-26.5 61q0 39 26.5 65t64.5 26q36 0 61 -26t25 -65q0 -35 -25 -61t-61 -26zM6 -243l-12 15q45 37 53.5 94t8.5 254v192q0 50 -5.5 62.5t-39.5 35.5v16q134 37 241 45q-8 -80 -8 -130v-340q0 -110 -72 -173t-166 -71z" />
    <glyph glyph-name="k" unicode="k" horiz-adv-x="606" 
d="M598 32l8 -2v-30q-17 -5 -141 -5q-50 0 -78.5 22t-51.5 76l-54 126h-32v-140q0 -31 4.5 -37t31.5 -12v-30h-260v30q27 6 31.5 12t4.5 37v458q0 50 -5.5 62.5t-39.5 35.5v16q134 37 241 45q-8 -80 -8 -125v-313h49l87 89q31 32 26 53t-45 27v30h199v-30q-11 -2 -16.5 -4
t-20 -12.5t-41.5 -33.5l-65 -55l74 -139q56 -103 70.5 -125t31.5 -26z" />
    <glyph glyph-name="l" unicode="l" horiz-adv-x="297" 
d="M25 0v30q27 6 31.5 12t4.5 37v458q0 50 -5.5 62.5t-39.5 35.5v16q134 37 241 45q-8 -80 -8 -125v-492q0 -31 4.5 -37t31.5 -12v-30h-260z" />
    <glyph glyph-name="m" unicode="m" horiz-adv-x="889" 
d="M836 79q0 -31 4.5 -37t31.5 -12v-30h-260v30q27 6 31.5 12t4.5 37v182q0 55 -12 79t-42 24q-27 0 -51 -18v-3v-264q0 -31 4.5 -37t31.5 -12v-30h-260v30q27 6 31.5 12t4.5 37v182q0 55 -12 79t-42 24q-27 0 -51 -18v-267q0 -31 4.5 -37t31.5 -12v-30h-260v30
q27 6 31.5 12t4.5 37v233q0 50 -5.5 62.5t-39.5 35.5v16q132 36 233 45l-11 -99l7 -4q63 104 168 104q48 0 83 -26t44 -75q65 101 166 101q55 0 92 -33.5t37 -95.5v-264z" />
    <glyph glyph-name="n" unicode="n" horiz-adv-x="596" 
d="M543 79q0 -31 4.5 -37t31.5 -12v-30h-260v30q27 6 31.5 12t4.5 37v182q0 55 -12 79t-42 24q-27 0 -51 -18v-267q0 -31 4.5 -37t31.5 -12v-30h-260v30q27 6 31.5 12t4.5 37v233q0 50 -5.5 62.5t-39.5 35.5v16q132 36 233 45l-11 -99l7 -4q63 104 168 104q55 0 92 -33.5
t37 -95.5v-264z" />
    <glyph glyph-name="o" unicode="o" horiz-adv-x="561" 
d="M278 -13q-122 0 -187 53t-65 183q0 126 68.5 187t191.5 61q125 0 187 -50.5t62 -183.5q0 -123 -65.5 -186.5t-191.5 -63.5zM283 30q22 0 32.5 14t15 53.5t4.5 122.5q0 113 -12.5 160.5t-43.5 47.5q-22 0 -32.5 -14.5t-15.5 -55t-5 -124.5q0 -108 12.5 -156t44.5 -48z" />
    <glyph glyph-name="p" unicode="p" horiz-adv-x="578" 
d="M299 -13q-34 0 -59 4v-138q0 -31 8 -37t58 -12v-30h-290v30q27 6 31.5 12t4.5 37v459q0 50 -5.5 62.5t-39.5 35.5v16q132 36 233 45l-11 -99l6 -4q65 104 164 104q153 0 153 -214q0 -144 -69.5 -207.5t-183.5 -63.5zM290 364q-24 0 -50 -18v-111q0 -115 13.5 -160
t45.5 -45q30 0 41 40.5t11 140.5q0 82 -14.5 117.5t-46.5 35.5z" />
    <glyph glyph-name="q" unicode="q" horiz-adv-x="579" 
d="M525 -147q0 -31 4.5 -37t31.5 -12v-30h-290v30q49 6 57.5 12t8.5 37v229q-67 -95 -158 -95q-153 0 -153 215q0 74 19.5 128t55.5 84t79.5 44t97.5 14q100 0 158 -37l78 42l11 -9v-615zM289 95q25 0 48 17v112q0 116 -13 160.5t-45 44.5q-31 0 -42 -40t-11 -140
q0 -83 15 -118.5t48 -35.5z" />
    <glyph glyph-name="r" unicode="r" horiz-adv-x="433" 
d="M374 472q62 0 62 -72q0 -29 -10 -53.5t-21 -31.5q-27 11 -65 11q-56 0 -90 -25v-222q0 -31 7.5 -37t53.5 -12v-30h-285v30q27 6 31.5 12t4.5 37v233q0 50 -5.5 62.5t-39.5 35.5v16q132 36 233 45l-18 -143l11 -4q27 73 55.5 110.5t75.5 37.5z" />
    <glyph glyph-name="s" unicode="s" horiz-adv-x="442" 
d="M27 301q0 86 56.5 128.5t161.5 42.5q74 0 136 -20q3 -3 3 -55t-3 -65h-23q-15 28 -26 44t-36.5 34t-57.5 19q-49 2 -49 -38q0 -23 24 -41t58.5 -32.5t69.5 -32t59 -48t24 -70.5q0 -89 -57 -134.5t-151 -45.5q-122 0 -173 21q-7 53 -4 125h25q39 -55 70 -79t75 -24
q23 0 38 13t15 35q0 25 -24 42.5t-59 30.5t-69.5 29t-58.5 46.5t-24 74.5z" />
    <glyph glyph-name="t" unicode="t" horiz-adv-x="331" 
d="M326 88l5 -15q-53 -85 -153 -85q-68 0 -97.5 33t-29.5 112l1 283h-45v32q139 49 218 145h19l-4 -136h85v-41h-85q-1 -37 -1 -135v-103q0 -53 11.5 -73t38.5 -20z" />
    <glyph glyph-name="u" unicode="u" horiz-adv-x="584" 
d="M527 127q0 -50 5.5 -62.5t39.5 -35.5v-16q-21 -5 -106.5 -13t-126.5 -8l12 95l-7 5q-64 -105 -169 -105q-52 0 -88.5 33.5t-36.5 95.5v196q0 50 -5.5 62.5t-39.5 35.5v16q134 37 241 45q-8 -80 -8 -125v-148q0 -54 11.5 -78.5t38.5 -24.5t51 18v199q0 50 -5.5 62.5
t-39.5 35.5v16q134 37 241 45q-8 -80 -8 -125v-219z" />
    <glyph glyph-name="v" unicode="v" horiz-adv-x="436" 
d="M312 457h169v-30q-21 -4 -27.5 -10.5t-22.5 -39.5l-191 -390h-30l-197 391q-17 33 -23 39t-26 10v30h286v-30q-31 -4 -35.5 -12t9.5 -35l83 -165l40 92q48 108 -35 120v30z" />
    <glyph glyph-name="w" unicode="w" horiz-adv-x="708" 
d="M589 457h169v-30q-21 -5 -28.5 -12t-21.5 -38l-175 -390h-30l-127 276l-154 -276h-30l-165 387q-15 35 -21.5 42t-29.5 11v30h275v-30q-26 -2 -30 -11t7 -36l68 -177l56 111l-29 64q-15 33 -21 39t-22 10v30h262v-30q-23 -4 -26 -12t8 -35l68 -160l32 87q21 57 13 85.5
t-48 34.5v30z" />
    <glyph glyph-name="x" unicode="x" horiz-adv-x="537" 
d="M462 79q20 -33 26 -39t25 -10v-30h-254v30q15 4 14 13t-16 34l-57 94l-33 -56q-45 -74 22 -85v-30h-169v30q30 4 40 11t33 39l89 122l-107 176q-21 34 -27 39.5t-24 9.5v30h256v-30q-8 -2 -11 -4.5t-2.5 -8.5t4 -13.5t11.5 -20.5l52 -87l27 49q22 38 15 58.5t-45 26.5v30
h169v-30q-20 -4 -29.5 -11.5t-31.5 -38.5l-85 -118z" />
    <glyph glyph-name="y" unicode="y" horiz-adv-x="434" 
d="M311 457h167v-30q-18 -4 -25 -11.5t-19 -38.5l-168 -411q-53 -131 -76 -164q-24 -33 -46 -34q-40 0 -79.5 44t-42.5 81l11 12q133 0 151 7q12 5 21 25l1 1l-189 440q-13 30 -20 37t-28 12v30h273v-30q-25 -4 -28 -12.5t8 -34.5l86 -214l42 141q17 63 7.5 89t-46.5 31v30z
" />
    <glyph glyph-name="z" unicode="z" horiz-adv-x="479" 
d="M430 183h21q5 -89 -11 -183h-415l-9 12l222 406h-30q-18 0 -34 -7t-31.5 -24t-25 -28.5t-28 -39.5t-25.5 -38h-21q-2 86 7 176h412l6 -13l-224 -405q34 0 53 4t41.5 18.5t43 43t48.5 78.5z" />
    <glyph glyph-name="braceleft" unicode="{" horiz-adv-x="315" 
d="M222 437q0 -58 -37.5 -86t-118.5 -41v-11q80 -12 118 -40.5t38 -86.5v-144q0 -55 19 -76t92 -43v-27q-35 -1 -86 -1q-65 0 -104 35t-39 103v221l-91 58v13l91 58v221q0 69 39.5 104t103.5 35q51 0 86 -2v-27q-73 -21 -92 -42.5t-19 -76.5v-144z" />
    <glyph glyph-name="bar" unicode="|" horiz-adv-x="239" 
d="M84 -110v825h71v-825h-71z" />
    <glyph glyph-name="braceright" unicode="}" horiz-adv-x="314" 
d="M301 311v-13l-90 -58v-221q0 -68 -39 -103t-104 -35q-51 0 -86 1v27q73 22 92 43t19 76v144q0 58 38 86.5t118 40.5v11q-81 13 -118.5 41t-37.5 86v144q0 55 -19 76.5t-92 42.5v27q35 2 86 2q64 0 103.5 -35t39.5 -104v-221z" />
    <glyph glyph-name="asciitilde" unicode="~" horiz-adv-x="405" 
d="M283 273q-32 0 -85.5 32.5t-80.5 32.5q-16 0 -31 -11t-23.5 -21t-20.5 -29l-27 14q39 89 108 89q32 0 85.5 -32.5t80.5 -32.5q19 0 34.5 11.5t22 22t18.5 32.5l26 -14q-29 -94 -107 -94z" />
    <glyph glyph-name="uni00A0" unicode="&#xa0;" horiz-adv-x="186" 
 />
    <glyph glyph-name="exclamdown" unicode="&#xa1;" horiz-adv-x="259" 
d="M131 312q-38 0 -64.5 25t-26.5 62q0 34 26.5 59t64.5 25q36 0 62 -25t26 -59q0 -37 -25.5 -62t-62.5 -25zM127 -186q-35 0 -62 26.5t-19 76.5l74 353h19l74 -353q8 -51 -18.5 -77t-67.5 -26z" />
    <glyph glyph-name="cent" unicode="&#xa2;" horiz-adv-x="473" 
d="M462 152q-1 -6 -4 -16.5t-16.5 -36.5t-32.5 -47t-55 -38.5t-81 -19.5v-69h-37v70q-97 7 -153.5 65t-56.5 167q0 113 57.5 174.5t152.5 70.5v83h37v-81q88 -1 135 -27.5t47 -74.5q0 -41 -42 -63.5t-107 -17.5q0 71 -11.5 105.5t-42.5 34.5q-30 0 -44.5 -34.5t-14.5 -112.5
q0 -156 148 -156q30 0 56.5 10t38.5 20l11 9z" />
    <glyph glyph-name="sterling" unicode="&#xa3;" horiz-adv-x="457" 
d="M413 204h24l-30 -204h-389l-2 11l37 61q24 39 29.5 67.5t6.5 112.5h-62v19l62 9v43q0 88 55.5 134t154.5 46q62 0 99.5 -20t37.5 -57q0 -76 -132 -76q3 51 1 77.5t-6 34.5t-14 8q-14 0 -17.5 -14t-2.5 -53q2 -91 -4 -122h88v-29h-97q-11 -22 -32.5 -38t-69.5 -42l-1 -11
h176q44 0 55.5 5t32.5 38z" />
    <glyph glyph-name="currency" unicode="&#xa4;" horiz-adv-x="388" 
d="M357 238q0 -56 -37 -101l63 -64l-24 -24l-63 64q-46 -36 -102 -36t-102 36l-63 -63l-24 24l63 63q-37 45 -37 101q0 57 37 102l-63 63l24 24l63 -63q46 36 102 36q55 0 101 -36l64 63l24 -23l-63 -64q37 -45 37 -102zM194 177q25 0 42.5 18t17.5 43t-17.5 43t-42.5 18
t-42.5 -18t-17.5 -43t17.5 -43t42.5 -18z" />
    <glyph glyph-name="yen" unicode="&#xa5;" horiz-adv-x="493" 
d="M327 490h156v-28q-17 -2 -23.5 -6.5t-18.5 -24.5l-96 -166v-7h105v-29h-105v-41h105v-29h-105v-101q0 -18 5 -22t36 -8v-28h-268v28q29 4 34 8t5 22v101h-107v29h107v41h-107v29h105l-99 174q-10 18 -16 23.5t-20 6.5v28h249v-28q-48 -5 0 -85l50 -82l39 75
q20 43 10 65.5t-41 26.5v28z" />
    <glyph glyph-name="brokenbar" unicode="&#xa6;" horiz-adv-x="239" 
d="M84 387v328h71v-328h-71zM155 218v-328h-71v328h71z" />
    <glyph glyph-name="section" unicode="&#xa7;" horiz-adv-x="483" 
d="M203 -120q-91 0 -138 15q-3 18 -3 62.5t3 57.5h23q21 -57 43.5 -81t59.5 -24q27 0 41.5 15.5t14.5 41.5q0 35 -23 70.5t-56 68t-66 69t-56 87t-23 106.5q0 113 70.5 168.5t178.5 55.5q79 0 126 -15q3 -18 3 -62.5t-3 -57.5h-23q-21 55 -41.5 80t-46.5 25
q-25 0 -38.5 -13.5t-13.5 -35.5q0 -23 23.5 -53t56.5 -63t66 -71.5t56.5 -90.5t23.5 -108q0 -67 -21.5 -117t-59 -77t-81.5 -40t-96 -13zM326 -62q55 47 55 140q0 52 -24.5 100t-59 83.5t-69.5 69.5t-59.5 72.5t-24.5 77.5q0 27 15 52l-5 7q-51 -45 -51 -135q0 -47 24 -92
t58.5 -81t68.5 -72t58 -78.5t24 -86.5q0 -25 -15 -50z" />
    <glyph glyph-name="dieresis" unicode="&#xa8;" horiz-adv-x="495" 
d="M152 535q-34 0 -58 23.5t-24 55.5q0 34 23.5 57.5t58.5 23.5q32 0 54.5 -23.5t22.5 -57.5q0 -32 -22.5 -55.5t-54.5 -23.5zM347 535q-34 0 -57.5 23.5t-23.5 55.5q0 34 23 57.5t58 23.5q33 0 55.5 -23.5t22.5 -57.5q0 -32 -22.5 -55.5t-55.5 -23.5z" />
    <glyph glyph-name="copyright" unicode="&#xa9;" horiz-adv-x="608" 
d="M304 17q-119 0 -198.5 81.5t-79.5 206.5q0 127 79.5 210t199.5 83q118 0 197.5 -83t79.5 -210q0 -125 -79.5 -206.5t-198.5 -81.5zM306 48q104 0 170.5 72.5t66.5 185.5q0 115 -66.5 188t-171.5 73q-104 0 -172 -73t-68 -188q0 -113 68 -185.5t173 -72.5zM339 142
q-196 0 -196 168q0 83 47.5 128.5t130.5 45.5q74 0 114 -16q2 -51 0 -96h-15q-32 89 -89 89q-73 0 -73 -140q0 -68 22 -112t65 -44q49 0 85 90h15q0 -49 -9 -101q-48 -12 -97 -12z" />
    <glyph glyph-name="guillemotleft" unicode="&#xab;" horiz-adv-x="542" 
d="M278 463q-56 -150 -74 -209q14 -42 72 -192l-13 -13q-66 46 -139 110.5t-96 95.5v13q28 35 101.5 100t135.5 108zM522 463q-56 -150 -74 -209q14 -42 72 -192l-13 -13q-66 46 -139 110.5t-96 95.5v13q28 35 101.5 100t135.5 108z" />
    <glyph glyph-name="logicalnot" unicode="&#xac;" horiz-adv-x="370" 
d="M13 380h309v-198h-45v159h-265z" />
    <glyph glyph-name="registered" unicode="&#xae;" horiz-adv-x="517" 
d="M264 656q90 0 144 -60t54 -151q0 -86 -55 -146.5t-145 -60.5q-93 0 -150 60.5t-57 146.5q0 91 57.5 151t151.5 60zM262 267q76 0 119 47t43 131q0 80 -46 131.5t-116 51.5q-80 0 -124.5 -48.5t-44.5 -134.5q0 -73 49.5 -125.5t119.5 -52.5zM345 388q9 -18 21 -19v-16
q-26 -2 -45 -2q-27 0 -38 28l-24 55h-19v-43q0 -14 2 -17t15 -5v-16h-94v16q13 2 15 5t2 17v125q0 14 -2 16.5t-16 4.5v16h99q48 0 69 -13t21 -41q0 -37 -36 -52zM240 451h10q21 0 29.5 10t8.5 34q0 41 -35 41h-13v-85z" />
    <glyph glyph-name="macron" unicode="&#xaf;" horiz-adv-x="415" 
d="M70 572v77h275v-77h-275z" />
    <glyph glyph-name="degree" unicode="&#xb0;" horiz-adv-x="279" 
d="M141 420q-52 0 -84 34t-32 83q0 51 32.5 85t84.5 34q51 0 81 -33.5t30 -85.5q0 -49 -31 -83t-81 -34zM141 460q30 0 48 20.5t18 56.5q0 35 -19 57t-47 22q-32 0 -50.5 -21t-18.5 -58q0 -32 20.5 -54.5t48.5 -22.5z" />
    <glyph glyph-name="plusminus" unicode="&#xb1;" horiz-adv-x="386" 
d="M216 391h145v-39h-145v-156h-46v156h-145l1 39h144v155h46v-155zM43 101l1 38h299v-38h-300z" />
    <glyph glyph-name="acute" unicode="&#xb4;" horiz-adv-x="351" 
d="M83 516l-13 7l35 84q26 62 45.5 84.5t50.5 22.5q37 0 58.5 -18t21.5 -44q0 -30 -29 -50q-39 -27 -169 -86z" />
    <glyph glyph-name="paragraph" unicode="&#xb6;" horiz-adv-x="579" 
d="M547 615q-43 -6 -50.5 -12t-7.5 -37v-484q0 -31 7.5 -37t50.5 -12v-33h-183q-157 0 -248 76.5t-91 237.5q0 159 88 246.5t221 87.5h213v-33zM246 338q0 -65 7.5 -114.5t25 -92t51 -65t81.5 -22.5h26v406q0 101 -11.5 128t-56.5 27q-66 0 -94.5 -63t-28.5 -204z" />
    <glyph glyph-name="periodcentered" unicode="&#xb7;" horiz-adv-x="195" 
d="M99 252q-33 0 -57 23.5t-24 55.5q0 34 23.5 57.5t57.5 23.5q32 0 54.5 -23.5t22.5 -57.5q0 -32 -22.5 -55.5t-54.5 -23.5z" />
    <glyph glyph-name="cedilla" unicode="&#xb8;" horiz-adv-x="370" 
d="M191 -41q109 -17 109 -97q0 -46 -30.5 -74t-85.5 -28q-56 0 -83 30t-31 64l18 10l3 -3q3 -3 7 -6t10 -6.5t15.5 -5.5t20.5 -2q42 0 42 37q0 34 -60 46l45 79l37 3z" />
    <glyph glyph-name="guillemotright" unicode="&#xbb;" horiz-adv-x="545" 
d="M270 268v-13q-23 -31 -96 -95.5t-139 -110.5l-13 13q58 150 72 192q-18 59 -74 209l13 13q62 -43 135.5 -108t101.5 -100zM277 476q62 -43 135.5 -108t101.5 -100v-13q-23 -31 -96 -95.5t-139 -110.5l-13 13q58 150 72 192q-18 59 -74 209z" />
    <glyph glyph-name="onequarter" unicode="&#xbc;" horiz-adv-x="736" 
d="M14 279q40 4 46.5 10.5t6.5 42.5v199q0 41 -8.5 53t-47.5 26v11q109 25 178 29q-3 -54 -3 -76v-242q0 -36 6.5 -42.5t44.5 -10.5v-20h-223v20zM490 648h69l-352 -648h-70zM671 73q0 -36 6 -42.5t43 -10.5v-20h-219v20q38 4 44.5 10.5t6.5 42.5v11h-147l-4 8l177 297h96
q-3 -27 -3 -52v-227h53l4 -5l-9 -21h-48v-11zM448 110h104v186l-104 -179v-7z" />
    <glyph glyph-name="onehalf" unicode="&#xbd;" horiz-adv-x="731" 
d="M14 259v20q40 4 46.5 10.5t6.5 42.5v199q0 41 -8.5 53t-47.5 26v11q109 25 178 29q-3 -54 -3 -76v-242q0 -36 6.5 -42.5t44.5 -10.5v-20h-223zM137 0l353 648h69l-352 -648h-70zM443 0l-1 8l55 65q47 56 71 98.5t24 84.5q0 30 -16 46.5t-43 16.5q-20 0 -36.5 -11
t-22.5 -22l-7 -11l-12 3q7 50 40.5 83t94.5 33q51 0 80.5 -26.5t29.5 -72.5q0 -58 -39 -102t-115 -89l-1 -7h90q28 0 39.5 6.5t26.5 34.5h17l-21 -138h-254z" />
    <glyph glyph-name="threequarters" unicode="&#xbe;" horiz-adv-x="778" 
d="M292 370q0 -55 -39 -87t-118 -32q-65 0 -96 20t-31 54q0 25 26 39t67 11q-3 -48 5.5 -73t36.5 -25q42 0 42 63q0 105 -107 102l-4 17q93 19 93 73q0 21 -17 35t-45 14q-21 0 -38.5 -9.5t-24.5 -18.5l-7 -9l-11 5q29 104 137 104q53 0 83.5 -22.5t30.5 -62.5
q0 -70 -91 -89v-8q108 -11 108 -101zM532 648h69l-352 -648h-70zM713 73q0 -36 6 -42.5t43 -10.5v-20h-219v20q38 4 44.5 10.5t6.5 42.5v11h-147l-4 8l177 297h96q-3 -27 -3 -52v-227h53l4 -5l-9 -21h-48v-11zM490 110h104v186l-104 -179v-7z" />
    <glyph glyph-name="questiondown" unicode="&#xbf;" horiz-adv-x="429" 
d="M244 312q-37 0 -62.5 25t-25.5 62q0 34 26 59t62 25q39 0 65.5 -25t26.5 -59q0 -37 -26.5 -62t-65.5 -25zM236 -186q-220 0 -220 134q0 47 20 88.5t48 69t56.5 51t48.5 47t20 44.5l-2 20l12 7q53 -6 85.5 -41t32.5 -76q0 -29 -16.5 -56.5t-40.5 -49.5t-47.5 -44
t-40 -47.5t-16.5 -52.5q0 -58 48 -58q18 0 29 11.5t15.5 32t5.5 48.5t-1 61q63 19 106 -2t43 -70q0 -56 -50 -86.5t-136 -30.5z" />
    <glyph glyph-name="Agrave" unicode="&#xc0;" horiz-adv-x="701" 
d="M257 747q-53 14 -53 52q0 30 22.5 48.5t48.5 18.5q45 0 104 -59l96 -96l-13 -13q-112 24 -205 49zM624 82q11 -33 17 -39t36 -10v-33h-304v33q38 3 46.5 28t-8.5 80l-17 54h-215l-17 -50q-19 -59 -5 -83t69 -29v-33h-211v33q31 4 38.5 10.5t20.5 39.5l172 448
q18 47 14 62t-34 22v33h214zM193 237l188 1l-90 287z" />
    <glyph glyph-name="Aacute" unicode="&#xc1;" horiz-adv-x="701" 
d="M451 745q-59 -17 -191 -46l-13 13l94 94q65 65 104 65q31 0 52.5 -19t21.5 -47q0 -40 -68 -60zM624 82q11 -33 17 -39t36 -10v-33h-304v33q38 3 46.5 28t-8.5 80l-17 54h-215l-17 -50q-19 -59 -5 -83t69 -29v-33h-211v33q31 4 38.5 10.5t20.5 39.5l172 448q18 47 14 62
t-34 22v33h214zM193 237l188 1l-90 287z" />
    <glyph glyph-name="Acircumflex" unicode="&#xc2;" horiz-adv-x="701" 
d="M345 753q-16 -6 -66.5 -25t-81.5 -30l-13 13q47 57 106 112q40 38 60 38q18 0 61 -38q49 -43 107 -112l-13 -13q-33 10 -89 30t-71 25zM624 82q11 -33 17 -39t36 -10v-33h-304v33q38 3 46.5 28t-8.5 80l-17 54h-215l-17 -50q-19 -59 -5 -83t69 -29v-33h-211v33
q31 4 38.5 10.5t20.5 39.5l172 448q18 47 14 62t-34 22v33h214zM193 237l188 1l-90 287z" />
    <glyph glyph-name="Atilde" unicode="&#xc3;" horiz-adv-x="701" 
d="M193 701l-13 3q-2 55 22 101.5t76 46.5q26 0 78 -22.5t75 -22.5q25 0 41 12t32 37l13 -5q5 -53 -20.5 -101.5t-80.5 -48.5q-35 0 -85.5 23.5t-65.5 23.5q-40 0 -72 -47zM624 82q11 -33 17 -39t36 -10v-33h-304v33q38 3 46.5 28t-8.5 80l-17 54h-215l-17 -50
q-19 -59 -5 -83t69 -29v-33h-211v33q31 4 38.5 10.5t20.5 39.5l172 448q18 47 14 62t-34 22v33h214zM193 237l188 1l-90 287z" />
    <glyph glyph-name="Adieresis" unicode="&#xc4;" horiz-adv-x="701" 
d="M242 701q-35 0 -59 23.5t-24 56.5q0 35 24 58.5t59 23.5q32 0 55 -24t23 -58q0 -32 -23 -56t-55 -24zM451 701q-35 0 -58.5 23.5t-23.5 56.5q0 35 23.5 58.5t58.5 23.5q33 0 55.5 -23.5t22.5 -58.5q0 -33 -22.5 -56.5t-55.5 -23.5zM624 82q11 -33 17 -39t36 -10v-33h-304
v33q38 3 46.5 28t-8.5 80l-17 54h-215l-17 -50q-19 -59 -5 -83t69 -29v-33h-211v33q31 4 38.5 10.5t20.5 39.5l172 448q18 47 14 62t-34 22v33h214zM193 237l188 1l-90 287z" />
    <glyph glyph-name="Aring" unicode="&#xc5;" horiz-adv-x="701" 
d="M347 675q-40 0 -68 27.5t-28 65.5q0 40 27.5 68t68.5 28q38 0 64.5 -28t26.5 -68q0 -38 -26.5 -65.5t-64.5 -27.5zM346 818q-20 0 -32.5 -14t-12.5 -36q0 -20 13 -33.5t32 -13.5q18 0 30 13.5t12 33.5q0 22 -12 36t-30 14zM624 82q11 -33 17 -39t36 -10v-33h-304v33
q38 3 46.5 28t-8.5 80l-17 54h-215l-17 -50q-19 -59 -5 -83t69 -29v-33h-211v33q31 4 38.5 10.5t20.5 39.5l172 448q18 47 14 62t-34 22v33h214zM193 237l188 1l-90 287z" />
    <glyph glyph-name="AE" unicode="&#xc6;" horiz-adv-x="969" 
d="M908 217h30q-7 -133 -23 -217h-542v33q44 6 51 12t7 37v162h-233l-36 -99q-20 -59 -5.5 -83t69.5 -29v-33h-211v33q31 4 38 10t21 40l169 429q22 59 9.5 78.5t-71.5 24.5v33h728q9 -88 0 -199h-28q-34 90 -75.5 123t-117.5 33h-58v-259h40q52 1 73 17.5t41 71.5h29
q5 -118 0 -230h-28q-22 62 -42.5 80t-72.5 18h-40v-211q0 -32 9.5 -40.5t52.5 -8.5h34q61 0 100.5 38.5t81.5 135.5zM213 286l218 1v318l-102 1z" />
    <glyph glyph-name="Ccedilla" unicode="&#xc7;" horiz-adv-x="625" 
d="M578 8q-71 -18 -177 -21l-10 -28q109 -17 109 -97q0 -46 -30.5 -74t-85.5 -28q-56 0 -83 30t-31 64l18 10l3 -3q3 -3 7 -6t10 -6.5t15.5 -5.5t20.5 -2q42 0 42 37q0 34 -60 46l36 63q-53 1 -99.5 11t-91.5 34t-76.5 60.5t-50.5 94.5t-19 132q0 161 91.5 249t251.5 88
q133 0 211 -36q7 -79 0 -177h-28q-31 89 -71 128.5t-98 39.5q-135 0 -135 -273q0 -132 42.5 -219t120.5 -87q92 0 161 172h30q0 -114 -23 -196z" />
    <glyph glyph-name="Egrave" unicode="&#xc8;" horiz-adv-x="628" 
d="M233 747q-53 14 -53 52q0 30 22.5 48.5t48.5 18.5q45 0 104 -59l96 -96l-13 -13q-112 24 -205 49zM567 217h30q-7 -133 -23 -217h-542v33q44 6 51 12t7 37v484q0 31 -7 37t-51 12v33h536q9 -88 0 -199h-28q-34 90 -75.5 123t-117.5 33h-58v-259h40q52 1 73 17.5t41 71.5
h29q5 -118 0 -230h-28q-22 62 -42.5 80t-72.5 18h-40v-211q0 -32 9.5 -40.5t52.5 -8.5h34q61 0 100.5 38.5t81.5 135.5z" />
    <glyph glyph-name="Eacute" unicode="&#xc9;" horiz-adv-x="628" 
d="M427 745q-59 -17 -191 -46l-13 13l94 94q65 65 104 65q31 0 52.5 -19t21.5 -47q0 -40 -68 -60zM567 217h30q-7 -133 -23 -217h-542v33q44 6 51 12t7 37v484q0 31 -7 37t-51 12v33h536q9 -88 0 -199h-28q-34 90 -75.5 123t-117.5 33h-58v-259h40q52 1 73 17.5t41 71.5h29
q5 -118 0 -230h-28q-22 62 -42.5 80t-72.5 18h-40v-211q0 -32 9.5 -40.5t52.5 -8.5h34q61 0 100.5 38.5t81.5 135.5z" />
    <glyph glyph-name="Ecircumflex" unicode="&#xca;" horiz-adv-x="628" 
d="M321 753q-16 -6 -66.5 -25t-81.5 -30l-13 13q47 57 106 112q40 38 60 38q18 0 61 -38q49 -43 107 -112l-13 -13q-33 10 -89 30t-71 25zM567 217h30q-7 -133 -23 -217h-542v33q44 6 51 12t7 37v484q0 31 -7 37t-51 12v33h536q9 -88 0 -199h-28q-34 90 -75.5 123t-117.5 33
h-58v-259h40q52 1 73 17.5t41 71.5h29q5 -118 0 -230h-28q-22 62 -42.5 80t-72.5 18h-40v-211q0 -32 9.5 -40.5t52.5 -8.5h34q61 0 100.5 38.5t81.5 135.5z" />
    <glyph glyph-name="Edieresis" unicode="&#xcb;" horiz-adv-x="628" 
d="M218 701q-35 0 -59 23.5t-24 56.5q0 35 24 58.5t59 23.5q32 0 55 -24t23 -58q0 -32 -23 -56t-55 -24zM427 701q-35 0 -58.5 23.5t-23.5 56.5q0 35 23.5 58.5t58.5 23.5q33 0 55.5 -23.5t22.5 -58.5q0 -33 -22.5 -56.5t-55.5 -23.5zM567 217h30q-7 -133 -23 -217h-542v33
q44 6 51 12t7 37v484q0 31 -7 37t-51 12v33h536q9 -88 0 -199h-28q-34 90 -75.5 123t-117.5 33h-58v-259h40q52 1 73 17.5t41 71.5h29q5 -118 0 -230h-28q-22 62 -42.5 80t-72.5 18h-40v-211q0 -32 9.5 -40.5t52.5 -8.5h34q61 0 100.5 38.5t81.5 135.5z" />
    <glyph glyph-name="Igrave" unicode="&#xcc;" horiz-adv-x="379" 
d="M304 698q-112 24 -205 49q-53 14 -53 52q0 30 22.5 48.5t48.5 18.5q45 0 104 -59l96 -96zM32 0v33q44 6 51 12t7 37v484q0 31 -7 37t-51 12v33h315v-33q-43 -6 -50.5 -12t-7.5 -37v-484q0 -31 7.5 -37t50.5 -12v-33h-315z" />
    <glyph glyph-name="Iacute" unicode="&#xcd;" horiz-adv-x="379" 
d="M102 699l-13 13l94 94q65 65 104 65q31 0 52.5 -19t21.5 -47q0 -40 -68 -60q-59 -17 -191 -46zM32 0v33q44 6 51 12t7 37v484q0 31 -7 37t-51 12v33h315v-33q-43 -6 -50.5 -12t-7.5 -37v-484q0 -31 7.5 -37t50.5 -12v-33h-315z" />
    <glyph glyph-name="Icircumflex" unicode="&#xce;" horiz-adv-x="379" 
d="M253 823q49 -43 107 -112l-13 -13q-33 10 -89 30t-71 25q-15 -6 -66 -25t-82 -30l-13 13q47 57 106 112q40 38 60 38q18 0 61 -38zM32 615v33h315v-33q-43 -6 -50.5 -12t-7.5 -37v-484q0 -31 7.5 -37t50.5 -12v-33h-315v33q44 6 51 12t7 37v484q0 31 -7 37t-51 12z" />
    <glyph glyph-name="Idieresis" unicode="&#xcf;" horiz-adv-x="379" 
d="M84 701q-35 0 -59 23.5t-24 56.5q0 35 24 58.5t59 23.5q32 0 55 -24t23 -58q0 -32 -23 -56t-55 -24zM293 701q-35 0 -58.5 23.5t-23.5 56.5q0 35 23.5 58.5t58.5 23.5q33 0 55.5 -23.5t22.5 -58.5q0 -33 -22.5 -56.5t-55.5 -23.5zM32 0v33q44 6 51 12t7 37v484
q0 31 -7 37t-51 12v33h315v-33q-43 -6 -50.5 -12t-7.5 -37v-484q0 -31 7.5 -37t50.5 -12v-33h-315z" />
    <glyph glyph-name="Eth" unicode="&#xd0;" horiz-adv-x="736" 
d="M335 648q206 0 295.5 -67t89.5 -221q0 -360 -350 -360h-338v33q44 6 51 12t7 37v230h-53v31h53v223q0 31 -7 37t-51 12v33h303zM374 43q56 0 94.5 70t38.5 199q0 156 -39.5 224.5t-130.5 68.5h-48v-262h136v-31h-136v-220q0 -32 9.5 -40.5t52.5 -8.5h23z" />
    <glyph glyph-name="Ntilde" unicode="&#xd1;" horiz-adv-x="662" 
d="M185 701l-13 3q-2 55 22 101.5t76 46.5q26 0 78 -22.5t75 -22.5q25 0 41 12t32 37l13 -5q5 -53 -20.5 -101.5t-80.5 -48.5q-35 0 -85.5 23.5t-65.5 23.5q-40 0 -72 -47zM449 648h206v-33q-23 -2 -31 -3.5t-16 -12t-10 -26.5t-4 -52q-4 -60 -6 -306l-2 -224h-30l-422 410
v-34q0 -158 6 -229q5 -55 22 -77.5t64 -27.5v-33h-206v33q23 2 31 3.5t16 12t10 26.5t4 52q6 98 8 288v82q1 68 -8 87t-44 31v33h138l367 -361v51q0 88 -7 172q-5 55 -22 77.5t-64 27.5v33z" />
    <glyph glyph-name="Ograve" unicode="&#xd2;" horiz-adv-x="725" 
d="M486 698q-112 24 -205 49q-53 14 -53 52q0 30 22.5 48.5t48.5 18.5q45 0 104 -59l96 -96zM363 656q337 0 337 -322q0 -169 -87 -258t-250 -89q-166 0 -252 82t-86 245q0 166 87.5 254t250.5 88zM356 611q-35 0 -58 -20.5t-33.5 -62t-14 -84.5t-3.5 -106q0 -306 125 -306
q24 0 41.5 10.5t29 31t19 44.5t11 59t4.5 64.5t1 70.5q0 69 -5.5 120t-19 93t-38 64t-59.5 22z" />
    <glyph glyph-name="Oacute" unicode="&#xd3;" horiz-adv-x="725" 
d="M284 699l-13 13l94 94q65 65 104 65q31 0 52.5 -19t21.5 -47q0 -40 -68 -60q-59 -17 -191 -46zM363 656q337 0 337 -322q0 -169 -87 -258t-250 -89q-166 0 -252 82t-86 245q0 166 87.5 254t250.5 88zM356 611q-35 0 -58 -20.5t-33.5 -62t-14 -84.5t-3.5 -106
q0 -306 125 -306q24 0 41.5 10.5t29 31t19 44.5t11 59t4.5 64.5t1 70.5q0 69 -5.5 120t-19 93t-38 64t-59.5 22z" />
    <glyph glyph-name="Ocircumflex" unicode="&#xd4;" horiz-adv-x="725" 
d="M369 753q-16 -6 -66.5 -25t-81.5 -30l-13 13q47 57 106 112q40 38 60 38q18 0 61 -38q49 -43 107 -112l-13 -13q-33 10 -89 30t-71 25zM363 656q337 0 337 -322q0 -169 -87 -258t-250 -89q-166 0 -252 82t-86 245q0 166 87.5 254t250.5 88zM372 32q24 0 41.5 10.5t29 31
t19 44.5t11 59t4.5 64.5t1 70.5q0 69 -5.5 120t-19 93t-38 64t-59.5 22t-58 -20.5t-33.5 -62t-14 -84.5t-3.5 -106q0 -306 125 -306z" />
    <glyph glyph-name="Otilde" unicode="&#xd5;" horiz-adv-x="725" 
d="M302 852q26 0 78 -22.5t75 -22.5q25 0 41 12t32 37l13 -5q5 -53 -20.5 -101.5t-80.5 -48.5q-35 0 -85.5 23.5t-65.5 23.5q-40 0 -72 -47l-13 3q-2 55 22 101.5t76 46.5zM363 656q337 0 337 -322q0 -169 -87 -258t-250 -89q-166 0 -252 82t-86 245q0 166 87.5 254
t250.5 88zM356 611q-35 0 -58 -20.5t-33.5 -62t-14 -84.5t-3.5 -106q0 -306 125 -306q24 0 41.5 10.5t29 31t19 44.5t11 59t4.5 64.5t1 70.5q0 69 -5.5 120t-19 93t-38 64t-59.5 22z" />
    <glyph glyph-name="Odieresis" unicode="&#xd6;" horiz-adv-x="725" 
d="M266 701q-35 0 -59 23.5t-24 56.5q0 35 24 58.5t59 23.5q32 0 55 -24t23 -58q0 -32 -23 -56t-55 -24zM475 701q-35 0 -58.5 23.5t-23.5 56.5q0 35 23.5 58.5t58.5 23.5q33 0 55.5 -23.5t22.5 -58.5q0 -33 -22.5 -56.5t-55.5 -23.5zM363 656q337 0 337 -322
q0 -169 -87 -258t-250 -89q-166 0 -252 82t-86 245q0 166 87.5 254t250.5 88zM356 611q-35 0 -58 -20.5t-33.5 -62t-14 -84.5t-3.5 -106q0 -306 125 -306q24 0 41.5 10.5t29 31t19 44.5t11 59t4.5 64.5t1 70.5q0 69 -5.5 120t-19 93t-38 64t-59.5 22z" />
    <glyph glyph-name="multiply" unicode="&#xd7;" horiz-adv-x="378" 
d="M353 186l-29 -29l-135 135l-136 -135l-26 27l135 135l-137 136l29 30l137 -137l135 135l26 -28l-134 -134z" />
    <glyph glyph-name="Oslash" unicode="&#xd8;" horiz-adv-x="725" 
d="M606 583q94 -80 94 -249t-87 -258t-250 -89q-123 0 -202 45l-52 -63l-29 22l51 61q-106 82 -106 262q0 166 87.5 254t250.5 88q134 0 216 -53l45 55l28 -19zM356 611q-35 0 -58 -20.5t-33.5 -62t-14 -84.5t-3.5 -106q0 -87 10 -151l209 287q-24 137 -110 137zM372 32
q24 0 41.5 10.5t29 31t19 44.5t11 59t4.5 64.5t1 70.5q0 69 -5 113l-206 -285q29 -108 105 -108z" />
    <glyph glyph-name="Ugrave" unicode="&#xd9;" horiz-adv-x="673" 
d="M500 698q-112 24 -205 49q-53 14 -53 52q0 30 22.5 48.5t48.5 18.5q45 0 104 -59l96 -96zM352 -13q-143 0 -210.5 61t-67.5 184v334q0 31 -6.5 37t-45.5 12v33h304v-33q-40 -6 -46.5 -12t-6.5 -37v-256q0 -70 4.5 -114.5t18 -83.5t41 -57t70.5 -18q75 0 114 58t39 190
q0 116 -9 225q-5 55 -22 77.5t-64 27.5v33h201v-33q-20 -2 -27 -4t-14 -12t-9 -26t-4 -52q-4 -73 -4 -242q0 -155 -61.5 -223.5t-194.5 -68.5z" />
    <glyph glyph-name="Uacute" unicode="&#xda;" horiz-adv-x="673" 
d="M298 699l-13 13l94 94q65 65 104 65q31 0 52.5 -19t21.5 -47q0 -40 -68 -60q-59 -17 -191 -46zM352 -13q-143 0 -210.5 61t-67.5 184v334q0 31 -6.5 37t-45.5 12v33h304v-33q-40 -6 -46.5 -12t-6.5 -37v-256q0 -70 4.5 -114.5t18 -83.5t41 -57t70.5 -18q75 0 114 58
t39 190q0 116 -9 225q-5 55 -22 77.5t-64 27.5v33h201v-33q-20 -2 -27 -4t-14 -12t-9 -26t-4 -52q-4 -73 -4 -242q0 -155 -61.5 -223.5t-194.5 -68.5z" />
    <glyph glyph-name="Ucircumflex" unicode="&#xdb;" horiz-adv-x="673" 
d="M383 753q-15 -6 -66 -25t-82 -30l-13 13q47 57 106 112q40 38 60 38q18 0 61 -38q49 -43 107 -112l-13 -13q-33 10 -89 30t-71 25zM465 648h201v-33q-20 -2 -27 -4t-14 -12t-9 -26t-4 -52q-4 -73 -4 -242q0 -155 -61.5 -223.5t-194.5 -68.5q-143 0 -210.5 61t-67.5 184
v334q0 31 -6.5 37t-45.5 12v33h304v-33q-40 -6 -46.5 -12t-6.5 -37v-256q0 -70 4.5 -114.5t18 -83.5t41 -57t70.5 -18q75 0 114 58t39 190q0 116 -9 225q-5 55 -22 77.5t-64 27.5v33z" />
    <glyph glyph-name="Udieresis" unicode="&#xdc;" horiz-adv-x="673" 
d="M280 701q-35 0 -59 23.5t-24 56.5q0 35 24 58.5t59 23.5q32 0 55 -24t23 -58q0 -32 -23 -56t-55 -24zM489 701q-35 0 -58.5 23.5t-23.5 56.5q0 35 23.5 58.5t58.5 23.5q33 0 55.5 -23.5t22.5 -58.5q0 -33 -22.5 -56.5t-55.5 -23.5zM352 -13q-143 0 -210.5 61t-67.5 184
v334q0 31 -6.5 37t-45.5 12v33h304v-33q-40 -6 -46.5 -12t-6.5 -37v-256q0 -70 4.5 -114.5t18 -83.5t41 -57t70.5 -18q75 0 114 58t39 190q0 116 -9 225q-5 55 -22 77.5t-64 27.5v33h201v-33q-20 -2 -27 -4t-14 -12t-9 -26t-4 -52q-4 -73 -4 -242q0 -155 -61.5 -223.5
t-194.5 -68.5z" />
    <glyph glyph-name="Yacute" unicode="&#xdd;" horiz-adv-x="667" 
d="M446 745q-59 -17 -191 -46l-13 13l94 94q65 65 104 65q31 0 52.5 -19t21.5 -47q0 -40 -68 -60zM437 648h211v-33q-25 -3 -34.5 -10.5t-27.5 -39.5l-153 -271v-212q0 -31 7.5 -37t50.5 -12v-33h-315v33q44 6 51 12t7 37v199l-151 285q-16 31 -25 38.5t-33 10.5v33h304v-33
q-41 -4 -45.5 -22.5t27.5 -80.5l94 -179l89 172q27 55 12 80t-69 30v33z" />
    <glyph glyph-name="Thorn" unicode="&#xde;" horiz-adv-x="677" 
d="M372 541q167 0 231 -40.5t64 -154.5q0 -117 -69.5 -169.5t-184.5 -52.5h-124v-42q0 -31 9.5 -37t64.5 -12v-33h-331v33q44 6 51 12t7 37v484q0 31 -7 37t-51 12v33h315v-33q-43 -6 -50.5 -12t-7.5 -37v-25h83zM352 167q56 0 78.5 41t22.5 125q0 86 -26.5 125.5
t-92.5 39.5h-45v-331h63z" />
    <glyph glyph-name="germandbls" unicode="&#xdf;" horiz-adv-x="673" 
d="M499 448q0 -30 24.5 -61.5t53.5 -57t53.5 -68.5t24.5 -93q0 -89 -55.5 -135t-142.5 -46q-80 0 -137 21q-6 57 -2 109h25q28 -46 51.5 -65.5t52.5 -19.5q18 0 32 13t14 34q0 26 -15.5 49.5t-37.5 43.5t-44.5 42t-39.5 53.5t-19 69.5q-3 52 22.5 90t72.5 72q0 82 -20 123
t-75 41q-46 0 -65 -35t-19 -126v-423q0 -31 4.5 -37t31.5 -12v-30h-260v30q27 6 31.5 12t4.5 37v337h-50v38l50 3v7q0 239 293 239q271 0 274 -153q-67 -15 -100 -38t-33 -64z" />
    <glyph glyph-name="agrave" unicode="&#xe0;" horiz-adv-x="547" 
d="M200 595q-41 29 -39 61q2 26 24 43t58 16q32 -1 51 -25t38 -85l27 -86l-13 -6q-91 43 -146 82zM540 69l8 -15q-20 -30 -55.5 -48.5t-76.5 -18.5q-51 0 -80 20.5t-37 71.5q-27 -48 -59.5 -70t-83.5 -22q-67 0 -99.5 34t-32.5 83q0 21 5.5 38t19.5 31t25.5 23.5t37 20.5
t41 16.5t50 17t50.5 17.5l43 15v53q0 93 -45 93q-48 0 -37 -129q-41 -6 -76 -5t-58 17.5t-23 46.5q0 49 63 81t143 32q127 0 174 -37.5t47 -141.5v-157q0 -46 6 -59.5t23 -13.5q3 0 27 6zM260 87q20 0 36 17v17v122q-5 -2 -20 -9.5t-18.5 -9.5t-14 -8.5t-13 -11t-7.5 -12.5
t-6 -17.5t-1 -22.5q0 -65 44 -65z" />
    <glyph glyph-name="aacute" unicode="&#xe1;" horiz-adv-x="547" 
d="M393 602q-39 -27 -169 -86l-13 7l35 84q26 62 45.5 84.5t50.5 22.5q37 0 58.5 -18t21.5 -44q0 -30 -29 -50zM540 69l8 -15q-20 -30 -55.5 -48.5t-76.5 -18.5q-51 0 -80 20.5t-37 71.5q-27 -48 -59.5 -70t-83.5 -22q-67 0 -99.5 34t-32.5 83q0 21 5.5 38t19.5 31
t25.5 23.5t37 20.5t41 16.5t50 17t50.5 17.5l43 15v53q0 93 -45 93q-48 0 -37 -129q-41 -6 -76 -5t-58 17.5t-23 46.5q0 49 63 81t143 32q127 0 174 -37.5t47 -141.5v-157q0 -46 6 -59.5t23 -13.5q3 0 27 6zM260 87q20 0 36 17v17v122q-5 -2 -20 -9.5t-18.5 -9.5t-14 -8.5
t-13 -11t-7.5 -12.5t-6 -17.5t-1 -22.5q0 -65 44 -65z" />
    <glyph glyph-name="acircumflex" unicode="&#xe2;" horiz-adv-x="547" 
d="M276 581q-42 -20 -122 -62l-13 13q19 43 65 101q51 66 74 66q22 0 74 -66t67 -102l-13 -13zM540 69l8 -15q-20 -30 -55.5 -48.5t-76.5 -18.5q-51 0 -80 20.5t-37 71.5q-27 -48 -59.5 -70t-83.5 -22q-67 0 -99.5 34t-32.5 83q0 21 5.5 38t19.5 31t25.5 23.5t37 20.5
t41 16.5t50 17t50.5 17.5l43 15v53q0 93 -45 93q-48 0 -37 -129q-41 -6 -76 -5t-58 17.5t-23 46.5q0 49 63 81t143 32q127 0 174 -37.5t47 -141.5v-157q0 -46 6 -59.5t23 -13.5q3 0 27 6zM260 87q20 0 36 17v17v122q-5 -2 -20 -9.5t-18.5 -9.5t-14 -8.5t-13 -11t-7.5 -12.5
t-6 -17.5t-1 -22.5q0 -65 44 -65z" />
    <glyph glyph-name="atilde" unicode="&#xe3;" horiz-adv-x="547" 
d="M119 543l-13 3q-2 33 6 65t32 57.5t59 25.5q27 0 79 -22.5t75 -22.5q42 0 73 48l13 -4q5 -53 -21 -101.5t-81 -48.5q-35 0 -85 23.5t-66 23.5q-40 0 -71 -47zM540 69l8 -15q-20 -30 -55.5 -48.5t-76.5 -18.5q-51 0 -80 20.5t-37 71.5q-27 -48 -59.5 -70t-83.5 -22
q-67 0 -99.5 34t-32.5 83q0 21 5.5 38t19.5 31t25.5 23.5t37 20.5t41 16.5t50 17t50.5 17.5l43 15v53q0 93 -45 93q-48 0 -37 -129q-41 -6 -76 -5t-58 17.5t-23 46.5q0 49 63 81t143 32q127 0 174 -37.5t47 -141.5v-157q0 -46 6 -59.5t23 -13.5q3 0 27 6zM260 87q20 0 36 17
v17v122q-5 -2 -20 -9.5t-18.5 -9.5t-14 -8.5t-13 -11t-7.5 -12.5t-6 -17.5t-1 -22.5q0 -65 44 -65z" />
    <glyph glyph-name="adieresis" unicode="&#xe4;" horiz-adv-x="547" 
d="M178 535q-34 0 -58 23.5t-24 55.5q0 34 23.5 57.5t58.5 23.5q32 0 54.5 -23.5t22.5 -57.5q0 -32 -22.5 -55.5t-54.5 -23.5zM373 535q-34 0 -57.5 23.5t-23.5 55.5q0 34 23 57.5t58 23.5q33 0 55.5 -23.5t22.5 -57.5q0 -32 -22.5 -55.5t-55.5 -23.5zM540 69l8 -15
q-20 -30 -55.5 -48.5t-76.5 -18.5q-51 0 -80 20.5t-37 71.5q-27 -48 -59.5 -70t-83.5 -22q-67 0 -99.5 34t-32.5 83q0 21 5.5 38t19.5 31t25.5 23.5t37 20.5t41 16.5t50 17t50.5 17.5l43 15v53q0 93 -45 93q-48 0 -37 -129q-41 -6 -76 -5t-58 17.5t-23 46.5q0 49 63 81
t143 32q127 0 174 -37.5t47 -141.5v-157q0 -46 6 -59.5t23 -13.5q3 0 27 6zM260 87q20 0 36 17v17v122q-5 -2 -20 -9.5t-18.5 -9.5t-14 -8.5t-13 -11t-7.5 -12.5t-6 -17.5t-1 -22.5q0 -65 44 -65z" />
    <glyph glyph-name="aring" unicode="&#xe5;" horiz-adv-x="547" 
d="M275 528q-40 0 -68 27.5t-28 65.5q0 41 27.5 68.5t68.5 27.5q38 0 64.5 -28t26.5 -68q0 -38 -26.5 -65.5t-64.5 -27.5zM274 671q-20 0 -32.5 -14t-12.5 -36q0 -20 13 -33.5t32 -13.5q18 0 30 13.5t12 33.5q0 22 -12 36t-30 14zM540 69l8 -15q-20 -30 -55.5 -48.5
t-76.5 -18.5q-51 0 -80 20.5t-37 71.5q-27 -48 -59.5 -70t-83.5 -22q-67 0 -99.5 34t-32.5 83q0 21 5.5 38t19.5 31t25.5 23.5t37 20.5t41 16.5t50 17t50.5 17.5l43 15v53q0 93 -45 93q-48 0 -37 -129q-41 -6 -76 -5t-58 17.5t-23 46.5q0 49 63 81t143 32q127 0 174 -37.5
t47 -141.5v-157q0 -46 6 -59.5t23 -13.5q3 0 27 6zM260 87q20 0 36 17v17v122q-5 -2 -20 -9.5t-18.5 -9.5t-14 -8.5t-13 -11t-7.5 -12.5t-6 -17.5t-1 -22.5q0 -65 44 -65z" />
    <glyph glyph-name="ae" unicode="&#xe6;" horiz-adv-x="744" 
d="M716 160l15 -15q-1 -6 -3.5 -17t-16.5 -38t-34.5 -48t-60 -38t-90.5 -17q-136 0 -196 97q-60 -97 -164 -97q-74 0 -108 34t-34 83q0 21 5.5 38t19.5 31t25.5 23.5t37 20.5t41 16.5t50 17t50.5 17.5l43 15v53q0 93 -45 93q-48 0 -37 -129q-41 -6 -76 -5t-58 17.5t-23 46.5
q0 49 63 81t143 32q105 0 148 -28q52 28 122 28q105 0 149.5 -46.5t44.5 -139.5l-17 -17h-241q4 -148 137 -148q34 0 61.5 9.5t38.5 19.5zM516 429q-23 0 -34 -28t-13 -93h89q1 71 -8.5 96t-33.5 25zM260 87q24 0 52 35q-16 46 -16 101v20q-5 -2 -20 -9.5t-18.5 -9.5
t-14 -8.5t-13 -11t-7.5 -12.5t-6 -17.5t-1 -22.5q0 -65 44 -65z" />
    <glyph glyph-name="ccedilla" unicode="&#xe7;" horiz-adv-x="457" 
d="M446 145q-1 -6 -3.5 -16.5t-15.5 -37.5t-31 -47.5t-53.5 -38t-80.5 -18.5l-10 -28q109 -17 109 -97q0 -46 -30.5 -74t-85.5 -28q-56 0 -83 30t-31 64l18 10l3 -3q3 -3 7 -6t10 -6.5t15.5 -5.5t20.5 -2q42 0 42 37q0 34 -60 46l37 65q-90 9 -144 67.5t-54 166.5
q0 123 66.5 186t170.5 63q85 0 130.5 -26.5t45.5 -75.5t-42.5 -71.5t-106.5 -8.5q0 73 -8.5 106t-35.5 33q-53 0 -53 -149q0 -79 36.5 -119t105.5 -40q28 0 52 9.5t34 19.5l10 10z" />
    <glyph glyph-name="egrave" unicode="&#xe8;" horiz-adv-x="474" 
d="M178 595q-41 29 -39 61q2 26 24 43t58 16q32 -1 51 -25t38 -85l27 -86l-13 -6q-91 43 -146 82zM446 160l15 -15q-1 -6 -3.5 -17t-16.5 -38t-34.5 -48t-60 -38t-90.5 -17q-102 0 -166 59.5t-64 176.5q0 123 66.5 186t170.5 63q105 0 149.5 -46.5t44.5 -139.5l-17 -17h-241
q4 -148 137 -148q34 0 61.5 9.5t38.5 19.5zM246 429q-23 0 -34 -28t-13 -93h89q1 71 -8.5 96t-33.5 25z" />
    <glyph glyph-name="eacute" unicode="&#xe9;" horiz-adv-x="474" 
d="M371 602q-39 -27 -169 -86l-13 7l35 84q26 62 45.5 84.5t50.5 22.5q37 0 58.5 -18t21.5 -44q0 -30 -29 -50zM446 160l15 -15q-1 -6 -3.5 -17t-16.5 -38t-34.5 -48t-60 -38t-90.5 -17q-102 0 -166 59.5t-64 176.5q0 123 66.5 186t170.5 63q105 0 149.5 -46.5t44.5 -139.5
l-17 -17h-241q4 -148 137 -148q34 0 61.5 9.5t38.5 19.5zM246 429q-23 0 -34 -28t-13 -93h89q1 71 -8.5 96t-33.5 25z" />
    <glyph glyph-name="ecircumflex" unicode="&#xea;" horiz-adv-x="474" 
d="M254 581q-42 -20 -122 -62l-13 13q19 43 65 101q51 66 74 66q22 0 74 -66t67 -102l-13 -13zM446 160l15 -15q-1 -6 -3.5 -17t-16.5 -38t-34.5 -48t-60 -38t-90.5 -17q-102 0 -166 59.5t-64 176.5q0 123 66.5 186t170.5 63q105 0 149.5 -46.5t44.5 -139.5l-17 -17h-241
q4 -148 137 -148q34 0 61.5 9.5t38.5 19.5zM246 429q-23 0 -34 -28t-13 -93h89q1 71 -8.5 96t-33.5 25z" />
    <glyph glyph-name="edieresis" unicode="&#xeb;" horiz-adv-x="474" 
d="M156 535q-34 0 -58 23.5t-24 55.5q0 34 23.5 57.5t58.5 23.5q32 0 54.5 -23.5t22.5 -57.5q0 -32 -22.5 -55.5t-54.5 -23.5zM351 535q-34 0 -57.5 23.5t-23.5 55.5q0 34 23 57.5t58 23.5q33 0 55.5 -23.5t22.5 -57.5q0 -32 -22.5 -55.5t-55.5 -23.5zM446 160l15 -15
q-1 -6 -3.5 -17t-16.5 -38t-34.5 -48t-60 -38t-90.5 -17q-102 0 -166 59.5t-64 176.5q0 123 66.5 186t170.5 63q105 0 149.5 -46.5t44.5 -139.5l-17 -17h-241q4 -148 137 -148q34 0 61.5 9.5t38.5 19.5zM246 429q-23 0 -34 -28t-13 -93h89q1 71 -8.5 96t-33.5 25z" />
    <glyph glyph-name="igrave" unicode="&#xec;" horiz-adv-x="298" 
d="M234 513q-91 43 -146 82q-41 29 -39 61q2 26 24 43t58 16q32 -1 51 -25t38 -85l27 -86zM26 0v30q27 6 31.5 12t4.5 37v233q0 50 -5.5 62.5t-39.5 35.5v16q134 37 241 45q-8 -80 -8 -125v-267q0 -31 4.5 -37t31.5 -12v-30h-260z" />
    <glyph glyph-name="iacute" unicode="&#xed;" horiz-adv-x="298" 
d="M112 516l-13 7l35 84q26 62 45.5 84.5t50.5 22.5q37 0 58.5 -18t21.5 -44q0 -30 -29 -50q-39 -27 -169 -86zM26 0v30q27 6 31.5 12t4.5 37v233q0 50 -5.5 62.5t-39.5 35.5v16q134 37 241 45q-8 -80 -8 -125v-267q0 -31 4.5 -37t31.5 -12v-30h-260z" />
    <glyph glyph-name="icircumflex" unicode="&#xee;" horiz-adv-x="298" 
d="M242 633q52 -66 67 -102l-13 -13l-132 63q-42 -20 -122 -62l-13 13q19 43 65 101q51 66 74 66q22 0 74 -66zM250 79q0 -31 4.5 -37t31.5 -12v-30h-260v30q27 6 31.5 12t4.5 37v233q0 50 -5.5 62.5t-39.5 35.5v16q134 37 241 45q-8 -80 -8 -125v-267z" />
    <glyph glyph-name="idieresis" unicode="&#xef;" horiz-adv-x="298" 
d="M66 535q-34 0 -58 23.5t-24 55.5q0 34 23.5 57.5t58.5 23.5q32 0 54.5 -23.5t22.5 -57.5q0 -32 -22.5 -55.5t-54.5 -23.5zM261 535q-34 0 -57.5 23.5t-23.5 55.5q0 34 23 57.5t58 23.5q33 0 55.5 -23.5t22.5 -57.5q0 -32 -22.5 -55.5t-55.5 -23.5zM26 0v30q27 6 31.5 12
t4.5 37v233q0 50 -5.5 62.5t-39.5 35.5v16q134 37 241 45q-8 -80 -8 -125v-267q0 -31 4.5 -37t31.5 -12v-30h-260z" />
    <glyph glyph-name="eth" unicode="&#xf0;" horiz-adv-x="562" 
d="M372 645q80 -51 122 -143t42 -215q0 -159 -65 -229.5t-193 -70.5q-121 0 -186.5 53.5t-65.5 182.5q0 128 63 188.5t155 60.5q53 0 103 -20l6 10q-22 71 -83 131l-122 -62l-17 30l112 56q-71 57 -144 64l1 16q137 15 237 -33l108 54l18 -27zM283 30q22 0 32.5 14t15 53.5
t4.5 122.5q0 113 -12.5 161t-43.5 48q-22 0 -32.5 -14.5t-15.5 -55.5t-5 -125q0 -108 12.5 -156t44.5 -48z" />
    <glyph glyph-name="ntilde" unicode="&#xf1;" horiz-adv-x="596" 
d="M156 543l-13 3q-2 33 6 65t32 57.5t59 25.5q27 0 79 -22.5t75 -22.5q42 0 73 48l13 -4q5 -53 -21 -101.5t-81 -48.5q-35 0 -85 23.5t-66 23.5q-40 0 -71 -47zM543 79q0 -31 4.5 -37t31.5 -12v-30h-260v30q27 6 31.5 12t4.5 37v182q0 55 -12 79t-42 24q-27 0 -51 -18v-267
q0 -31 4.5 -37t31.5 -12v-30h-260v30q27 6 31.5 12t4.5 37v233q0 50 -5.5 62.5t-39.5 35.5v16q132 36 233 45l-11 -99l7 -4q63 104 168 104q55 0 92 -33.5t37 -95.5v-264z" />
    <glyph glyph-name="ograve" unicode="&#xf2;" horiz-adv-x="561" 
d="M353 513q-91 43 -146 82q-41 29 -39 61q2 26 24 43t58 16q32 -1 51 -25t38 -85l27 -86zM278 -13q-122 0 -187 53t-65 183q0 126 68.5 187t191.5 61q125 0 187 -50.5t62 -183.5q0 -123 -65.5 -186.5t-191.5 -63.5zM283 30q22 0 32.5 14t15 53.5t4.5 122.5
q0 113 -12.5 160.5t-43.5 47.5q-22 0 -32.5 -14.5t-15.5 -55t-5 -124.5q0 -108 12.5 -156t44.5 -48z" />
    <glyph glyph-name="oacute" unicode="&#xf3;" horiz-adv-x="561" 
d="M231 516l-13 7l35 84q26 62 45.5 84.5t50.5 22.5q37 0 58.5 -18t21.5 -44q0 -30 -29 -50q-39 -27 -169 -86zM278 -13q-122 0 -187 53t-65 183q0 126 68.5 187t191.5 61q125 0 187 -50.5t62 -183.5q0 -123 -65.5 -186.5t-191.5 -63.5zM283 30q22 0 32.5 14t15 53.5
t4.5 122.5q0 113 -12.5 160.5t-43.5 47.5q-22 0 -32.5 -14.5t-15.5 -55t-5 -124.5q0 -108 12.5 -156t44.5 -48z" />
    <glyph glyph-name="ocircumflex" unicode="&#xf4;" horiz-adv-x="561" 
d="M283 581q-42 -20 -122 -62l-13 13q19 43 65 101q51 66 74 66q22 0 74 -66t67 -102l-13 -13zM286 471q125 0 187 -50.5t62 -183.5q0 -123 -65.5 -186.5t-191.5 -63.5q-122 0 -187 53t-65 183q0 126 68.5 187t191.5 61zM283 30q22 0 32.5 14t15 53.5t4.5 122.5
q0 113 -12.5 160.5t-43.5 47.5q-22 0 -32.5 -14.5t-15.5 -55t-5 -124.5q0 -108 12.5 -156t44.5 -48z" />
    <glyph glyph-name="otilde" unicode="&#xf5;" horiz-adv-x="561" 
d="M210 694q27 0 79 -22.5t75 -22.5q42 0 73 48l13 -4q5 -53 -21 -101.5t-81 -48.5q-35 0 -85 23.5t-66 23.5q-40 0 -71 -47l-13 3q-2 33 6 65t32 57.5t59 25.5zM278 -13q-122 0 -187 53t-65 183q0 126 68.5 187t191.5 61q125 0 187 -50.5t62 -183.5q0 -123 -65.5 -186.5
t-191.5 -63.5zM283 30q22 0 32.5 14t15 53.5t4.5 122.5q0 113 -12.5 160.5t-43.5 47.5q-22 0 -32.5 -14.5t-15.5 -55t-5 -124.5q0 -108 12.5 -156t44.5 -48z" />
    <glyph glyph-name="odieresis" unicode="&#xf6;" horiz-adv-x="561" 
d="M185 535q-34 0 -58 23.5t-24 55.5q0 34 23.5 57.5t58.5 23.5q32 0 54.5 -23.5t22.5 -57.5q0 -32 -22.5 -55.5t-54.5 -23.5zM380 535q-34 0 -57.5 23.5t-23.5 55.5q0 34 23.5 57.5t57.5 23.5q33 0 55.5 -23.5t22.5 -57.5q0 -32 -22.5 -55.5t-55.5 -23.5zM278 -13
q-122 0 -187 53t-65 183q0 126 68.5 187t191.5 61q125 0 187 -50.5t62 -183.5q0 -123 -65.5 -186.5t-191.5 -63.5zM283 30q22 0 32.5 14t15 53.5t4.5 122.5q0 113 -12.5 160.5t-43.5 47.5q-22 0 -32.5 -14.5t-15.5 -55t-5 -124.5q0 -108 12.5 -156t44.5 -48z" />
    <glyph glyph-name="divide" unicode="&#xf7;" horiz-adv-x="352" 
d="M178 404q-25 0 -42 16.5t-17 39.5q0 25 17 42t42 17q23 0 39.5 -17t16.5 -42q0 -23 -16.5 -39.5t-39.5 -16.5zM26 302l1 39h299v-39h-300zM178 125q-25 0 -42 16.5t-17 39.5q0 25 17 41.5t42 16.5q23 0 39 -16.5t16 -41.5q0 -23 -16 -39.5t-39 -16.5z" />
    <glyph glyph-name="oslash" unicode="&#xf8;" horiz-adv-x="561" 
d="M458 432q77 -52 77 -195q0 -123 -65.5 -186.5t-191.5 -63.5q-95 0 -152 29l-36 -45l-26 20l34 43q-72 56 -72 189q0 126 68.5 187t191.5 61q90 0 143 -23l36 45l26 -20zM279 428q-22 0 -32.5 -14.5t-15.5 -55t-5 -124.5q0 -36 1 -52l103 153q-10 93 -51 93zM283 30
q22 0 32.5 14t15 53.5t4.5 122.5q0 44 -1 63l-104 -153q9 -100 53 -100z" />
    <glyph glyph-name="ugrave" unicode="&#xf9;" horiz-adv-x="584" 
d="M223 595q-41 29 -39 61q2 26 24 43t58 16q32 -1 51 -25t38 -85l27 -86l-13 -6q-91 43 -146 82zM527 127q0 -50 5.5 -62.5t39.5 -35.5v-16q-21 -5 -106.5 -13t-126.5 -8l12 95l-7 5q-64 -105 -169 -105q-52 0 -88.5 33.5t-36.5 95.5v196q0 50 -5.5 62.5t-39.5 35.5v16
q134 37 241 45q-8 -80 -8 -125v-148q0 -54 11.5 -78.5t38.5 -24.5t51 18v199q0 50 -5.5 62.5t-39.5 35.5v16q134 37 241 45q-8 -80 -8 -125v-219z" />
    <glyph glyph-name="uacute" unicode="&#xfa;" horiz-adv-x="584" 
d="M416 602q-39 -27 -169 -86l-13 7l35 84q26 62 45.5 84.5t50.5 22.5q37 0 58.5 -18t21.5 -44q0 -30 -29 -50zM527 127q0 -50 5.5 -62.5t39.5 -35.5v-16q-21 -5 -106.5 -13t-126.5 -8l12 95l-7 5q-64 -105 -169 -105q-52 0 -88.5 33.5t-36.5 95.5v196q0 50 -5.5 62.5
t-39.5 35.5v16q134 37 241 45q-8 -80 -8 -125v-148q0 -54 11.5 -78.5t38.5 -24.5t51 18v199q0 50 -5.5 62.5t-39.5 35.5v16q134 37 241 45q-8 -80 -8 -125v-219z" />
    <glyph glyph-name="ucircumflex" unicode="&#xfb;" horiz-adv-x="584" 
d="M299 581q-42 -20 -122 -62l-13 13q19 43 65 101q51 66 74 66q22 0 74 -66t67 -102l-13 -13zM527 127q0 -50 5.5 -62.5t39.5 -35.5v-16q-21 -5 -106.5 -13t-126.5 -8l12 95l-7 5q-64 -105 -169 -105q-52 0 -88.5 33.5t-36.5 95.5v196q0 50 -5.5 62.5t-39.5 35.5v16
q134 37 241 45q-8 -80 -8 -125v-148q0 -54 11.5 -78.5t38.5 -24.5t51 18v199q0 50 -5.5 62.5t-39.5 35.5v16q134 37 241 45q-8 -80 -8 -125v-219z" />
    <glyph glyph-name="udieresis" unicode="&#xfc;" horiz-adv-x="584" 
d="M201 535q-34 0 -58 23.5t-24 55.5q0 34 23.5 57.5t58.5 23.5q32 0 54.5 -23.5t22.5 -57.5q0 -32 -22.5 -55.5t-54.5 -23.5zM396 535q-34 0 -57.5 23.5t-23.5 55.5q0 34 23.5 57.5t57.5 23.5q33 0 55.5 -23.5t22.5 -57.5q0 -32 -22.5 -55.5t-55.5 -23.5zM527 127
q0 -50 5.5 -62.5t39.5 -35.5v-16q-21 -5 -106.5 -13t-126.5 -8l12 95l-7 5q-64 -105 -169 -105q-52 0 -88.5 33.5t-36.5 95.5v196q0 50 -5.5 62.5t-39.5 35.5v16q134 37 241 45q-8 -80 -8 -125v-148q0 -54 11.5 -78.5t38.5 -24.5t51 18v199q0 50 -5.5 62.5t-39.5 35.5v16
q134 37 241 45q-8 -80 -8 -125v-219z" />
    <glyph glyph-name="yacute" unicode="&#xfd;" horiz-adv-x="434" 
d="M353 602q-39 -27 -169 -86l-13 7l35 84q26 62 45.5 84.5t50.5 22.5q37 0 58.5 -18t21.5 -44q0 -30 -29 -50zM311 457h167v-30q-18 -4 -25 -11.5t-19 -38.5l-168 -411q-53 -131 -76 -164q-24 -33 -46 -34q-40 0 -79.5 44t-42.5 81l11 12q133 0 151 7q12 5 21 25l1 1
l-189 440q-13 30 -20 37t-28 12v30h273v-30q-25 -4 -28 -12.5t8 -34.5l86 -214l42 141q17 63 7.5 89t-46.5 31v30z" />
    <glyph glyph-name="thorn" unicode="&#xfe;" horiz-adv-x="576" 
d="M298 -13q-34 0 -59 4v-138q0 -31 8.5 -37t57.5 -12v-30h-290v30q27 6 31.5 12t4.5 37v684q0 50 -5.5 62.5t-39.5 35.5v16q134 37 241 45q-8 -80 -8 -125v-195q67 95 158 95q153 0 153 -213q0 -144 -69.5 -207.5t-182.5 -63.5zM288 363q-26 0 -49 -17v-111
q0 -116 13 -160.5t45 -44.5q31 0 42 40.5t11 140.5q0 82 -14.5 117t-47.5 35z" />
    <glyph glyph-name="ydieresis" unicode="&#xff;" horiz-adv-x="434" 
d="M138 535q-34 0 -58 23.5t-24 55.5q0 34 23.5 57.5t58.5 23.5q32 0 54.5 -23.5t22.5 -57.5q0 -32 -22.5 -55.5t-54.5 -23.5zM333 535q-34 0 -57.5 23.5t-23.5 55.5q0 34 23 57.5t58 23.5q33 0 55.5 -23.5t22.5 -57.5q0 -32 -22.5 -55.5t-55.5 -23.5zM311 457h167v-30
q-18 -4 -25 -11.5t-19 -38.5l-168 -411q-53 -131 -76 -164q-24 -33 -46 -34q-40 0 -79.5 44t-42.5 81l11 12q133 0 151 7q12 5 21 25l1 1l-189 440q-13 30 -20 37t-28 12v30h273v-30q-25 -4 -28 -12.5t8 -34.5l86 -214l42 141q17 63 7.5 89t-46.5 31v30z" />
    <glyph glyph-name="Amacron" unicode="&#x100;" horiz-adv-x="701" 
d="M489 800v-78h-276v78h276zM624 82q11 -33 17 -39t36 -10v-33h-304v33q38 3 46.5 28t-8.5 80l-17 54h-215l-17 -50q-19 -59 -5 -83t69 -29v-33h-211v33q31 4 38.5 10.5t20.5 39.5l172 448q18 47 14 62t-34 22v33h214zM193 237l188 1l-90 287z" />
    <glyph glyph-name="amacron" unicode="&#x101;" horiz-adv-x="547" 
d="M412 649v-77h-275v77h275zM540 69l8 -15q-20 -30 -55.5 -48.5t-76.5 -18.5q-51 0 -80 20.5t-37 71.5q-27 -48 -59.5 -70t-83.5 -22q-67 0 -99.5 34t-32.5 83q0 21 5.5 38t19.5 31t25.5 23.5t37 20.5t41 16.5t50 17t50.5 17.5l43 15v53q0 93 -45 93q-48 0 -37 -129
q-41 -6 -76 -5t-58 17.5t-23 46.5q0 49 63 81t143 32q127 0 174 -37.5t47 -141.5v-157q0 -46 6 -59.5t23 -13.5q3 0 27 6zM260 87q20 0 36 17v17v122q-5 -2 -20 -9.5t-18.5 -9.5t-14 -8.5t-13 -11t-7.5 -12.5t-6 -17.5t-1 -22.5q0 -65 44 -65z" />
    <glyph glyph-name="Abreve" unicode="&#x102;" horiz-adv-x="701" 
d="M343 699q-52 0 -82 25.5t-38 60t-3 78.5l13 2q16 -25 37.5 -35.5t74.5 -10.5q50 0 70.5 10.5t36.5 35.5l13 -2q7 -70 -20 -117t-102 -47zM624 82q11 -33 17 -39t36 -10v-33h-304v33q38 3 46.5 28t-8.5 80l-17 54h-215l-17 -50q-19 -59 -5 -83t69 -29v-33h-211v33
q31 4 38.5 10.5t20.5 39.5l172 448q18 47 14 62t-34 22v33h214zM193 237l188 1l-90 287z" />
    <glyph glyph-name="abreve" unicode="&#x103;" horiz-adv-x="547" 
d="M274 537q-132 0 -126 171l17 3q11 -18 19 -27t31 -18t59 -9q54 0 74.5 12t37.5 42l14 -3q6 -171 -126 -171zM540 69l8 -15q-20 -30 -55.5 -48.5t-76.5 -18.5q-51 0 -80 20.5t-37 71.5q-27 -48 -59.5 -70t-83.5 -22q-67 0 -99.5 34t-32.5 83q0 21 5.5 38t19.5 31
t25.5 23.5t37 20.5t41 16.5t50 17t50.5 17.5l43 15v53q0 93 -45 93q-48 0 -37 -129q-41 -6 -76 -5t-58 17.5t-23 46.5q0 49 63 81t143 32q127 0 174 -37.5t47 -141.5v-157q0 -46 6 -59.5t23 -13.5q3 0 27 6zM260 87q20 0 36 17v17v122q-5 -2 -20 -9.5t-18.5 -9.5t-14 -8.5
t-13 -11t-7.5 -12.5t-6 -17.5t-1 -22.5q0 -65 44 -65z" />
    <glyph glyph-name="Aogonek" unicode="&#x104;" horiz-adv-x="701" 
d="M499 0q-71 0 -93.5 -17t-22.5 -47q0 -26 17 -42t50 -16q32 0 51 13l10 -14q-23 -92 -118 -92q-59 0 -91.5 27t-32.5 78q0 83 104 121q35 13 46 25t9.5 33t-17.5 72l-17 54h-215l-17 -50q-19 -59 -5 -83t69 -29v-33h-211v33q31 4 38.5 10.5t20.5 39.5l172 448q18 47 14 62
t-34 22v33h214l184 -566q11 -33 17 -39t36 -10v-33h-178zM193 237l188 1l-90 287z" />
    <glyph glyph-name="aogonek" unicode="&#x105;" horiz-adv-x="547" 
d="M487 2q-9 -5 -43.5 -18t-48.5 -26t-14 -34q0 -46 59 -46q27 0 53 17l10 -15q-27 -95 -129 -95q-52 0 -79.5 24t-27.5 61q0 43 37 71t83 36v12q-37 5 -59.5 25.5t-28.5 64.5q-27 -48 -59.5 -70t-83.5 -22q-67 0 -99.5 34t-32.5 83q0 21 5.5 38t19.5 31t25.5 23.5t37 20.5
t41 16.5t50 17t50.5 17.5l43 15v53q0 93 -45 93q-48 0 -37 -129q-41 -6 -76 -5t-58 17.5t-23 46.5q0 49 63 81t143 32q127 0 174 -37.5t47 -141.5v-157q0 -46 6 -59.5t23 -13.5q3 0 27 6l8 -15q-21 -30 -61 -52zM260 87q20 0 36 17v17v122q-5 -2 -20 -9.5t-18.5 -9.5
t-14 -8.5t-13 -11t-7.5 -12.5t-6 -17.5t-1 -22.5q0 -65 44 -65z" />
    <glyph glyph-name="Cacute" unicode="&#x106;" horiz-adv-x="625" 
d="M286 699l-13 13l94 94q65 65 104 65q31 0 52.5 -19t21.5 -47q0 -40 -68 -60q-59 -17 -191 -46zM382 611q-135 0 -135 -273q0 -132 42.5 -219t120.5 -87q92 0 161 172h30q0 -114 -23 -196q-82 -21 -201 -21q-70 0 -129 15.5t-111 51t-82 103.5t-30 162q0 161 91.5 249
t251.5 88q133 0 211 -36q7 -79 0 -177h-28q-31 89 -71 128.5t-98 39.5z" />
    <glyph glyph-name="cacute" unicode="&#x107;" horiz-adv-x="457" 
d="M201 516l-13 7l35 84q26 62 45.5 84.5t50.5 22.5q37 0 58.5 -18t21.5 -44q0 -30 -29 -50q-39 -27 -169 -86zM256 -13q-103 0 -166.5 59t-63.5 177q0 123 66.5 186t170.5 63q85 0 130.5 -26.5t45.5 -75.5t-42.5 -71.5t-106.5 -8.5q0 73 -8.5 106t-35.5 33q-53 0 -53 -149
q0 -79 36.5 -119t105.5 -40q28 0 52 9.5t34 19.5l10 10l15 -15q-1 -6 -3.5 -17t-16 -38t-32 -48t-55.5 -38t-83 -17z" />
    <glyph glyph-name="Ccircumflex" unicode="&#x108;" horiz-adv-x="625" 
d="M371 753q-15 -6 -66 -25t-82 -30l-13 13q47 57 106 112q40 38 60 38q18 0 61 -38q49 -43 107 -112l-13 -13q-33 10 -89 30t-71 25zM571 204h30q0 -114 -23 -196q-82 -21 -201 -21q-70 0 -129 15.5t-111 51t-82 103.5t-30 162q0 161 91.5 249t251.5 88q133 0 211 -36
q7 -79 0 -177h-28q-31 89 -71 128.5t-98 39.5q-135 0 -135 -273q0 -132 42.5 -219t120.5 -87q92 0 161 172z" />
    <glyph glyph-name="ccircumflex" unicode="&#x109;" horiz-adv-x="457" 
d="M253 581q-42 -20 -122 -62l-13 13q19 43 65 101q51 66 74 66q22 0 74 -66t67 -102l-13 -13zM431 160l15 -15q-1 -6 -3.5 -17t-16 -38t-32 -48t-55.5 -38t-83 -17q-103 0 -166.5 59t-63.5 177q0 123 66.5 186t170.5 63q85 0 130.5 -26.5t45.5 -75.5t-42.5 -71.5
t-106.5 -8.5q0 73 -8.5 106t-35.5 33q-53 0 -53 -149q0 -79 36.5 -119t105.5 -40q28 0 52 9.5t34 19.5z" />
    <glyph glyph-name="Cdotaccent" unicode="&#x10a;" horiz-adv-x="625" 
d="M374 698q-38 0 -65 27t-27 63q0 39 26.5 65.5t65.5 26.5q37 0 62.5 -26.5t25.5 -65.5q0 -36 -26 -63t-62 -27zM382 611q-135 0 -135 -273q0 -132 42.5 -219t120.5 -87q92 0 161 172h30q0 -114 -23 -196q-82 -21 -201 -21q-70 0 -129 15.5t-111 51t-82 103.5t-30 162
q0 161 91.5 249t251.5 88q133 0 211 -36q7 -79 0 -177h-28q-31 89 -71 128.5t-98 39.5z" />
    <glyph glyph-name="cdotaccent" unicode="&#x10b;" horiz-adv-x="457" 
d="M252 528q-38 0 -64.5 26t-26.5 61q0 39 26.5 65t64.5 26q36 0 61 -26t25 -65q0 -35 -25 -61t-61 -26zM256 -13q-103 0 -166.5 59t-63.5 177q0 123 66.5 186t170.5 63q85 0 130.5 -26.5t45.5 -75.5t-42.5 -71.5t-106.5 -8.5q0 73 -8.5 106t-35.5 33q-53 0 -53 -149
q0 -79 36.5 -119t105.5 -40q28 0 52 9.5t34 19.5l10 10l15 -15q-1 -6 -3.5 -17t-16 -38t-32 -48t-55.5 -38t-83 -17z" />
    <glyph glyph-name="Ccaron" unicode="&#x10c;" horiz-adv-x="625" 
d="M316 738q-49 43 -107 112l13 13q33 -10 89 -30t71 -25q16 6 66.5 25t81.5 30l13 -13q-47 -57 -106 -112q-40 -38 -60 -38q-18 0 -61 38zM571 204h30q0 -114 -23 -196q-82 -21 -201 -21q-70 0 -129 15.5t-111 51t-82 103.5t-30 162q0 161 91.5 249t251.5 88q133 0 211 -36
q7 -79 0 -177h-28q-31 89 -71 128.5t-98 39.5q-135 0 -135 -273q0 -132 42.5 -219t120.5 -87q92 0 161 172z" />
    <glyph glyph-name="ccaron" unicode="&#x10d;" horiz-adv-x="457" 
d="M257 526q-22 0 -74 66t-67 102l13 13l132 -63q42 20 122 62l13 -13q-19 -43 -65 -101q-51 -66 -74 -66zM431 160l15 -15q-1 -6 -3.5 -17t-16 -38t-32 -48t-55.5 -38t-83 -17q-103 0 -166.5 59t-63.5 177q0 123 66.5 186t170.5 63q85 0 130.5 -26.5t45.5 -75.5
t-42.5 -71.5t-106.5 -8.5q0 73 -8.5 106t-35.5 33q-53 0 -53 -149q0 -79 36.5 -119t105.5 -40q28 0 52 9.5t34 19.5z" />
    <glyph glyph-name="Dcaron" unicode="&#x10e;" horiz-adv-x="736" 
d="M312 738q-49 43 -107 112l13 13q33 -10 89 -30t71 -25q15 6 66 25t82 30l13 -13q-47 -57 -106 -112q-40 -38 -60 -38q-18 0 -61 38zM335 648q206 0 295.5 -67t89.5 -221q0 -360 -350 -360h-338v33q44 6 51 12t7 37v484q0 31 -7 37t-51 12v33h303zM374 43q56 0 94.5 70
t38.5 199q0 156 -39.5 224.5t-130.5 68.5h-48v-513q0 -32 9.5 -40.5t52.5 -8.5h23z" />
    <glyph glyph-name="dcaron" unicode="&#x10f;" horiz-adv-x="742" 
d="M664 703q33 0 54.5 -21t21.5 -60q0 -53 -35 -96t-82 -64l-17 16q25 24 35 40.5t10 35.5q0 14 -5 21t-20 18q-28 20 -28 53q0 23 17.5 40t48.5 17zM525 127q0 -50 5.5 -62.5t39.5 -35.5v-16q-21 -5 -106.5 -13t-126.5 -8l12 95l-6 4q-65 -104 -164 -104q-153 0 -153 216
q0 143 69 206t183 63q34 0 59 -4v69q0 50 -5.5 62.5t-39.5 35.5v16q134 37 241 45q-8 -80 -8 -125v-444zM289 94q25 0 48 17v113q0 116 -13 160.5t-45 44.5q-31 0 -42 -40t-11 -139q0 -84 15 -120t48 -36z" />
    <glyph glyph-name="Dcroat" unicode="&#x110;" horiz-adv-x="736" 
d="M335 648q206 0 295.5 -67t89.5 -221q0 -360 -350 -360h-338v33q44 6 51 12t7 37v230h-53v31h53v223q0 31 -7 37t-51 12v33h303zM374 43q56 0 94.5 70t38.5 199q0 156 -39.5 224.5t-130.5 68.5h-48v-262h136v-31h-136v-220q0 -32 9.5 -40.5t52.5 -8.5h23z" />
    <glyph glyph-name="dcroat" unicode="&#x111;" horiz-adv-x="582" 
d="M585 505h-60v-378q0 -50 5.5 -62.5t39.5 -35.5v-16q-21 -5 -106.5 -13t-126.5 -8l12 95l-6 4q-65 -104 -164 -104q-153 0 -153 216q0 143 69 206t183 63q34 0 59 -4v37h-140v31h140v1q0 50 -5.5 62.5t-39.5 35.5v16q134 37 241 45q-8 -80 -8 -125v-35h60v-31zM289 94
q25 0 48 17v113q0 116 -13 160.5t-45 44.5q-31 0 -42 -40t-11 -139q0 -84 15 -120t48 -36z" />
    <glyph glyph-name="Emacron" unicode="&#x112;" horiz-adv-x="628" 
d="M465 800v-78h-276v78h276zM567 217h30q-7 -133 -23 -217h-542v33q44 6 51 12t7 37v484q0 31 -7 37t-51 12v33h536q9 -88 0 -199h-28q-34 90 -75.5 123t-117.5 33h-58v-259h40q52 1 73 17.5t41 71.5h29q5 -118 0 -230h-28q-22 62 -42.5 80t-72.5 18h-40v-211
q0 -32 9.5 -40.5t52.5 -8.5h34q61 0 100.5 38.5t81.5 135.5z" />
    <glyph glyph-name="emacron" unicode="&#x113;" horiz-adv-x="474" 
d="M390 649v-77h-275v77h275zM446 160l15 -15q-1 -6 -3.5 -17t-16.5 -38t-34.5 -48t-60 -38t-90.5 -17q-102 0 -166 59.5t-64 176.5q0 123 66.5 186t170.5 63q105 0 149.5 -46.5t44.5 -139.5l-17 -17h-241q4 -148 137 -148q34 0 61.5 9.5t38.5 19.5zM246 429q-23 0 -34 -28
t-13 -93h89q1 71 -8.5 96t-33.5 25z" />
    <glyph glyph-name="Ebreve" unicode="&#x114;" horiz-adv-x="628" 
d="M319 699q-52 0 -82 25.5t-38 60t-3 78.5l13 2q16 -25 37.5 -35.5t74.5 -10.5q50 0 70.5 10.5t36.5 35.5l13 -2q7 -70 -20 -117t-102 -47zM567 217h30q-7 -133 -23 -217h-542v33q44 6 51 12t7 37v484q0 31 -7 37t-51 12v33h536q9 -88 0 -199h-28q-34 90 -75.5 123
t-117.5 33h-58v-259h40q52 1 73 17.5t41 71.5h29q5 -118 0 -230h-28q-22 62 -42.5 80t-72.5 18h-40v-211q0 -32 9.5 -40.5t52.5 -8.5h34q61 0 100.5 38.5t81.5 135.5z" />
    <glyph glyph-name="ebreve" unicode="&#x115;" horiz-adv-x="474" 
d="M252 537q-132 0 -126 171l17 3q11 -18 19 -27t31 -18t59 -9q54 0 74.5 12t37.5 42l14 -3q6 -171 -126 -171zM446 160l15 -15q-1 -6 -3.5 -17t-16.5 -38t-34.5 -48t-60 -38t-90.5 -17q-102 0 -166 59.5t-64 176.5q0 123 66.5 186t170.5 63q105 0 149.5 -46.5t44.5 -139.5
l-17 -17h-241q4 -148 137 -148q34 0 61.5 9.5t38.5 19.5zM246 429q-23 0 -34 -28t-13 -93h89q1 71 -8.5 96t-33.5 25z" />
    <glyph glyph-name="Edotaccent" unicode="&#x116;" horiz-adv-x="628" 
d="M324 698q-38 0 -65 27t-27 63q0 39 26.5 65.5t65.5 26.5q37 0 62.5 -26.5t25.5 -65.5q0 -36 -26 -63t-62 -27zM567 217h30q-7 -133 -23 -217h-542v33q44 6 51 12t7 37v484q0 31 -7 37t-51 12v33h536q9 -88 0 -199h-28q-34 90 -75.5 123t-117.5 33h-58v-259h40
q52 1 73 17.5t41 71.5h29q5 -118 0 -230h-28q-22 62 -42.5 80t-72.5 18h-40v-211q0 -32 9.5 -40.5t52.5 -8.5h34q61 0 100.5 38.5t81.5 135.5z" />
    <glyph glyph-name="edotaccent" unicode="&#x117;" horiz-adv-x="474" 
d="M253 528q-38 0 -64.5 26t-26.5 61q0 39 26.5 65t64.5 26q36 0 61 -26t25 -65q0 -35 -25 -61t-61 -26zM446 160l15 -15q-1 -6 -3.5 -17t-16.5 -38t-34.5 -48t-60 -38t-90.5 -17q-102 0 -166 59.5t-64 176.5q0 123 66.5 186t170.5 63q105 0 149.5 -46.5t44.5 -139.5
l-17 -17h-241q4 -148 137 -148q34 0 61.5 9.5t38.5 19.5zM246 429q-23 0 -34 -28t-13 -93h89q1 71 -8.5 96t-33.5 25z" />
    <glyph glyph-name="Eogonek" unicode="&#x118;" horiz-adv-x="628" 
d="M574 0q-90 -17 -123 -32t-33 -45q0 -21 15.5 -33t42.5 -12q32 0 60 19l10 -14q-3 -45 -35.5 -71.5t-89.5 -26.5q-56 0 -86.5 25t-30.5 69q0 91 143 108v13h-415v33q44 6 51 12t7 37v484q0 31 -7 37t-51 12v33h536q9 -88 0 -199h-28q-34 90 -75.5 123t-117.5 33h-58v-259
h40q52 1 73 17.5t41 71.5h29q5 -118 0 -230h-28q-22 62 -42.5 80t-72.5 18h-40v-211q0 -32 9.5 -40.5t52.5 -8.5h34q61 0 100.5 38.5t81.5 135.5h30q-7 -133 -23 -217z" />
    <glyph glyph-name="eogonek" unicode="&#x119;" horiz-adv-x="474" 
d="M377 -122q27 0 53 17l10 -15q-27 -95 -129 -95q-52 0 -79.5 25t-27.5 62q0 77 108 108v13q-26 -6 -56 -6q-102 0 -166 59.5t-64 176.5q0 123 66.5 186t170.5 63q105 0 149.5 -46.5t44.5 -139.5l-17 -17h-241q4 -148 137 -148q34 0 61.5 9.5t38.5 19.5l10 10l15 -15
q-5 -52 -62 -113q-11 -12 -36.5 -33.5t-35 -37t-9.5 -37.5q0 -46 59 -46zM246 429q-23 0 -34 -28t-13 -93h89q1 71 -8.5 96t-33.5 25z" />
    <glyph glyph-name="Ecaron" unicode="&#x11a;" horiz-adv-x="628" 
d="M266 738q-49 43 -107 112l13 13q33 -10 89 -30t71 -25q15 6 66 25t82 30l13 -13q-47 -57 -106 -112q-40 -38 -60 -38q-18 0 -61 38zM567 217h30q-7 -133 -23 -217h-542v33q44 6 51 12t7 37v484q0 31 -7 37t-51 12v33h536q9 -88 0 -199h-28q-34 90 -75.5 123t-117.5 33
h-58v-259h40q52 1 73 17.5t41 71.5h29q5 -118 0 -230h-28q-22 62 -42.5 80t-72.5 18h-40v-211q0 -32 9.5 -40.5t52.5 -8.5h34q61 0 100.5 38.5t81.5 135.5z" />
    <glyph glyph-name="ecaron" unicode="&#x11b;" horiz-adv-x="474" 
d="M258 526q-22 0 -74 66t-67 102l13 13l132 -63q42 20 122 62l13 -13q-19 -43 -65 -101q-51 -66 -74 -66zM446 160l15 -15q-1 -6 -3.5 -17t-16.5 -38t-34.5 -48t-60 -38t-90.5 -17q-102 0 -166 59.5t-64 176.5q0 123 66.5 186t170.5 63q105 0 149.5 -46.5t44.5 -139.5
l-17 -17h-241q4 -148 137 -148q34 0 61.5 9.5t38.5 19.5zM246 429q-23 0 -34 -28t-13 -93h89q1 71 -8.5 96t-33.5 25z" />
    <glyph glyph-name="Gcircumflex" unicode="&#x11c;" horiz-adv-x="667" 
d="M378 753q-16 -6 -66.5 -25t-81.5 -30l-13 13q47 57 106 112q40 38 60 38q18 0 61 -38q49 -43 107 -112l-13 -13q-33 10 -89 30t-71 25zM374 279h290v-33q-26 -6 -30.5 -12t-4.5 -37v-152q-25 -20 -90 -39t-172 -19q-52 0 -98.5 9t-92 32.5t-78.5 60t-53 95.5t-20 135
q0 162 94 249.5t264 87.5q133 0 211 -36q7 -79 0 -177h-28q-31 89 -71 128.5t-98 39.5q-150 0 -150 -273q0 -132 42.5 -219t120.5 -87h20v165q0 31 -7 37t-49 12v33z" />
    <glyph glyph-name="gcircumflex" unicode="&#x11d;" horiz-adv-x="514" 
d="M268 581q-42 -20 -122 -62l-13 13q19 43 65 101q51 66 74 66q22 0 74 -66t67 -102l-13 -13zM508 402l-71 2l-1 -9q43 -30 43 -89q0 -89 -63.5 -129.5t-159.5 -40.5q-62 0 -110 14q-28 -7 -28 -34q0 -37 54 -37h157q198 0 198 -144q0 -86 -69 -130t-199 -44
q-240 0 -240 90q0 36 30.5 54.5t84.5 16.5v13q-51 0 -86.5 28.5t-35.5 82.5q0 52 28.5 81t73.5 36q-78 38 -78 132q0 50 19 85.5t52 55t70.5 28t82.5 8.5h1h1h1h1h1h1h11h1q27 -1 70 -6.5t74 -5.5q51 0 112 12l7 -3q0 -18 -8 -37q-12 -28 -25 -30zM260 177q25 0 34 24.5
t9 94.5q0 72 -11 103.5t-36 31.5q-26 0 -35 -25.5t-9 -95.5q0 -71 11.5 -102t36.5 -31zM399 -124q0 26 -28 37.5t-100 11.5h-105q-12 -17 -12 -39q0 -77 126 -76q119 1 119 66z" />
    <glyph glyph-name="Gbreve" unicode="&#x11e;" horiz-adv-x="667" 
d="M376 699q-52 0 -82 25.5t-38 60t-3 78.5l13 2q16 -25 37.5 -35.5t74.5 -10.5q50 0 70.5 10.5t36.5 35.5l13 -2q7 -70 -20 -117t-102 -47zM374 279h290v-33q-26 -6 -30.5 -12t-4.5 -37v-152q-25 -20 -90 -39t-172 -19q-52 0 -98.5 9t-92 32.5t-78.5 60t-53 95.5t-20 135
q0 162 94 249.5t264 87.5q133 0 211 -36q7 -79 0 -177h-28q-31 89 -71 128.5t-98 39.5q-150 0 -150 -273q0 -132 42.5 -219t120.5 -87h20v165q0 31 -7 37t-49 12v33z" />
    <glyph glyph-name="gbreve" unicode="&#x11f;" horiz-adv-x="514" 
d="M266 537q-132 0 -126 171l17 3q11 -18 19 -27t31 -18t59 -9q54 0 74.5 12t37.5 42l14 -3q6 -171 -126 -171zM508 402l-71 2l-1 -9q43 -30 43 -89q0 -89 -63.5 -129.5t-159.5 -40.5q-62 0 -110 14q-28 -7 -28 -34q0 -37 54 -37h157q198 0 198 -144q0 -86 -69 -130
t-199 -44q-240 0 -240 90q0 36 30.5 54.5t84.5 16.5v13q-51 0 -86.5 28.5t-35.5 82.5q0 52 28.5 81t73.5 36q-78 38 -78 132q0 50 19 85.5t52 55t70.5 28t82.5 8.5h1h1h1h1h1h1h11h1q27 -1 70 -6.5t74 -5.5q51 0 112 12l7 -3q0 -18 -8 -37q-12 -28 -25 -30zM260 177
q25 0 34 24.5t9 94.5q0 72 -11 103.5t-36 31.5q-26 0 -35 -25.5t-9 -95.5q0 -71 11.5 -102t36.5 -31zM399 -124q0 26 -28 37.5t-100 11.5h-105q-12 -17 -12 -39q0 -77 126 -76q119 1 119 66z" />
    <glyph glyph-name="Gdotaccent" unicode="&#x120;" horiz-adv-x="667" 
d="M381 698q-39 0 -65.5 27t-26.5 63q0 39 26.5 65.5t65.5 26.5q37 0 62.5 -26.5t25.5 -65.5q0 -36 -26 -63t-62 -27zM374 279h290v-33q-26 -6 -30.5 -12t-4.5 -37v-152q-25 -20 -90 -39t-172 -19q-52 0 -98.5 9t-92 32.5t-78.5 60t-53 95.5t-20 135q0 162 94 249.5
t264 87.5q133 0 211 -36q7 -79 0 -177h-28q-31 89 -71 128.5t-98 39.5q-150 0 -150 -273q0 -132 42.5 -219t120.5 -87h20v165q0 31 -7 37t-49 12v33z" />
    <glyph glyph-name="gdotaccent" unicode="&#x121;" horiz-adv-x="514" 
d="M267 528q-38 0 -64.5 26t-26.5 61q0 39 26.5 65t64.5 26q36 0 61 -26t25 -65q0 -35 -25 -61t-61 -26zM508 402l-71 2l-1 -9q43 -30 43 -89q0 -89 -63.5 -129.5t-159.5 -40.5q-62 0 -110 14q-28 -7 -28 -34q0 -37 54 -37h157q198 0 198 -144q0 -86 -69 -130t-199 -44
q-240 0 -240 90q0 36 30.5 54.5t84.5 16.5v13q-51 0 -86.5 28.5t-35.5 82.5q0 52 28.5 81t73.5 36q-78 38 -78 132q0 50 19 85.5t52 55t70.5 28t82.5 8.5h1h1h1h1h1h1h11h1q27 -1 70 -6.5t74 -5.5q51 0 112 12l7 -3q0 -18 -8 -37q-12 -28 -25 -30zM260 177q25 0 34 24.5
t9 94.5q0 72 -11 103.5t-36 31.5q-26 0 -35 -25.5t-9 -95.5q0 -71 11.5 -102t36.5 -31zM399 -124q0 26 -28 37.5t-100 11.5h-105q-12 -17 -12 -39q0 -77 126 -76q119 1 119 66z" />
    <glyph glyph-name="uni0122" unicode="&#x122;" horiz-adv-x="667" 
d="M374 279h290v-33q-26 -6 -30.5 -12t-4.5 -37v-152q-25 -20 -90 -39t-172 -19q-52 0 -98.5 9t-92 32.5t-78.5 60t-53 95.5t-20 135q0 162 94 249.5t264 87.5q133 0 211 -36q7 -79 0 -177h-28q-31 89 -71 128.5t-98 39.5q-150 0 -150 -273q0 -132 42.5 -219t120.5 -87h20
v165q0 31 -7 37t-49 12v33zM375 -60q39 0 61 -23t22 -64q0 -49 -32.5 -83t-97.5 -34q-16 0 -24 1l-3 28q37 -2 61.5 10.5t24.5 34.5q0 17 -24 17q-27 0 -43 13.5t-16 34.5q0 27 18 46t53 19z" />
    <glyph glyph-name="uni0123" unicode="&#x123;" horiz-adv-x="514" 
d="M280 532q-39 0 -61 23t-22 64q0 49 32.5 83t97.5 34q16 0 24 -1l3 -28q-37 2 -61.5 -10.5t-24.5 -34.5q0 -17 24 -17q27 0 43 -13.5t16 -34.5q0 -27 -18 -46t-53 -19zM508 402l-71 2l-1 -9q43 -30 43 -89q0 -89 -63.5 -129.5t-159.5 -40.5q-62 0 -110 14q-28 -7 -28 -34
q0 -37 54 -37h157q198 0 198 -144q0 -86 -69 -130t-199 -44q-240 0 -240 90q0 36 30.5 54.5t84.5 16.5v13q-51 0 -86.5 28.5t-35.5 82.5q0 52 28.5 81t73.5 36q-78 38 -78 132q0 50 19 85.5t52 55t70.5 28t82.5 8.5h1h1h1h1h1h1h11h1q27 -1 70 -6.5t74 -5.5q51 0 112 12
l7 -3q0 -18 -8 -37q-12 -28 -25 -30zM260 177q25 0 34 24.5t9 94.5q0 72 -11 103.5t-36 31.5q-26 0 -35 -25.5t-9 -95.5q0 -71 11.5 -102t36.5 -31zM399 -124q0 26 -28 37.5t-100 11.5h-105q-12 -17 -12 -39q0 -77 126 -76q119 1 119 66z" />
    <glyph glyph-name="Hcircumflex" unicode="&#x124;" horiz-adv-x="785" 
d="M391 753q-16 -6 -66.5 -25t-81.5 -30l-13 13q47 57 106 112q40 38 60 38q18 0 61 -38q49 -43 107 -112l-13 -13q-33 10 -89 30t-71 25zM753 615q-43 -6 -50.5 -12t-7.5 -37v-484q0 -31 7.5 -37t50.5 -12v-33h-315v33q44 6 51 12t7 37v213h-207v-213q0 -31 7.5 -37
t50.5 -12v-33h-315v33q44 6 51 12t7 37v484q0 31 -7 37t-51 12v33h315v-33q-43 -6 -50.5 -12t-7.5 -37v-229l207 1v228q0 31 -7 37t-51 12v33h315v-33z" />
    <glyph glyph-name="hcircumflex" unicode="&#x125;" horiz-adv-x="595" 
d="M306 720q-33 10 -89 30t-71 25q-16 -6 -66.5 -25t-81.5 -30l-13 13q47 57 106 112q40 38 60 38q18 0 61 -38q49 -43 107 -112zM542 79q0 -31 4.5 -37t31.5 -12v-30h-260v30q27 6 31.5 12t4.5 37v182q0 55 -12 79t-42 24q-27 0 -51 -18v-267q0 -31 4.5 -37t31.5 -12v-30
h-260v30q27 6 31.5 12t4.5 37v458q0 50 -5.5 62.5t-39.5 35.5v16q134 37 241 45q-8 -80 -8 -125v-196q63 97 164 97q55 0 92 -33.5t37 -95.5v-264z" />
    <glyph glyph-name="Hbar" unicode="&#x126;" horiz-adv-x="785" 
d="M775 470h-80v-388q0 -31 7.5 -37t50.5 -12v-33h-315v33q44 6 51 12t7 37v213h-207v-213q0 -31 7.5 -37t50.5 -12v-33h-315v33q44 6 51 12t7 37v388h-86v31h86v65q0 31 -7 37t-51 12v33h315v-33q-43 -6 -50.5 -12t-7.5 -37v-65h207v65q0 31 -7 37t-51 12v33h315v-33
q-43 -6 -50.5 -12t-7.5 -37v-65h80v-31zM496 338v132h-207v-133z" />
    <glyph glyph-name="hbar" unicode="&#x127;" horiz-adv-x="595" 
d="M542 79q0 -31 4.5 -37t31.5 -12v-30h-260v30q27 6 31.5 12t4.5 37v182q0 55 -12 79t-42 24q-27 0 -51 -18v-267q0 -31 4.5 -37t31.5 -12v-30h-260v30q27 6 31.5 12t4.5 37v426h-57v31h57v1q0 50 -5.5 62.5t-39.5 35.5v16q134 37 241 45q-8 -80 -8 -125v-35h143v-31h-143
v-130q63 97 164 97q55 0 92 -33.5t37 -95.5v-264z" />
    <glyph glyph-name="Itilde" unicode="&#x128;" horiz-adv-x="379" 
d="M120 852q26 0 78 -22.5t75 -22.5q25 0 41 12t32 37l13 -5q5 -53 -20.5 -101.5t-80.5 -48.5q-35 0 -85.5 23.5t-65.5 23.5q-40 0 -72 -47l-13 3q-2 55 22 101.5t76 46.5zM32 0v33q44 6 51 12t7 37v484q0 31 -7 37t-51 12v33h315v-33q-43 -6 -50.5 -12t-7.5 -37v-484
q0 -31 7.5 -37t50.5 -12v-33h-315z" />
    <glyph glyph-name="itilde" unicode="&#x129;" horiz-adv-x="298" 
d="M91 694q27 0 79 -22.5t75 -22.5q42 0 73 48l13 -4q5 -53 -21 -101.5t-81 -48.5q-35 0 -85 23.5t-66 23.5q-40 0 -71 -47l-13 3q-2 33 6 65t32 57.5t59 25.5zM26 0v30q27 6 31.5 12t4.5 37v233q0 50 -5.5 62.5t-39.5 35.5v16q134 37 241 45q-8 -80 -8 -125v-267
q0 -31 4.5 -37t31.5 -12v-30h-260z" />
    <glyph glyph-name="Imacron" unicode="&#x12a;" horiz-adv-x="379" 
d="M55 722v78h276v-78h-276zM32 0v33q44 6 51 12t7 37v484q0 31 -7 37t-51 12v33h315v-33q-43 -6 -50.5 -12t-7.5 -37v-484q0 -31 7.5 -37t50.5 -12v-33h-315z" />
    <glyph glyph-name="imacron" unicode="&#x12b;" horiz-adv-x="298" 
d="M25 572v77h275v-77h-275zM26 0v30q27 6 31.5 12t4.5 37v233q0 50 -5.5 62.5t-39.5 35.5v16q134 37 241 45q-8 -80 -8 -125v-267q0 -31 4.5 -37t31.5 -12v-30h-260z" />
    <glyph glyph-name="Ibreve" unicode="&#x12c;" horiz-adv-x="379" 
d="M75 865q16 -25 37.5 -35.5t74.5 -10.5q50 0 70.5 10.5t36.5 35.5l13 -2q7 -70 -20 -117t-102 -47q-52 0 -82 25.5t-38 60t-3 78.5zM32 0v33q44 6 51 12t7 37v484q0 31 -7 37t-51 12v33h315v-33q-43 -6 -50.5 -12t-7.5 -37v-484q0 -31 7.5 -37t50.5 -12v-33h-315z" />
    <glyph glyph-name="ibreve" unicode="&#x12d;" horiz-adv-x="298" 
d="M53 711q11 -18 19 -27t31 -18t59 -9q54 0 74.5 12t37.5 42l14 -3q6 -171 -126 -171t-126 171zM26 0v30q27 6 31.5 12t4.5 37v233q0 50 -5.5 62.5t-39.5 35.5v16q134 37 241 45q-8 -80 -8 -125v-267q0 -31 4.5 -37t31.5 -12v-30h-260z" />
    <glyph glyph-name="Iogonek" unicode="&#x12e;" horiz-adv-x="379" 
d="M347 615q-43 -6 -50.5 -12t-7.5 -37v-484q0 -31 7.5 -37t50.5 -12v-33q-90 -17 -123 -32t-33 -45q0 -21 15.5 -33t42.5 -12q31 0 60 19l10 -14q-3 -45 -35.5 -71.5t-89.5 -26.5q-56 0 -86.5 25t-30.5 69q0 91 143 108v13h-188v33q44 6 51 12t7 37v484q0 31 -7 37t-51 12
v33h315v-33z" />
    <glyph glyph-name="iogonek" unicode="&#x12f;" horiz-adv-x="298" 
d="M163 517q-38 0 -64.5 26t-26.5 61q0 39 26.5 65t64.5 26q36 0 61 -26t25 -65q0 -35 -25 -61t-61 -26zM286 0q-10 -3 -27.5 -7.5t-27 -7.5t-23 -7.5t-21.5 -9t-15.5 -11t-11 -15t-3.5 -18.5q0 -46 59 -46q27 0 53 17l10 -15q-27 -95 -129 -95q-52 0 -79.5 25t-27.5 62
q0 48 36 78t96 37v13h-149v30q27 6 31.5 12t4.5 37v233q0 50 -5.5 62.5t-39.5 35.5v16q134 37 241 45q-8 -80 -8 -125v-267q0 -31 4.5 -37t31.5 -12v-30z" />
    <glyph glyph-name="Idotaccent" unicode="&#x130;" horiz-adv-x="379" 
d="M190 698q-38 0 -65 27t-27 63q0 39 26.5 65.5t65.5 26.5q37 0 62.5 -26.5t25.5 -65.5q0 -36 -26 -63t-62 -27zM32 0v33q44 6 51 12t7 37v484q0 31 -7 37t-51 12v33h315v-33q-43 -6 -50.5 -12t-7.5 -37v-484q0 -31 7.5 -37t50.5 -12v-33h-315z" />
    <glyph glyph-name="dotlessi" unicode="&#x131;" horiz-adv-x="298" 
d="M26 0v30q27 6 31.5 12t4.5 37v233q0 50 -5.5 62.5t-39.5 35.5v16q134 37 241 45q-8 -80 -8 -125v-267q0 -31 4.5 -37t31.5 -12v-30h-260z" />
    <glyph glyph-name="Jcircumflex" unicode="&#x134;" horiz-adv-x="533" 
d="M357 753q-15 -6 -66 -25t-82 -30l-13 13q47 57 106 112q40 38 60 38q18 0 61 -38q49 -43 107 -112l-13 -13q-33 10 -89 30t-71 25zM209 615v33h315v-33q-44 -6 -51 -12t-7 -37v-342q0 -76 -17.5 -125t-54 -72.5t-76 -31.5t-99.5 -8q-105 0 -158.5 34t-53.5 95q0 54 44 77
t112 4q-6 -83 4 -125t46 -42q27 0 40.5 24.5t13.5 103.5v408q0 31 -7 37t-51 12z" />
    <glyph glyph-name="jcircumflex" unicode="&#x135;" horiz-adv-x="287" 
d="M228 633q52 -66 67 -102l-13 -13l-132 63q-42 -20 -122 -62l-13 13q19 43 65 101q51 66 74 66q22 0 74 -66zM11 410v16q134 37 241 45q-8 -80 -8 -130v-340q0 -110 -72 -173t-166 -71l-12 15q45 37 53.5 94t8.5 254v192q0 50 -5.5 62.5t-39.5 35.5z" />
    <glyph glyph-name="uni0136" unicode="&#x136;" horiz-adv-x="737" 
d="M709 37l14 -4v-35q-67 -3 -159 -3q-50 0 -83.5 25.5t-60.5 83.5l-92 195h-39v-217q0 -31 7.5 -37t50.5 -12v-33h-315v33q44 6 51 12t7 37v484q0 31 -7 37t-51 12v33h315v-33q-43 -6 -50.5 -12t-7.5 -37v-226l53 1l144 166q52 62 48.5 82.5t-58.5 25.5v33h231v-33
q-35 -4 -58 -16.5t-54 -46.5l-113 -118l161 -299q36 -66 45.5 -80.5t20.5 -17.5zM397 -60q39 0 61 -23t22 -64q0 -49 -32.5 -83t-97.5 -34q-16 0 -24 1l-3 28q37 -2 61.5 10.5t24.5 34.5q0 17 -24 17q-27 0 -43 13.5t-16 34.5q0 27 18 46t53 19z" />
    <glyph glyph-name="uni0137" unicode="&#x137;" horiz-adv-x="606" 
d="M598 32l8 -2v-30q-17 -5 -141 -5q-50 0 -78.5 22t-51.5 76l-54 126h-32v-140q0 -31 4.5 -37t31.5 -12v-30h-260v30q27 6 31.5 12t4.5 37v458q0 50 -5.5 62.5t-39.5 35.5v16q134 37 241 45q-8 -80 -8 -125v-313h49l87 89q31 32 26 53t-45 27v30h199v-30q-11 -2 -16.5 -4
t-20 -12.5t-41.5 -33.5l-65 -55l74 -139q56 -103 70.5 -125t31.5 -26zM322 -60q39 0 61 -23t22 -64q0 -49 -32.5 -83t-97.5 -34q-16 0 -24 1l-3 28q37 -2 61.5 10.5t24.5 34.5q0 17 -24 17q-27 0 -43 13.5t-16 34.5q0 27 18 46t53 19z" />
    <glyph glyph-name="Lacute" unicode="&#x139;" horiz-adv-x="597" 
d="M85 699l-13 13l94 94q65 65 104 65q31 0 52.5 -19t21.5 -47q0 -40 -68 -60q-59 -17 -191 -46zM32 0v33q44 6 51 12t7 37v484q0 31 -7 37t-51 12v33h315v-33q-43 -6 -50.5 -12t-7.5 -37v-474q0 -32 9.5 -40.5t52.5 -8.5h10q58 0 98 39t92 151h30q-8 -152 -26 -233h-523z
" />
    <glyph glyph-name="lacute" unicode="&#x13a;" horiz-adv-x="297" 
d="M46 721l-13 13l94 94q65 65 104 65q31 0 52.5 -19t21.5 -47q0 -40 -68 -60q-59 -17 -191 -46zM25 0v30q27 6 31.5 12t4.5 37v458q0 50 -5.5 62.5t-39.5 35.5v16q134 37 241 45q-8 -80 -8 -125v-492q0 -31 4.5 -37t31.5 -12v-30h-260z" />
    <glyph glyph-name="uni013B" unicode="&#x13b;" horiz-adv-x="597" 
d="M32 0v33q44 6 51 12t7 37v484q0 31 -7 37t-51 12v33h315v-33q-43 -6 -50.5 -12t-7.5 -37v-474q0 -32 9.5 -40.5t52.5 -8.5h10q58 0 98 39t92 151h30q-8 -152 -26 -233h-523zM250 -235q37 -2 61.5 10.5t24.5 34.5q0 17 -24 17q-27 0 -43 13.5t-16 34.5q0 27 18 46t53 19
q39 0 61 -23t22 -64q0 -49 -32.5 -83t-97.5 -34q-16 0 -24 1z" />
    <glyph glyph-name="uni013C" unicode="&#x13c;" horiz-adv-x="297" 
d="M25 0v30q27 6 31.5 12t4.5 37v458q0 50 -5.5 62.5t-39.5 35.5v16q134 37 241 45q-8 -80 -8 -125v-492q0 -31 4.5 -37t31.5 -12v-30h-260zM65 -235q37 -2 61.5 10.5t24.5 34.5q0 17 -24 17q-27 0 -43 13.5t-16 34.5q0 27 18 46t53 19q39 0 61 -23t22 -64q0 -49 -32.5 -83
t-97.5 -34q-16 0 -24 1z" />
    <glyph glyph-name="Lcaron" unicode="&#x13d;" horiz-adv-x="597" 
d="M433 478q25 24 35 40.5t10 35.5q0 14 -5 21t-20 18q-28 20 -28 53q0 23 17.5 40t48.5 17q33 0 54.5 -21t21.5 -60q0 -53 -35 -96t-82 -64zM32 0v33q44 6 51 12t7 37v484q0 31 -7 37t-51 12v33h315v-33q-43 -6 -50.5 -12t-7.5 -37v-474q0 -32 9.5 -40.5t52.5 -8.5h10
q58 0 98 39t92 151h30q-8 -152 -26 -233h-523z" />
    <glyph glyph-name="lcaron" unicode="&#x13e;" horiz-adv-x="466" 
d="M330 478q25 24 35 40.5t10 35.5q0 14 -5 21t-20 18q-28 20 -28 53q0 23 17.5 40t48.5 17q33 0 54.5 -21t21.5 -60q0 -53 -35 -96t-82 -64zM25 0v30q27 6 31.5 12t4.5 37v458q0 50 -5.5 62.5t-39.5 35.5v16q134 37 241 45q-8 -80 -8 -125v-492q0 -31 4.5 -37t31.5 -12v-30
h-260z" />
    <glyph glyph-name="Ldot" unicode="&#x13f;" horiz-adv-x="597" 
d="M32 0v33q44 6 51 12t7 37v484q0 31 -7 37t-51 12v33h315v-33q-43 -6 -50.5 -12t-7.5 -37v-474q0 -32 9.5 -40.5t52.5 -8.5h10q58 0 98 39t92 151h30q-8 -152 -26 -233h-523zM450 252q-33 0 -57 23.5t-24 55.5q0 34 23.5 57.5t57.5 23.5q32 0 54.5 -23.5t22.5 -57.5
q0 -32 -22.5 -55.5t-54.5 -23.5z" />
    <glyph glyph-name="ldot" unicode="&#x140;" horiz-adv-x="496" 
d="M25 0v30q27 6 31.5 12t4.5 37v458q0 50 -5.5 62.5t-39.5 35.5v16q134 37 241 45q-8 -80 -8 -125v-492q0 -31 4.5 -37t31.5 -12v-30h-260zM403 252q-33 0 -57 23.5t-24 55.5q0 34 23.5 57.5t57.5 23.5q32 0 54.5 -23.5t22.5 -57.5q0 -32 -22.5 -55.5t-54.5 -23.5z" />
    <glyph glyph-name="Lslash" unicode="&#x141;" horiz-adv-x="597" 
d="M551 233h30q-8 -152 -26 -233h-523v33q44 6 51 12t7 37v103l-49 -39l-22 27l71 57v336q0 31 -7 37t-51 12v33h315v-33q-43 -6 -50.5 -12t-7.5 -37v-178l108 86l22 -28l-130 -103v-251q0 -32 9.5 -40.5t52.5 -8.5h10q58 0 98 39t92 151z" />
    <glyph glyph-name="lslash" unicode="&#x142;" horiz-adv-x="307" 
d="M254 79q0 -31 4.5 -37t31.5 -12v-30h-260v30q27 6 31.5 12t4.5 37v157l-55 -44l-22 26l77 62v257q0 50 -5.5 62.5t-39.5 35.5v16q134 37 241 45q-8 -80 -8 -125v-140l59 47l22 -28l-81 -64v-307z" />
    <glyph glyph-name="Nacute" unicode="&#x143;" horiz-adv-x="662" 
d="M443 745q-59 -17 -191 -46l-13 13l94 94q65 65 104 65q31 0 52.5 -19t21.5 -47q0 -40 -68 -60zM449 648h206v-33q-23 -2 -31 -3.5t-16 -12t-10 -26.5t-4 -52q-4 -60 -6 -306l-2 -224h-30l-422 410v-34q0 -158 6 -229q5 -55 22 -77.5t64 -27.5v-33h-206v33q23 2 31 3.5
t16 12t10 26.5t4 52q6 98 8 288v82q1 68 -8 87t-44 31v33h138l367 -361v51q0 88 -7 172q-5 55 -22 77.5t-64 27.5v33z" />
    <glyph glyph-name="nacute" unicode="&#x144;" horiz-adv-x="596" 
d="M430 602q-39 -27 -169 -86l-13 7l35 84q26 62 45.5 84.5t50.5 22.5q37 0 58.5 -18t21.5 -44q0 -30 -29 -50zM543 79q0 -31 4.5 -37t31.5 -12v-30h-260v30q27 6 31.5 12t4.5 37v182q0 55 -12 79t-42 24q-27 0 -51 -18v-267q0 -31 4.5 -37t31.5 -12v-30h-260v30
q27 6 31.5 12t4.5 37v233q0 50 -5.5 62.5t-39.5 35.5v16q132 36 233 45l-11 -99l7 -4q63 104 168 104q55 0 92 -33.5t37 -95.5v-264z" />
    <glyph glyph-name="uni0145" unicode="&#x145;" horiz-adv-x="662" 
d="M449 648h206v-33q-23 -2 -31 -3.5t-16 -12t-10 -26.5t-4 -52q-4 -60 -6 -306l-2 -224h-30l-422 410v-34q0 -158 6 -229q5 -55 22 -77.5t64 -27.5v-33h-206v33q23 2 31 3.5t16 12t10 26.5t4 52q6 98 8 288v82q1 68 -8 87t-44 31v33h138l367 -361v51q0 88 -7 172
q-5 55 -22 77.5t-64 27.5v33zM352 -60q39 0 61 -23t22 -64q0 -49 -32.5 -83t-97.5 -34q-16 0 -24 1l-3 28q37 -2 61.5 10.5t24.5 34.5q0 17 -24 17q-27 0 -43 13.5t-16 34.5q0 27 18 46t53 19z" />
    <glyph glyph-name="uni0146" unicode="&#x146;" horiz-adv-x="596" 
d="M543 79q0 -31 4.5 -37t31.5 -12v-30h-260v30q27 6 31.5 12t4.5 37v182q0 55 -12 79t-42 24q-27 0 -51 -18v-267q0 -31 4.5 -37t31.5 -12v-30h-260v30q27 6 31.5 12t4.5 37v233q0 50 -5.5 62.5t-39.5 35.5v16q132 36 233 45l-11 -99l7 -4q63 104 168 104q55 0 92 -33.5
t37 -95.5v-264zM311 -60q39 0 61 -23t22 -64q0 -49 -32.5 -83t-97.5 -34q-16 0 -24 1l-3 28q37 -2 61.5 10.5t24.5 34.5q0 17 -24 17q-27 0 -43 13.5t-16 34.5q0 27 18 46t53 19z" />
    <glyph glyph-name="Ncaron" unicode="&#x147;" horiz-adv-x="662" 
d="M282 738q-49 43 -107 112l13 13q33 -10 89 -30t71 -25q16 6 66.5 25t81.5 30l13 -13q-47 -57 -106 -112q-40 -38 -60 -38q-18 0 -61 38zM449 648h206v-33q-23 -2 -31 -3.5t-16 -12t-10 -26.5t-4 -52q-4 -60 -6 -306l-2 -224h-30l-422 410v-34q0 -158 6 -229
q5 -55 22 -77.5t64 -27.5v-33h-206v33q23 2 31 3.5t16 12t10 26.5t4 52q6 98 8 288v82q1 68 -8 87t-44 31v33h138l367 -361v51q0 88 -7 172q-5 55 -22 77.5t-64 27.5v33z" />
    <glyph glyph-name="ncaron" unicode="&#x148;" horiz-adv-x="596" 
d="M317 526q-22 0 -74 66t-67 102l13 13l132 -63q42 20 122 62l13 -13q-19 -43 -65 -101q-51 -66 -74 -66zM543 79q0 -31 4.5 -37t31.5 -12v-30h-260v30q27 6 31.5 12t4.5 37v182q0 55 -12 79t-42 24q-27 0 -51 -18v-267q0 -31 4.5 -37t31.5 -12v-30h-260v30q27 6 31.5 12
t4.5 37v233q0 50 -5.5 62.5t-39.5 35.5v16q132 36 233 45l-11 -99l7 -4q63 104 168 104q55 0 92 -33.5t37 -95.5v-264z" />
    <glyph glyph-name="Eng" unicode="&#x14a;" horiz-adv-x="662" 
d="M449 648h206v-33q-23 -2 -31 -3.5t-16 -12t-10 -26.5t-4 -52q-4 -60 -6 -306v-202q0 -72 -23 -128t-61 -56q-42 0 -59 33t-2 73q19 -7 44 -7q29 0 46 15t15 46l-1 11l-413 401v-34q0 -158 6 -229q5 -55 22 -77.5t64 -27.5v-33h-206v33q23 2 31 3.5t16 12t10 26.5t4 52
q8 122 8 288v82q0 68 -9 87.5t-43 30.5v33h138l367 -361v51q0 88 -7 172q-5 55 -22 77.5t-64 27.5v33z" />
    <glyph glyph-name="eng" unicode="&#x14b;" horiz-adv-x="583" 
d="M414 472q54 0 89 -32.5t35 -94.5v-263q0 -47 -22.5 -92.5t-54 -76.5t-65 -55.5t-56.5 -36.5t-28 -12q-12 0 -34.5 18t-36.5 42l11 14q38 -22 58 -22q25 0 32.5 35.5t7.5 153.5v213q0 55 -10.5 78t-38.5 23q-27 0 -51 -18v-267q0 -31 4.5 -37t31.5 -12v-30h-260v30
q27 6 31.5 12t4.5 37v233q0 50 -5.5 62.5t-39.5 35.5v16q132 36 233 45l-11 -99l7 -4q63 104 168 104z" />
    <glyph glyph-name="Omacron" unicode="&#x14c;" horiz-adv-x="725" 
d="M237 722v78h276v-78h-276zM363 656q337 0 337 -322q0 -169 -87 -258t-250 -89q-166 0 -252 82t-86 245q0 166 87.5 254t250.5 88zM356 611q-35 0 -58 -20.5t-33.5 -62t-14 -84.5t-3.5 -106q0 -306 125 -306q24 0 41.5 10.5t29 31t19 44.5t11 59t4.5 64.5t1 70.5
q0 69 -5.5 120t-19 93t-38 64t-59.5 22z" />
    <glyph glyph-name="omacron" unicode="&#x14d;" horiz-adv-x="561" 
d="M144 572v77h275v-77h-275zM278 -13q-122 0 -187 53t-65 183q0 126 68.5 187t191.5 61q125 0 187 -50.5t62 -183.5q0 -123 -65.5 -186.5t-191.5 -63.5zM283 30q22 0 32.5 14t15 53.5t4.5 122.5q0 113 -12.5 160.5t-43.5 47.5q-22 0 -32.5 -14.5t-15.5 -55t-5 -124.5
q0 -108 12.5 -156t44.5 -48z" />
    <glyph glyph-name="Obreve" unicode="&#x14e;" horiz-adv-x="725" 
d="M257 865q16 -25 37.5 -35.5t74.5 -10.5q50 0 70.5 10.5t36.5 35.5l13 -2q7 -70 -20 -117t-102 -47q-52 0 -82 25.5t-38 60t-3 78.5zM363 656q337 0 337 -322q0 -169 -87 -258t-250 -89q-166 0 -252 82t-86 245q0 166 87.5 254t250.5 88zM356 611q-35 0 -58 -20.5
t-33.5 -62t-14 -84.5t-3.5 -106q0 -306 125 -306q24 0 41.5 10.5t29 31t19 44.5t11 59t4.5 64.5t1 70.5q0 69 -5.5 120t-19 93t-38 64t-59.5 22z" />
    <glyph glyph-name="obreve" unicode="&#x14f;" horiz-adv-x="561" 
d="M172 711q11 -18 19 -27t31 -18t59 -9q54 0 74.5 12t37.5 42l14 -3q6 -171 -126 -171t-126 171zM278 -13q-122 0 -187 53t-65 183q0 126 68.5 187t191.5 61q125 0 187 -50.5t62 -183.5q0 -123 -65.5 -186.5t-191.5 -63.5zM283 30q22 0 32.5 14t15 53.5t4.5 122.5
q0 113 -12.5 160.5t-43.5 47.5q-22 0 -32.5 -14.5t-15.5 -55t-5 -124.5q0 -108 12.5 -156t44.5 -48z" />
    <glyph glyph-name="Ohungarumlaut" unicode="&#x150;" horiz-adv-x="725" 
d="M222 698l-13 13l46 71q28 45 50 67t48 22q29 0 49 -17t20 -43q0 -35 -42 -55q-38 -17 -158 -58zM413 698l-13 13l56 73q25 32 37.5 46.5t29.5 27.5t31 13q25 0 43.5 -17t18.5 -43q0 -33 -43 -56q-45 -24 -160 -57zM363 656q337 0 337 -322q0 -169 -87 -258t-250 -89
q-166 0 -252 82t-86 245q0 166 87.5 254t250.5 88zM356 611q-35 0 -58 -20.5t-33.5 -62t-14 -84.5t-3.5 -106q0 -306 125 -306q24 0 41.5 10.5t29 31t19 44.5t11 59t4.5 64.5t1 70.5q0 69 -5.5 120t-19 93t-38 64t-59.5 22z" />
    <glyph glyph-name="ohungarumlaut" unicode="&#x151;" horiz-adv-x="561" 
d="M150 516l-13 7l22 81q17 62 34 86t56 24q28 0 46 -14t20 -35q3 -28 -20 -49q-25 -22 -145 -100zM333 516l-13 7l23 81q18 63 34.5 86.5t55.5 23.5q28 0 46 -14t20 -34q3 -26 -21 -50q-12 -12 -30 -25t-32.5 -22.5t-41 -26.5t-41.5 -26zM278 -13q-122 0 -187 53t-65 183
q0 126 68.5 187t191.5 61q125 0 187 -50.5t62 -183.5q0 -123 -65.5 -186.5t-191.5 -63.5zM283 30q22 0 32.5 14t15 53.5t4.5 122.5q0 113 -12.5 160.5t-43.5 47.5q-22 0 -32.5 -14.5t-15.5 -55t-5 -124.5q0 -108 12.5 -156t44.5 -48z" />
    <glyph glyph-name="OE" unicode="&#x152;" horiz-adv-x="1020" 
d="M959 217h30q-7 -133 -23 -217h-573q-368 0 -368 314q0 162 92.5 248t275.5 86h567q9 -88 0 -199h-28q-34 90 -75.5 123t-117.5 33h-58v-259h40q52 1 73 17.5t41 71.5h29q5 -118 0 -230h-28q-22 62 -42.5 80t-72.5 18h-40v-211q0 -32 9.5 -40.5t52.5 -8.5h34
q61 0 100.5 38.5t81.5 135.5zM482 89v471q0 31 -15 38t-81 7q-37 0 -63.5 -15t-41 -37.5t-22.5 -60.5t-10 -71.5t-2 -82.5q0 -64 6.5 -113t22.5 -92t48 -66.5t78 -23.5q55 0 67.5 7t12.5 39z" />
    <glyph glyph-name="oe" unicode="&#x153;" horiz-adv-x="798" 
d="M770 160l15 -15q-1 -6 -3.5 -17t-16.5 -38t-34.5 -48t-60 -38t-90.5 -17q-93 0 -153 48q-48 -48 -149 -48q-122 0 -187 53t-65 183q0 126 68.5 187t191.5 61q110 0 151 -44q60 45 150 45q105 0 149.5 -46.5t44.5 -139.5l-17 -17h-241q4 -148 137 -148q34 0 61.5 9.5
t38.5 19.5zM570 429q-23 0 -34 -28t-13 -93h89q1 71 -8.5 96t-33.5 25zM283 30q22 0 32.5 14t15 53.5t4.5 122.5q0 113 -12.5 160.5t-43.5 47.5q-22 0 -32.5 -14.5t-15.5 -55t-5 -124.5q0 -108 12.5 -156t44.5 -48z" />
    <glyph glyph-name="Racute" unicode="&#x154;" horiz-adv-x="721" 
d="M442 745q-59 -17 -191 -46l-13 13l94 94q65 65 104 65q31 0 52.5 -19t21.5 -47q0 -40 -68 -60zM624 135q31 -60 45 -77t35 -25v-35q-110 -3 -161 -3q-46 0 -72 22.5t-45 65.5l-83 186h-54v-187q0 -31 7.5 -37t50.5 -12v-33h-315v33q44 6 51 12t7 37v484q0 31 -7 37
t-51 12v33h322q162 0 232 -38.5t70 -126.5q0 -66 -34.5 -110t-87.5 -65zM289 312h41q62 0 87 36.5t25 126.5q0 62 -26.5 96t-75.5 34h-51v-293z" />
    <glyph glyph-name="racute" unicode="&#x155;" horiz-adv-x="433" 
d="M340 602q-39 -27 -169 -86l-13 7l35 84q26 62 45.5 84.5t50.5 22.5q37 0 58.5 -18t21.5 -44q0 -30 -29 -50zM374 472q62 0 62 -72q0 -29 -10 -53.5t-21 -31.5q-27 11 -65 11q-56 0 -90 -25v-222q0 -31 7.5 -37t53.5 -12v-30h-285v30q27 6 31.5 12t4.5 37v233
q0 50 -5.5 62.5t-39.5 35.5v16q132 36 233 45l-18 -143l11 -4q27 73 55.5 110.5t75.5 37.5z" />
    <glyph glyph-name="uni0156" unicode="&#x156;" horiz-adv-x="721" 
d="M624 135q31 -60 45 -77t35 -25v-35q-110 -3 -161 -3q-46 0 -72 22.5t-45 65.5l-83 186h-54v-187q0 -31 7.5 -37t50.5 -12v-33h-315v33q44 6 51 12t7 37v484q0 31 -7 37t-51 12v33h322q162 0 232 -38.5t70 -126.5q0 -66 -34.5 -110t-87.5 -65zM289 312h41q62 0 87 36.5
t25 126.5q0 62 -26.5 96t-75.5 34h-51v-293zM384 -60q39 0 61 -23t22 -64q0 -49 -32.5 -83t-97.5 -34q-16 0 -24 1l-3 28q37 -2 61.5 10.5t24.5 34.5q0 17 -24 17q-27 0 -43 13.5t-16 34.5q0 27 18 46t53 19z" />
    <glyph glyph-name="uni0157" unicode="&#x157;" horiz-adv-x="433" 
d="M374 472q62 0 62 -72q0 -29 -10 -53.5t-21 -31.5q-27 11 -65 11q-56 0 -90 -25v-222q0 -31 7.5 -37t53.5 -12v-30h-285v30q27 6 31.5 12t4.5 37v233q0 50 -5.5 62.5t-39.5 35.5v16q132 36 233 45l-18 -143l11 -4q27 73 55.5 110.5t75.5 37.5zM144 -60q39 0 61 -23t22 -64
q0 -49 -32.5 -83t-97.5 -34q-16 0 -24 1l-3 28q37 -2 61.5 10.5t24.5 34.5q0 17 -24 17q-27 0 -43 13.5t-16 34.5q0 27 18 46t53 19z" />
    <glyph glyph-name="Rcaron" unicode="&#x158;" horiz-adv-x="721" 
d="M281 738q-49 43 -107 112l13 13q33 -10 89 -30t71 -25q15 6 66 25t82 30l13 -13q-47 -57 -106 -112q-40 -38 -60 -38q-18 0 -61 38zM624 135q31 -60 45 -77t35 -25v-35q-110 -3 -161 -3q-46 0 -72 22.5t-45 65.5l-83 186h-54v-187q0 -31 7.5 -37t50.5 -12v-33h-315v33
q44 6 51 12t7 37v484q0 31 -7 37t-51 12v33h322q162 0 232 -38.5t70 -126.5q0 -66 -34.5 -110t-87.5 -65zM289 312h41q62 0 87 36.5t25 126.5q0 62 -26.5 96t-75.5 34h-51v-293z" />
    <glyph glyph-name="rcaron" unicode="&#x159;" horiz-adv-x="433" 
d="M227 526q-22 0 -74 66t-67 102l13 13l132 -63q42 20 122 62l13 -13q-19 -43 -65 -101q-51 -66 -74 -66zM374 472q62 0 62 -72q0 -29 -10 -53.5t-21 -31.5q-27 11 -65 11q-56 0 -90 -25v-222q0 -31 7.5 -37t53.5 -12v-30h-285v30q27 6 31.5 12t4.5 37v233q0 50 -5.5 62.5
t-39.5 35.5v16q132 36 233 45l-18 -143l11 -4q27 73 55.5 110.5t75.5 37.5z" />
    <glyph glyph-name="Sacute" unicode="&#x15a;" horiz-adv-x="565" 
d="M208 699l-13 13l94 94q65 65 104 65q31 0 52.5 -19t21.5 -47q0 -40 -68 -60q-59 -17 -191 -46zM292 -13q-158 0 -236 36q-8 84 0 167h28q32 -84 75.5 -121t116.5 -37q41 0 67.5 19.5t26.5 55.5q0 42 -34 71t-82 49t-96 44t-82 69.5t-34 110.5q0 104 68.5 154.5
t174.5 50.5q132 0 210 -36q8 -83 0 -167h-28q-31 82 -72 120t-97 38q-35 0 -58 -20t-23 -55q0 -41 34 -70.5t82 -50.5t96 -45t82 -69t34 -108q0 -100 -76 -153t-177 -53z" />
    <glyph glyph-name="sacute" unicode="&#x15b;" horiz-adv-x="442" 
d="M178 516l-13 7l35 84q26 62 45.5 84.5t50.5 22.5q37 0 58.5 -18t21.5 -44q0 -30 -29 -50q-39 -27 -169 -86zM27 301q0 86 56.5 128.5t161.5 42.5q74 0 136 -20q3 -3 3 -55t-3 -65h-23q-15 28 -26 44t-36.5 34t-57.5 19q-49 2 -49 -38q0 -23 24 -41t58.5 -32.5t69.5 -32
t59 -48t24 -70.5q0 -89 -57 -134.5t-151 -45.5q-122 0 -173 21q-7 53 -4 125h25q39 -55 70 -79t75 -24q23 0 38 13t15 35q0 25 -24 42.5t-59 30.5t-69.5 29t-58.5 46.5t-24 74.5z" />
    <glyph glyph-name="Scircumflex" unicode="&#x15c;" horiz-adv-x="565" 
d="M293 753q-15 -6 -66 -25t-82 -30l-13 13q47 57 106 112q40 38 60 38q18 0 61 -38q49 -43 107 -112l-13 -13q-33 10 -89 30t-71 25zM217 536q0 -41 34 -70.5t82 -50.5t96 -45t82 -69t34 -108q0 -100 -76 -153t-177 -53q-158 0 -236 36q-8 84 0 167h28q32 -84 75.5 -121
t116.5 -37q41 0 67.5 19.5t26.5 55.5q0 42 -34 71t-82 49t-96 44t-82 69.5t-34 110.5q0 104 68.5 154.5t174.5 50.5q132 0 210 -36q8 -83 0 -167h-28q-31 82 -72 120t-97 38q-35 0 -58 -20t-23 -55z" />
    <glyph glyph-name="scircumflex" unicode="&#x15d;" horiz-adv-x="442" 
d="M230 581q-42 -20 -122 -62l-13 13q19 43 65 101q51 66 74 66q22 0 74 -66t67 -102l-13 -13zM189 391q0 -23 24 -41t58.5 -32.5t69.5 -32t59 -48t24 -70.5q0 -89 -57 -134.5t-151 -45.5q-122 0 -173 21q-7 53 -4 125h25q39 -55 70 -79t75 -24q23 0 38 13t15 35
q0 25 -24 42.5t-59 30.5t-69.5 29t-58.5 46.5t-24 74.5q0 86 56.5 128.5t161.5 42.5q74 0 136 -20q3 -3 3 -55t-3 -65h-23q-15 28 -26 44t-36.5 34t-57.5 19q-49 2 -49 -38z" />
    <glyph glyph-name="Scedilla" unicode="&#x15e;" horiz-adv-x="565" 
d="M545 193q0 -97 -71.5 -150t-170.5 -56l-10 -28q109 -17 109 -97q0 -46 -30.5 -74t-85.5 -28q-56 0 -83 30t-31 64l18 10l3 -3q3 -3 7 -6t10 -6.5t15.5 -5.5t20.5 -2q42 0 42 37q0 34 -60 46l36 63q-139 4 -208 36q-8 84 0 167h28q32 -84 75.5 -121t116.5 -37
q41 0 67.5 19.5t26.5 55.5q0 42 -34 71t-82 49t-96 44t-82 69.5t-34 110.5q0 104 68.5 154.5t174.5 50.5q132 0 210 -36q8 -83 0 -167h-28q-31 82 -72 120t-97 38q-35 0 -58 -20t-23 -55q0 -41 34 -70.5t82 -50.5t96 -45t82 -69t34 -108z" />
    <glyph glyph-name="scedilla" unicode="&#x15f;" horiz-adv-x="442" 
d="M424 167q0 -85 -51.5 -130t-138.5 -50l-10 -28q109 -17 109 -97q0 -46 -30.5 -74t-85.5 -28q-56 0 -83 30t-31 64l18 10l3 -3q3 -3 7 -6t10 -6.5t15.5 -5.5t20.5 -2q42 0 42 37q0 34 -60 46l36 63q-106 2 -152 21q-7 53 -4 125h25q39 -55 70 -79t75 -24q23 0 38 13t15 35
q0 25 -24 42.5t-59 30.5t-69.5 29t-58.5 46.5t-24 74.5q0 86 56.5 128.5t161.5 42.5q74 0 136 -20q3 -3 3 -55t-3 -65h-23q-15 28 -26 44t-36.5 34t-57.5 19q-49 2 -49 -38q0 -23 24 -41t58.5 -32.5t69.5 -32t59 -48t24 -70.5z" />
    <glyph glyph-name="Scaron" unicode="&#x160;" horiz-adv-x="565" 
d="M238 738q-49 43 -107 112l13 13q33 -10 89 -30t71 -25q16 6 66.5 25t81.5 30l13 -13q-47 -57 -106 -112q-40 -38 -60 -38q-18 0 -61 38zM217 536q0 -41 34 -70.5t82 -50.5t96 -45t82 -69t34 -108q0 -100 -76 -153t-177 -53q-158 0 -236 36q-8 84 0 167h28
q32 -84 75.5 -121t116.5 -37q41 0 67.5 19.5t26.5 55.5q0 42 -34 71t-82 49t-96 44t-82 69.5t-34 110.5q0 104 68.5 154.5t174.5 50.5q132 0 210 -36q8 -83 0 -167h-28q-31 82 -72 120t-97 38q-35 0 -58 -20t-23 -55z" />
    <glyph glyph-name="scaron" unicode="&#x161;" horiz-adv-x="442" 
d="M234 526q-22 0 -74 66t-67 102l13 13l132 -63q42 20 122 62l13 -13q-19 -43 -65 -101q-51 -66 -74 -66zM189 391q0 -23 24 -41t58.5 -32.5t69.5 -32t59 -48t24 -70.5q0 -89 -57 -134.5t-151 -45.5q-122 0 -173 21q-7 53 -4 125h25q39 -55 70 -79t75 -24q23 0 38 13t15 35
q0 25 -24 42.5t-59 30.5t-69.5 29t-58.5 46.5t-24 74.5q0 86 56.5 128.5t161.5 42.5q74 0 136 -20q3 -3 3 -55t-3 -65h-23q-15 28 -26 44t-36.5 34t-57.5 19q-49 2 -49 -38z" />
    <glyph glyph-name="uni0162" unicode="&#x162;" horiz-adv-x="626" 
d="M598 648q11 -70 7 -218h-28q-63 116 -88 146.5t-59 30.5h-19v-525q0 -31 7.5 -37t50.5 -12v-33h-140l-15 -41q109 -17 109 -97q0 -46 -30.5 -74t-85.5 -28q-56 0 -83 30t-31 64l18 10l3 -3q3 -3 7 -6t10 -6.5t15.5 -5.5t20.5 -2q42 0 42 37q0 34 -60 46l43 76h-138v33
q44 6 51 12t7 37v525h-16q-45 0 -69.5 -30.5t-77.5 -146.5h-28q-4 148 7 218h570z" />
    <glyph glyph-name="uni0163" unicode="&#x163;" horiz-adv-x="331" 
d="M178 -12h-2l-10 -29q109 -17 109 -97q0 -46 -30.5 -74t-85.5 -28q-56 0 -83 30t-31 64l18 10l3 -3q3 -3 7 -6t10 -6.5t15.5 -5.5t20.5 -2q42 0 42 37q0 34 -60 46l38 67q-46 8 -67 42t-21 100l1 283h-45v32q139 49 218 145h19l-4 -136h85v-41h-85q-1 -37 -1 -135v-103
q0 -53 11.5 -73t38.5 -20l37 3l5 -15q-53 -85 -153 -85z" />
    <glyph glyph-name="Tcaron" unicode="&#x164;" horiz-adv-x="626" 
d="M260 738q-49 43 -107 112l13 13q33 -10 89 -30t71 -25q16 6 66.5 25t81.5 30l13 -13q-47 -57 -106 -112q-40 -38 -60 -38q-18 0 -61 38zM598 648q11 -70 7 -218h-28q-63 116 -88 146.5t-59 30.5h-19v-525q0 -31 7.5 -37t50.5 -12v-33h-315v33q44 6 51 12t7 37v525h-16
q-45 0 -69.5 -30.5t-77.5 -146.5h-28q-4 148 7 218h570z" />
    <glyph glyph-name="tcaron" unicode="&#x165;" horiz-adv-x="444" 
d="M366 703q33 0 54.5 -21t21.5 -60q0 -53 -35 -96t-82 -64l-17 16q25 24 35 40.5t10 35.5q0 14 -5 21t-20 18q-28 20 -28 53q0 23 17.5 40t48.5 17zM289 85l37 3l5 -15q-53 -85 -153 -85q-68 0 -97.5 33t-29.5 112l1 283h-45v32q139 49 218 145h19l-4 -136h85v-41h-85
q-1 -37 -1 -135v-103q0 -53 11.5 -73t38.5 -20z" />
    <glyph glyph-name="Tbar" unicode="&#x166;" horiz-adv-x="626" 
d="M598 648q11 -70 7 -218h-28q-63 116 -88 146.5t-59 30.5h-19v-268h97v-31h-97v-226q0 -31 7.5 -37t50.5 -12v-33h-315v33q44 6 51 12t7 37v226h-92v31h92v268h-16q-45 0 -69.5 -30.5t-77.5 -146.5h-28q-4 148 7 218h570z" />
    <glyph glyph-name="tbar" unicode="&#x167;" horiz-adv-x="331" 
d="M326 88l5 -15q-53 -85 -153 -85q-68 0 -97.5 33t-29.5 112v125h-44v31h44l1 127h-45v32q139 49 218 145h19l-4 -136h85v-41h-85q-1 -35 -1 -127h86v-31h-86v-80q0 -53 11.5 -73t38.5 -20z" />
    <glyph glyph-name="Utilde" unicode="&#x168;" horiz-adv-x="673" 
d="M316 852q26 0 78 -22.5t75 -22.5q25 0 41 12t32 37l13 -5q5 -53 -20.5 -101.5t-80.5 -48.5q-35 0 -85.5 23.5t-65.5 23.5q-40 0 -72 -47l-13 3q-2 55 22 101.5t76 46.5zM352 -13q-143 0 -210.5 61t-67.5 184v334q0 31 -6.5 37t-45.5 12v33h304v-33q-40 -6 -46.5 -12
t-6.5 -37v-256q0 -70 4.5 -114.5t18 -83.5t41 -57t70.5 -18q75 0 114 58t39 190q0 116 -9 225q-5 55 -22 77.5t-64 27.5v33h201v-33q-20 -2 -27 -4t-14 -12t-9 -26t-4 -52q-4 -73 -4 -242q0 -155 -61.5 -223.5t-194.5 -68.5z" />
    <glyph glyph-name="utilde" unicode="&#x169;" horiz-adv-x="584" 
d="M142 543l-13 3q-2 33 6 65t32 57.5t59 25.5q27 0 79 -22.5t75 -22.5q42 0 73 48l13 -4q5 -53 -21 -101.5t-81 -48.5q-35 0 -85 23.5t-66 23.5q-40 0 -71 -47zM527 127q0 -50 5.5 -62.5t39.5 -35.5v-16q-21 -5 -106.5 -13t-126.5 -8l12 95l-7 5q-64 -105 -169 -105
q-52 0 -88.5 33.5t-36.5 95.5v196q0 50 -5.5 62.5t-39.5 35.5v16q134 37 241 45q-8 -80 -8 -125v-148q0 -54 11.5 -78.5t38.5 -24.5t51 18v199q0 50 -5.5 62.5t-39.5 35.5v16q134 37 241 45q-8 -80 -8 -125v-219z" />
    <glyph glyph-name="Umacron" unicode="&#x16a;" horiz-adv-x="673" 
d="M251 722v78h276v-78h-276zM352 -13q-143 0 -210.5 61t-67.5 184v334q0 31 -6.5 37t-45.5 12v33h304v-33q-40 -6 -46.5 -12t-6.5 -37v-256q0 -70 4.5 -114.5t18 -83.5t41 -57t70.5 -18q75 0 114 58t39 190q0 116 -9 225q-5 55 -22 77.5t-64 27.5v33h201v-33q-20 -2 -27 -4
t-14 -12t-9 -26t-4 -52q-4 -73 -4 -242q0 -155 -61.5 -223.5t-194.5 -68.5z" />
    <glyph glyph-name="umacron" unicode="&#x16b;" horiz-adv-x="584" 
d="M435 649v-77h-275v77h275zM527 127q0 -50 5.5 -62.5t39.5 -35.5v-16q-21 -5 -106.5 -13t-126.5 -8l12 95l-7 5q-64 -105 -169 -105q-52 0 -88.5 33.5t-36.5 95.5v196q0 50 -5.5 62.5t-39.5 35.5v16q134 37 241 45q-8 -80 -8 -125v-148q0 -54 11.5 -78.5t38.5 -24.5t51 18
v199q0 50 -5.5 62.5t-39.5 35.5v16q134 37 241 45q-8 -80 -8 -125v-219z" />
    <glyph glyph-name="Ubreve" unicode="&#x16c;" horiz-adv-x="673" 
d="M271 865q16 -25 37.5 -35.5t74.5 -10.5q50 0 70.5 10.5t36.5 35.5l13 -2q7 -70 -20 -117t-102 -47q-52 0 -82 25.5t-38 60t-3 78.5zM352 -13q-143 0 -210.5 61t-67.5 184v334q0 31 -6.5 37t-45.5 12v33h304v-33q-40 -6 -46.5 -12t-6.5 -37v-256q0 -70 4.5 -114.5
t18 -83.5t41 -57t70.5 -18q75 0 114 58t39 190q0 116 -9 225q-5 55 -22 77.5t-64 27.5v33h201v-33q-20 -2 -27 -4t-14 -12t-9 -26t-4 -52q-4 -73 -4 -242q0 -155 -61.5 -223.5t-194.5 -68.5z" />
    <glyph glyph-name="ubreve" unicode="&#x16d;" horiz-adv-x="584" 
d="M297 537q-132 0 -126 171l17 3q11 -18 19 -27t31 -18t59 -9q54 0 74.5 12t37.5 42l14 -3q6 -171 -126 -171zM527 127q0 -50 5.5 -62.5t39.5 -35.5v-16q-21 -5 -106.5 -13t-126.5 -8l12 95l-7 5q-64 -105 -169 -105q-52 0 -88.5 33.5t-36.5 95.5v196q0 50 -5.5 62.5
t-39.5 35.5v16q134 37 241 45q-8 -80 -8 -125v-148q0 -54 11.5 -78.5t38.5 -24.5t51 18v199q0 50 -5.5 62.5t-39.5 35.5v16q134 37 241 45q-8 -80 -8 -125v-219z" />
    <glyph glyph-name="Uring" unicode="&#x16e;" horiz-adv-x="673" 
d="M385 675q-40 0 -68 27.5t-28 65.5q0 40 27.5 68t68.5 28q38 0 64.5 -28t26.5 -68q0 -38 -26.5 -65.5t-64.5 -27.5zM384 721q18 0 30 13.5t12 33.5q0 22 -12 36t-30 14q-20 0 -32.5 -14t-12.5 -36q0 -20 13 -33.5t32 -13.5zM352 -13q-143 0 -210.5 61t-67.5 184v334
q0 31 -6.5 37t-45.5 12v33h304v-33q-40 -6 -46.5 -12t-6.5 -37v-256q0 -70 4.5 -114.5t18 -83.5t41 -57t70.5 -18q75 0 114 58t39 190q0 116 -9 225q-5 55 -22 77.5t-64 27.5v33h201v-33q-20 -2 -27 -4t-14 -12t-9 -26t-4 -52q-4 -73 -4 -242q0 -155 -61.5 -223.5
t-194.5 -68.5z" />
    <glyph glyph-name="uring" unicode="&#x16f;" horiz-adv-x="584" 
d="M298 528q-40 0 -68 27.5t-28 65.5q0 41 28 68.5t68 27.5q38 0 64.5 -28t26.5 -68q0 -38 -26.5 -65.5t-64.5 -27.5zM297 671q-20 0 -32.5 -14t-12.5 -36q0 -20 13 -33.5t32 -13.5q18 0 30 13.5t12 33.5q0 22 -12 36t-30 14zM527 127q0 -50 5.5 -62.5t39.5 -35.5v-16
q-21 -5 -106.5 -13t-126.5 -8l12 95l-7 5q-64 -105 -169 -105q-52 0 -88.5 33.5t-36.5 95.5v196q0 50 -5.5 62.5t-39.5 35.5v16q134 37 241 45q-8 -80 -8 -125v-148q0 -54 11.5 -78.5t38.5 -24.5t51 18v199q0 50 -5.5 62.5t-39.5 35.5v16q134 37 241 45q-8 -80 -8 -125v-219
z" />
    <glyph glyph-name="Uhungarumlaut" unicode="&#x170;" horiz-adv-x="673" 
d="M236 698l-13 13l46 71q28 45 50 67t48 22q29 0 49 -17t20 -43q0 -35 -42 -55q-38 -17 -158 -58zM427 698l-13 13l56 73q25 32 37.5 46.5t29.5 27.5t31 13q25 0 43.5 -17t18.5 -43q0 -33 -43 -56q-45 -24 -160 -57zM352 -13q-143 0 -210.5 61t-67.5 184v334q0 31 -6.5 37
t-45.5 12v33h304v-33q-40 -6 -46.5 -12t-6.5 -37v-256q0 -70 4.5 -114.5t18 -83.5t41 -57t70.5 -18q75 0 114 58t39 190q0 116 -9 225q-5 55 -22 77.5t-64 27.5v33h201v-33q-20 -2 -27 -4t-14 -12t-9 -26t-4 -52q-4 -73 -4 -242q0 -155 -61.5 -223.5t-194.5 -68.5z" />
    <glyph glyph-name="uhungarumlaut" unicode="&#x171;" horiz-adv-x="584" 
d="M311 616q-25 -22 -145 -100l-13 7l22 81q17 62 34 86t56 24q28 0 46 -14t20 -35q3 -28 -20 -49zM494 616q-12 -12 -30 -25t-32.5 -22.5t-41 -26.5t-41.5 -26l-13 7l23 81q18 63 34.5 86.5t55.5 23.5q28 0 46 -14t20 -34q3 -26 -21 -50zM527 127q0 -50 5.5 -62.5
t39.5 -35.5v-16q-21 -5 -106.5 -13t-126.5 -8l12 95l-7 5q-64 -105 -169 -105q-52 0 -88.5 33.5t-36.5 95.5v196q0 50 -5.5 62.5t-39.5 35.5v16q134 37 241 45q-8 -80 -8 -125v-148q0 -54 11.5 -78.5t38.5 -24.5t51 18v199q0 50 -5.5 62.5t-39.5 35.5v16q134 37 241 45
q-8 -80 -8 -125v-219z" />
    <glyph glyph-name="Uogonek" unicode="&#x172;" horiz-adv-x="673" 
d="M465 648h201v-33q-20 -2 -27 -4t-14 -12t-9 -26t-4 -52q-4 -73 -4 -242q0 -116 -34.5 -183t-118.5 -102q-2 -1 -13 -5t-15 -6t-13.5 -6.5t-13.5 -7.5t-10.5 -8.5t-9.5 -10.5t-5.5 -12t-2.5 -15q0 -21 15.5 -33t42.5 -12q31 0 60 19l10 -14q-22 -98 -126 -98q-56 0 -86 24
t-30 70q0 42 31 66t80 30v12h-17q-143 0 -210.5 61t-67.5 184v334q0 31 -6.5 37t-45.5 12v33h304v-33q-40 -6 -46.5 -12t-6.5 -37v-256q0 -70 4.5 -114.5t18 -83.5t41 -57t70.5 -18q75 0 114 58t39 190q0 116 -9 225q-5 55 -22 77.5t-64 27.5v33z" />
    <glyph glyph-name="uogonek" unicode="&#x173;" horiz-adv-x="584" 
d="M572 13q-13 -5 -43.5 -16t-41.5 -16t-28 -14t-23 -19.5t-6 -23.5q0 -46 59 -46q27 0 53 17l10 -15q-27 -95 -129 -95q-52 0 -79.5 25t-27.5 62q0 47 35 76t93 37v13q-82 -6 -105 -6l12 95l-7 5q-64 -105 -169 -105q-52 0 -88.5 33.5t-36.5 95.5v196q0 50 -5.5 62.5
t-39.5 35.5v16q134 37 241 45q-8 -80 -8 -125v-148q0 -54 11.5 -78.5t38.5 -24.5t51 18v199q0 50 -5.5 62.5t-39.5 35.5v16q134 37 241 45q-8 -80 -8 -125v-219q0 -50 5.5 -62.5t39.5 -35.5v-16z" />
    <glyph glyph-name="Wcircumflex" unicode="&#x174;" horiz-adv-x="973" 
d="M519 753q-16 -6 -66.5 -25t-81.5 -30l-13 13q47 57 106 112q40 38 60 38q18 0 61 -38q49 -43 107 -112l-13 -13q-33 10 -89 30t-71 25zM755 648h211v-33q-31 -4 -38.5 -10.5t-20.5 -39.5l-213 -573h-40l-150 400l-172 -400h-40l-217 574q-13 34 -19 39.5t-35 9.5v33h301
v-33q-39 -4 -46 -27.5t14 -80.5l97 -275l91 230l-39 104q-12 33 -18.5 39t-35.5 10v33h301v-33q-39 -4 -46.5 -27.5t13.5 -80.5l90 -255l81 251q19 59 4 83t-73 29v33z" />
    <glyph glyph-name="wcircumflex" unicode="&#x175;" horiz-adv-x="708" 
d="M388 581q-42 -20 -122 -62l-13 13q19 43 65 101q51 66 74 66q22 0 74 -66t67 -102l-13 -13zM589 457h169v-30q-21 -5 -28.5 -12t-21.5 -38l-175 -390h-30l-127 276l-154 -276h-30l-165 387q-15 35 -21.5 42t-29.5 11v30h275v-30q-26 -2 -30 -11t7 -36l68 -177l56 111
l-29 64q-15 33 -21 39t-22 10v30h262v-30q-23 -4 -26 -12t8 -35l68 -160l32 87q21 57 13 85.5t-48 34.5v30z" />
    <glyph glyph-name="Ycircumflex" unicode="&#x176;" horiz-adv-x="667" 
d="M340 753q-15 -6 -66 -25t-82 -30l-13 13q47 57 106 112q40 38 60 38q18 0 61 -38q49 -43 107 -112l-13 -13q-33 10 -89 30t-71 25zM437 648h211v-33q-25 -3 -34.5 -10.5t-27.5 -39.5l-153 -271v-212q0 -31 7.5 -37t50.5 -12v-33h-315v33q44 6 51 12t7 37v199l-151 285
q-16 31 -25 38.5t-33 10.5v33h304v-33q-41 -4 -45.5 -22.5t27.5 -80.5l94 -179l89 172q27 55 12 80t-69 30v33z" />
    <glyph glyph-name="ycircumflex" unicode="&#x177;" horiz-adv-x="434" 
d="M236 581q-42 -20 -122 -62l-13 13q19 43 65 101q51 66 74 66q22 0 74 -66t67 -102l-13 -13zM311 457h167v-30q-18 -4 -25 -11.5t-19 -38.5l-168 -411q-53 -131 -76 -164q-24 -33 -46 -34q-40 0 -79.5 44t-42.5 81l11 12q133 0 151 7q12 5 21 25l1 1l-189 440
q-13 30 -20 37t-28 12v30h273v-30q-25 -4 -28 -12.5t8 -34.5l86 -214l42 141q17 63 7.5 89t-46.5 31v30z" />
    <glyph glyph-name="Ydieresis" unicode="&#x178;" horiz-adv-x="667" 
d="M237 701q-35 0 -59 23.5t-24 56.5q0 35 24 58.5t59 23.5q32 0 55 -24t23 -58q0 -32 -23 -56t-55 -24zM446 701q-35 0 -58.5 23.5t-23.5 56.5q0 35 23.5 58.5t58.5 23.5q33 0 55.5 -23.5t22.5 -58.5q0 -33 -22.5 -56.5t-55.5 -23.5zM437 648h211v-33q-25 -3 -34.5 -10.5
t-27.5 -39.5l-153 -271v-212q0 -31 7.5 -37t50.5 -12v-33h-315v33q44 6 51 12t7 37v199l-151 285q-16 31 -25 38.5t-33 10.5v33h304v-33q-41 -4 -45.5 -22.5t27.5 -80.5l94 -179l89 172q27 55 12 80t-69 30v33z" />
    <glyph glyph-name="Zacute" unicode="&#x179;" horiz-adv-x="594" 
d="M422 745q-59 -17 -191 -46l-13 13l94 94q65 65 104 65q31 0 52.5 -19t21.5 -47q0 -40 -68 -60zM348 43q61 0 93.5 31.5t91.5 145.5h28q-3 -18 -9 -76t-11.5 -99t-9.5 -45h-499l-7 13l313 592h-69q-65 0 -97 -28t-84 -127h-28q2 126 11 198l493 1l8 -15l-315 -591h91z" />
    <glyph glyph-name="zacute" unicode="&#x17a;" horiz-adv-x="479" 
d="M373 602q-39 -27 -169 -86l-13 7l35 84q26 62 45.5 84.5t50.5 22.5q37 0 58.5 -18t21.5 -44q0 -30 -29 -50zM430 183h21q5 -89 -11 -183h-415l-9 12l222 406h-30q-18 0 -34 -7t-31.5 -24t-25 -28.5t-28 -39.5t-25.5 -38h-21q-2 86 7 176h412l6 -13l-224 -405q34 0 53 4
t41.5 18.5t43 43t48.5 78.5z" />
    <glyph glyph-name="Zdotaccent" unicode="&#x17b;" horiz-adv-x="594" 
d="M319 698q-39 0 -65.5 27t-26.5 63q0 39 26.5 65.5t65.5 26.5q37 0 62.5 -26.5t25.5 -65.5q0 -36 -26 -63t-62 -27zM348 43q61 0 93.5 31.5t91.5 145.5h28q-3 -18 -9 -76t-11.5 -99t-9.5 -45h-499l-7 13l313 592h-69q-65 0 -97 -28t-84 -127h-28q2 126 11 198l493 1l8 -15
l-315 -591h91z" />
    <glyph glyph-name="zdotaccent" unicode="&#x17c;" horiz-adv-x="479" 
d="M255 528q-38 0 -64.5 26t-26.5 61q0 39 26.5 65t64.5 26q36 0 61 -26t25 -65q0 -35 -25 -61t-61 -26zM430 183h21q5 -89 -11 -183h-415l-9 12l222 406h-30q-18 0 -34 -7t-31.5 -24t-25 -28.5t-28 -39.5t-25.5 -38h-21q-2 86 7 176h412l6 -13l-224 -405q34 0 53 4
t41.5 18.5t43 43t48.5 78.5z" />
    <glyph glyph-name="Zcaron" unicode="&#x17d;" horiz-adv-x="594" 
d="M261 738q-49 43 -107 112l13 13q33 -10 89 -30t71 -25q16 6 66.5 25t81.5 30l13 -13q-47 -57 -106 -112q-40 -38 -60 -38q-18 0 -61 38zM348 43q61 0 93.5 31.5t91.5 145.5h28q-3 -18 -9 -76t-11.5 -99t-9.5 -45h-499l-7 13l313 592h-69q-65 0 -97 -28t-84 -127h-28
q2 126 11 198l493 1l8 -15l-315 -591h91z" />
    <glyph glyph-name="zcaron" unicode="&#x17e;" horiz-adv-x="479" 
d="M260 526q-22 0 -74 66t-67 102l13 13l132 -63q42 20 122 62l13 -13q-19 -43 -65 -101q-51 -66 -74 -66zM430 183h21q5 -89 -11 -183h-415l-9 12l222 406h-30q-18 0 -34 -7t-31.5 -24t-25 -28.5t-28 -39.5t-25.5 -38h-21q-2 86 7 176h412l6 -13l-224 -405q34 0 53 4
t41.5 18.5t43 43t48.5 78.5z" />
    <glyph glyph-name="uni018F" unicode="&#x18f;" horiz-adv-x="662" 
d="M306 656q155 0 243 -82t88 -240q0 -167 -83.5 -257t-229.5 -90q-147 0 -222.5 67t-75.5 188l20 19h418v11q0 114 -57.5 179t-165.5 65q-32 0 -60.5 -6t-50 -16.5t-35.5 -19.5t-29.5 -21t-19.5 -15l-21 19q5 18 15 39.5t32.5 51t52 52.5t77 39.5t104.5 16.5zM333 32
q120 0 130 186h-247q2 -186 117 -186z" />
    <glyph glyph-name="florin" unicode="&#x192;" horiz-adv-x="426" 
d="M365 499q80 0 123 -24.5t38 -68.5q-11 -83 -142 -65q6 73 1.5 98t-23.5 25q-30 0 -34 -60q-5 -65 -6 -103h72l-2 -29h-72q-3 -90 -12 -141q-8 -49 -41.5 -103t-73 -93t-75.5 -64.5t-52 -25.5q-25 0 -53.5 41.5t-27.5 76.5l9 9q63 -17 94 -17q15 0 21.5 20.5t11.5 79.5
q3 42 6 113.5t5 103.5h-54l3 25l52 4h1q12 105 66 151.5t165 46.5z" />
    <glyph glyph-name="uni01EA" unicode="&#x1ea;" horiz-adv-x="725" 
d="M542 23q-9 -6 -26.5 -15.5t-25 -14t-19.5 -12.5t-17 -13t-11.5 -12.5t-8.5 -15.5t-2 -17q0 -21 15.5 -33t42.5 -12q32 0 60 19l10 -14q-22 -98 -126 -98q-56 0 -86 24t-30 70q0 42 31 66t80 30v16q-28 -4 -66 -4q-166 0 -252 82t-86 245q0 166 87.5 254t250.5 88
q337 0 337 -322q0 -114 -39 -188.5t-119 -122.5zM372 32q24 0 41.5 10.5t29 31t19 44.5t11 59t4.5 64.5t1 70.5q0 69 -5.5 120t-19 93t-38 64t-59.5 22t-58 -20.5t-33.5 -62t-14 -84.5t-3.5 -106q0 -306 125 -306z" />
    <glyph glyph-name="uni01EB" unicode="&#x1eb;" horiz-adv-x="561" 
d="M422 17q-79 -41 -79 -93q0 -46 59 -46q28 0 53 17l10 -15q-27 -95 -129 -95q-52 0 -79.5 25t-27.5 62q0 76 103 108v11q-23 -4 -54 -4q-122 0 -187 53t-65 183q0 126 68.5 187t191.5 61q125 0 187 -50.5t62 -183.5q0 -161 -113 -220zM283 30q22 0 32.5 14t15 53.5
t4.5 122.5q0 113 -12.5 160.5t-43.5 47.5q-22 0 -32.5 -14.5t-15.5 -55t-5 -124.5q0 -108 12.5 -156t44.5 -48z" />
    <glyph glyph-name="Aringacute" unicode="&#x1fa;" horiz-adv-x="701" 
d="M451 920q-59 -17 -191 -46l-13 13l94 94q65 65 104 65q31 0 52.5 -19t21.5 -47q0 -40 -68 -60zM251 768q0 40 27.5 68t68.5 28q38 0 64.5 -28t26.5 -68q0 -38 -26.5 -65.5t-64.5 -27.5q-40 0 -68 27.5t-28 65.5zM388 768q0 22 -12 36t-30 14q-20 0 -32.5 -14t-12.5 -36
q0 -20 13 -33.5t32 -13.5q18 0 30 13.5t12 33.5zM624 82q11 -33 17 -39t36 -10v-33h-304v33q38 3 46.5 28t-8.5 80l-17 54h-215l-17 -50q-19 -59 -5 -83t69 -29v-33h-211v33q31 4 38.5 10.5t20.5 39.5l172 448q18 47 14 62t-34 22v33h214zM193 237l188 1l-90 287z" />
    <glyph glyph-name="aringacute" unicode="&#x1fb;" horiz-adv-x="547" 
d="M381 785q-59 -17 -191 -46l-13 13l94 94q65 65 104 65q31 0 52.5 -19t21.5 -47q0 -40 -68 -60zM179 621q0 41 27.5 68.5t68.5 27.5q38 0 64.5 -28t26.5 -68q0 -38 -26.5 -65.5t-64.5 -27.5q-40 0 -68 27.5t-28 65.5zM316 621q0 22 -12 36t-30 14q-20 0 -32.5 -14
t-12.5 -36q0 -20 13 -33.5t32 -13.5q18 0 30 13.5t12 33.5zM540 69l8 -15q-20 -30 -55.5 -48.5t-76.5 -18.5q-51 0 -80 20.5t-37 71.5q-27 -48 -59.5 -70t-83.5 -22q-67 0 -99.5 34t-32.5 83q0 21 5.5 38t19.5 31t25.5 23.5t37 20.5t41 16.5t50 17t50.5 17.5l43 15v53
q0 93 -45 93q-48 0 -37 -129q-41 -6 -76 -5t-58 17.5t-23 46.5q0 49 63 81t143 32q127 0 174 -37.5t47 -141.5v-157q0 -46 6 -59.5t23 -13.5q3 0 27 6zM260 87q20 0 36 17v17v122q-5 -2 -20 -9.5t-18.5 -9.5t-14 -8.5t-13 -11t-7.5 -12.5t-6 -17.5t-1 -22.5q0 -65 44 -65z
" />
    <glyph glyph-name="AEacute" unicode="&#x1fc;" horiz-adv-x="969" 
d="M632 745q-59 -17 -191 -46l-13 13l94 94q65 65 104 65q31 0 52.5 -19t21.5 -47q0 -40 -68 -60zM908 217h30q-7 -133 -23 -217h-542v33q44 6 51 12t7 37v162h-233l-36 -99q-20 -59 -5.5 -83t69.5 -29v-33h-211v33q31 4 38 10t21 40l169 429q22 59 9.5 78.5t-71.5 24.5v33
h728q9 -88 0 -199h-28q-34 90 -75.5 123t-117.5 33h-58v-259h40q52 1 73 17.5t41 71.5h29q5 -118 0 -230h-28q-22 62 -42.5 80t-72.5 18h-40v-211q0 -32 9.5 -40.5t52.5 -8.5h34q61 0 100.5 38.5t81.5 135.5zM213 286l218 1v318l-102 1z" />
    <glyph glyph-name="aeacute" unicode="&#x1fd;" horiz-adv-x="744" 
d="M505 602q-39 -27 -169 -86l-13 7l35 84q26 62 45.5 84.5t50.5 22.5q37 0 58.5 -18t21.5 -44q0 -30 -29 -50zM716 160l15 -15q-1 -6 -3.5 -17t-16.5 -38t-34.5 -48t-60 -38t-90.5 -17q-136 0 -196 97q-60 -97 -164 -97q-74 0 -108 34t-34 83q0 21 5.5 38t19.5 31
t25.5 23.5t37 20.5t41 16.5t50 17t50.5 17.5l43 15v53q0 93 -45 93q-48 0 -37 -129q-41 -6 -76 -5t-58 17.5t-23 46.5q0 49 63 81t143 32q105 0 148 -28q52 28 122 28q105 0 149.5 -46.5t44.5 -139.5l-17 -17h-241q4 -148 137 -148q34 0 61.5 9.5t38.5 19.5zM516 429
q-23 0 -34 -28t-13 -93h89q1 71 -8.5 96t-33.5 25zM260 87q24 0 52 35q-16 46 -16 101v20q-5 -2 -20 -9.5t-18.5 -9.5t-14 -8.5t-13 -11t-7.5 -12.5t-6 -17.5t-1 -22.5q0 -65 44 -65z" />
    <glyph glyph-name="Oslashacute" unicode="&#x1fe;" horiz-adv-x="725" 
d="M475 745q-59 -17 -191 -46l-13 13l94 94q65 65 104 65q31 0 52.5 -19t21.5 -47q0 -40 -68 -60zM606 583q94 -80 94 -249t-87 -258t-250 -89q-123 0 -202 45l-52 -63l-29 22l51 61q-106 82 -106 262q0 166 87.5 254t250.5 88q134 0 216 -53l45 55l28 -19zM356 611
q-35 0 -58 -20.5t-33.5 -62t-14 -84.5t-3.5 -106q0 -87 10 -151l209 287q-24 137 -110 137zM372 32q24 0 41.5 10.5t29 31t19 44.5t11 59t4.5 64.5t1 70.5q0 69 -5 113l-206 -285q29 -108 105 -108z" />
    <glyph glyph-name="oslashacute" unicode="&#x1ff;" horiz-adv-x="561" 
d="M407 602q-39 -27 -169 -86l-13 7l35 84q26 62 45.5 84.5t50.5 22.5q37 0 58.5 -18t21.5 -44q0 -30 -29 -50zM458 432q77 -52 77 -195q0 -123 -65.5 -186.5t-191.5 -63.5q-95 0 -152 29l-36 -45l-26 20l34 43q-72 56 -72 189q0 126 68.5 187t191.5 61q90 0 143 -23l36 45
l26 -20zM279 428q-22 0 -32.5 -14.5t-15.5 -55t-5 -124.5q0 -36 1 -52l103 153q-10 93 -51 93zM283 30q22 0 32.5 14t15 53.5t4.5 122.5q0 44 -1 63l-104 -153q9 -100 53 -100z" />
    <glyph glyph-name="uni0200" unicode="&#x200;" horiz-adv-x="701" 
d="M139 755q-43 23 -43 56q0 26 18.5 43t43.5 17q20 0 41 -20t57 -67l56 -73l-13 -13q-115 33 -160 57zM332 756q-42 20 -42 55q0 26 20 43t49 17q25 0 46.5 -21.5t51.5 -67.5l46 -71l-13 -13q-127 43 -158 58zM624 82q11 -33 17 -39t36 -10v-33h-304v33q38 3 46.5 28
t-8.5 80l-17 54h-215l-17 -50q-19 -59 -5 -83t69 -29v-33h-211v33q31 4 38.5 10.5t20.5 39.5l172 448q18 47 14 62t-34 22v33h214zM193 237l188 1l-90 287z" />
    <glyph glyph-name="uni0201" unicode="&#x201;" horiz-adv-x="547" 
d="M222 516q-15 9 -41.5 26t-41 26.5t-32.5 22.5t-30 25q-24 24 -21 50q2 20 20 34t46 14q39 0 55.5 -23.5t34.5 -86.5l23 -81zM260 616q-23 21 -20 49q2 21 20 35t46 14q39 0 56 -24t34 -86l22 -81l-13 -7q-120 78 -145 100zM540 69l8 -15q-20 -30 -55.5 -48.5t-76.5 -18.5
q-51 0 -80 20.5t-37 71.5q-27 -48 -59.5 -70t-83.5 -22q-67 0 -99.5 34t-32.5 83q0 21 5.5 38t19.5 31t25.5 23.5t37 20.5t41 16.5t50 17t50.5 17.5l43 15v53q0 93 -45 93q-48 0 -37 -129q-41 -6 -76 -5t-58 17.5t-23 46.5q0 49 63 81t143 32q127 0 174 -37.5t47 -141.5
v-157q0 -46 6 -59.5t23 -13.5q3 0 27 6zM260 87q20 0 36 17v17v122q-5 -2 -20 -9.5t-18.5 -9.5t-14 -8.5t-13 -11t-7.5 -12.5t-6 -17.5t-1 -22.5q0 -65 44 -65z" />
    <glyph glyph-name="uni0202" unicode="&#x202;" horiz-adv-x="701" 
d="M233 679l-13 2q-5 44 3 78.5t38 60t82 25.5q75 0 102 -47t20 -117l-13 -2q-11 17 -19.5 25t-30.5 14.5t-57 6.5q-53 0 -74.5 -10.5t-37.5 -35.5zM624 82q11 -33 17 -39t36 -10v-33h-304v33q38 3 46.5 28t-8.5 80l-17 54h-215l-17 -50q-19 -59 -5 -83t69 -29v-33h-211v33
q31 4 38.5 10.5t20.5 39.5l172 448q18 47 14 62t-34 22v33h214zM193 237l188 1l-90 287z" />
    <glyph glyph-name="uni0203" unicode="&#x203;" horiz-adv-x="547" 
d="M165 517l-17 3q-6 171 126 171t126 -171l-14 -3q-12 20 -20.5 29.5t-31 17t-60.5 7.5q-36 0 -59 -9t-31 -18t-19 -27zM540 69l8 -15q-20 -30 -55.5 -48.5t-76.5 -18.5q-51 0 -80 20.5t-37 71.5q-27 -48 -59.5 -70t-83.5 -22q-67 0 -99.5 34t-32.5 83q0 21 5.5 38t19.5 31
t25.5 23.5t37 20.5t41 16.5t50 17t50.5 17.5l43 15v53q0 93 -45 93q-48 0 -37 -129q-41 -6 -76 -5t-58 17.5t-23 46.5q0 49 63 81t143 32q127 0 174 -37.5t47 -141.5v-157q0 -46 6 -59.5t23 -13.5q3 0 27 6zM260 87q20 0 36 17v17v122q-5 -2 -20 -9.5t-18.5 -9.5t-14 -8.5
t-13 -11t-7.5 -12.5t-6 -17.5t-1 -22.5q0 -65 44 -65z" />
    <glyph glyph-name="uni0204" unicode="&#x204;" horiz-adv-x="628" 
d="M115 755q-43 23 -43 56q0 26 18.5 43t43.5 17q20 0 41 -20t57 -67l56 -73l-13 -13q-115 33 -160 57zM308 756q-42 20 -42 55q0 26 20 43t49 17q25 0 46.5 -21.5t51.5 -67.5l46 -71l-13 -13q-127 43 -158 58zM567 217h30q-7 -133 -23 -217h-542v33q44 6 51 12t7 37v484
q0 31 -7 37t-51 12v33h536q9 -88 0 -199h-28q-34 90 -75.5 123t-117.5 33h-58v-259h40q52 1 73 17.5t41 71.5h29q5 -118 0 -230h-28q-22 62 -42.5 80t-72.5 18h-40v-211q0 -32 9.5 -40.5t52.5 -8.5h34q61 0 100.5 38.5t81.5 135.5z" />
    <glyph glyph-name="uni0205" unicode="&#x205;" horiz-adv-x="474" 
d="M200 516q-15 9 -41.5 26t-41 26.5t-32.5 22.5t-30 25q-24 24 -21 50q2 20 20 34t46 14q39 0 55.5 -23.5t34.5 -86.5l23 -81zM238 616q-23 21 -20 49q2 21 20 35t46 14q39 0 56 -24t34 -86l22 -81l-13 -7q-120 78 -145 100zM446 160l15 -15q-1 -6 -3.5 -17t-16.5 -38
t-34.5 -48t-60 -38t-90.5 -17q-102 0 -166 59.5t-64 176.5q0 123 66.5 186t170.5 63q105 0 149.5 -46.5t44.5 -139.5l-17 -17h-241q4 -148 137 -148q34 0 61.5 9.5t38.5 19.5zM246 429q-23 0 -34 -28t-13 -93h89q1 71 -8.5 96t-33.5 25z" />
    <glyph glyph-name="uni0206" unicode="&#x206;" horiz-adv-x="628" 
d="M209 679l-13 2q-5 44 3 78.5t38 60t82 25.5q75 0 102 -47t20 -117l-13 -2q-11 17 -19.5 25t-30.5 14.5t-57 6.5q-53 0 -74.5 -10.5t-37.5 -35.5zM567 217h30q-7 -133 -23 -217h-542v33q44 6 51 12t7 37v484q0 31 -7 37t-51 12v33h536q9 -88 0 -199h-28q-34 90 -75.5 123
t-117.5 33h-58v-259h40q52 1 73 17.5t41 71.5h29q5 -118 0 -230h-28q-22 62 -42.5 80t-72.5 18h-40v-211q0 -32 9.5 -40.5t52.5 -8.5h34q61 0 100.5 38.5t81.5 135.5z" />
    <glyph glyph-name="uni0207" unicode="&#x207;" horiz-adv-x="474" 
d="M143 517l-17 3q-6 171 126 171t126 -171l-14 -3q-12 20 -20.5 29.5t-31 17t-60.5 7.5q-36 0 -59 -9t-31 -18t-19 -27zM446 160l15 -15q-1 -6 -3.5 -17t-16.5 -38t-34.5 -48t-60 -38t-90.5 -17q-102 0 -166 59.5t-64 176.5q0 123 66.5 186t170.5 63q105 0 149.5 -46.5
t44.5 -139.5l-17 -17h-241q4 -148 137 -148q34 0 61.5 9.5t38.5 19.5zM246 429q-23 0 -34 -28t-13 -93h89q1 71 -8.5 96t-33.5 25z" />
    <glyph glyph-name="uni0208" unicode="&#x208;" horiz-adv-x="379" 
d="M141 698q-115 33 -160 57q-43 23 -43 56q0 26 18.5 43t43.5 17q20 0 41 -20t57 -67l56 -73zM332 698q-127 43 -158 58q-42 20 -42 55q0 26 20 43t49 17q25 0 46.5 -21.5t51.5 -67.5l46 -71zM32 0v33q44 6 51 12t7 37v484q0 31 -7 37t-51 12v33h315v-33q-43 -6 -50.5 -12
t-7.5 -37v-484q0 -31 7.5 -37t50.5 -12v-33h-315z" />
    <glyph glyph-name="uni0209" unicode="&#x209;" horiz-adv-x="298" 
d="M110 516q-15 9 -41.5 26t-41 26.5t-32.5 22.5t-30 25q-24 24 -21 50q2 20 20 34t46 14q39 0 55.5 -23.5t34.5 -86.5l23 -81zM293 516q-120 78 -145 100q-23 21 -20 49q2 21 20 35t46 14q39 0 56 -24t34 -86l22 -81zM26 0v30q27 6 31.5 12t4.5 37v233q0 50 -5.5 62.5
t-39.5 35.5v16q134 37 241 45q-8 -80 -8 -125v-267q0 -31 4.5 -37t31.5 -12v-30h-260z" />
    <glyph glyph-name="uni020A" unicode="&#x20a;" horiz-adv-x="379" 
d="M75 679l-13 2q-5 44 3 78.5t38 60t82 25.5q75 0 102 -47t20 -117l-13 -2q-11 17 -19.5 25t-30.5 14.5t-57 6.5q-53 0 -74.5 -10.5t-37.5 -35.5zM32 0v33q44 6 51 12t7 37v484q0 31 -7 37t-51 12v33h315v-33q-43 -6 -50.5 -12t-7.5 -37v-484q0 -31 7.5 -37t50.5 -12v-33
h-315z" />
    <glyph glyph-name="uni020B" unicode="&#x20b;" horiz-adv-x="298" 
d="M53 517l-17 3q-6 171 126 171t126 -171l-14 -3q-12 20 -20.5 29.5t-31 17t-60.5 7.5q-36 0 -59 -9t-31 -18t-19 -27zM26 0v30q27 6 31.5 12t4.5 37v233q0 50 -5.5 62.5t-39.5 35.5v16q134 37 241 45q-8 -80 -8 -125v-267q0 -31 4.5 -37t31.5 -12v-30h-260z" />
    <glyph glyph-name="uni020C" unicode="&#x20c;" horiz-adv-x="725" 
d="M323 698q-115 33 -160 57q-43 23 -43 56q0 26 18.5 43t43.5 17q20 0 41 -20t57 -67l56 -73zM514 698q-127 43 -158 58q-42 20 -42 55q0 26 20 43t49 17q25 0 46.5 -21.5t51.5 -67.5l46 -71zM363 656q337 0 337 -322q0 -169 -87 -258t-250 -89q-166 0 -252 82t-86 245
q0 166 87.5 254t250.5 88zM356 611q-35 0 -58 -20.5t-33.5 -62t-14 -84.5t-3.5 -106q0 -306 125 -306q24 0 41.5 10.5t29 31t19 44.5t11 59t4.5 64.5t1 70.5q0 69 -5.5 120t-19 93t-38 64t-59.5 22z" />
    <glyph glyph-name="uni020D" unicode="&#x20d;" horiz-adv-x="561" 
d="M229 516q-15 9 -41.5 26t-41 26.5t-32.5 22.5t-30 25q-24 24 -21 50q2 20 20 34t46 14q39 0 55.5 -23.5t34.5 -86.5l23 -81zM412 516q-120 78 -145 100q-23 21 -20 49q2 21 20 35t46 14q39 0 56 -24t34 -86l22 -81zM278 -13q-122 0 -187 53t-65 183q0 126 68.5 187
t191.5 61q125 0 187 -50.5t62 -183.5q0 -123 -65.5 -186.5t-191.5 -63.5zM283 30q22 0 32.5 14t15 53.5t4.5 122.5q0 113 -12.5 160.5t-43.5 47.5q-22 0 -32.5 -14.5t-15.5 -55t-5 -124.5q0 -108 12.5 -156t44.5 -48z" />
    <glyph glyph-name="uni020E" unicode="&#x20e;" horiz-adv-x="725" 
d="M257 679l-13 2q-5 44 3 78.5t38 60t82 25.5q75 0 102 -47t20 -117l-13 -2q-11 17 -19.5 25t-30.5 14.5t-57 6.5q-53 0 -74.5 -10.5t-37.5 -35.5zM363 656q337 0 337 -322q0 -169 -87 -258t-250 -89q-166 0 -252 82t-86 245q0 166 87.5 254t250.5 88zM356 611
q-35 0 -58 -20.5t-33.5 -62t-14 -84.5t-3.5 -106q0 -306 125 -306q24 0 41.5 10.5t29 31t19 44.5t11 59t4.5 64.5t1 70.5q0 69 -5.5 120t-19 93t-38 64t-59.5 22z" />
    <glyph glyph-name="uni020F" unicode="&#x20f;" horiz-adv-x="561" 
d="M172 517l-17 3q-6 171 126 171t126 -171l-14 -3q-12 20 -20.5 29.5t-31 17t-60.5 7.5q-36 0 -59 -9t-31 -18t-19 -27zM278 -13q-122 0 -187 53t-65 183q0 126 68.5 187t191.5 61q125 0 187 -50.5t62 -183.5q0 -123 -65.5 -186.5t-191.5 -63.5zM283 30q22 0 32.5 14
t15 53.5t4.5 122.5q0 113 -12.5 160.5t-43.5 47.5q-22 0 -32.5 -14.5t-15.5 -55t-5 -124.5q0 -108 12.5 -156t44.5 -48z" />
    <glyph glyph-name="uni0210" unicode="&#x210;" horiz-adv-x="721" 
d="M130 755q-43 23 -43 56q0 26 18.5 43t43.5 17q20 0 41 -20t57 -67l56 -73l-13 -13q-115 33 -160 57zM323 756q-42 20 -42 55q0 26 20 43t49 17q26 0 47 -21.5t51 -67.5l46 -71l-13 -13q-127 43 -158 58zM624 135q31 -60 45 -77t35 -25v-35q-110 -3 -161 -3
q-46 0 -72 22.5t-45 65.5l-83 186h-54v-187q0 -31 7.5 -37t50.5 -12v-33h-315v33q44 6 51 12t7 37v484q0 31 -7 37t-51 12v33h322q162 0 232 -38.5t70 -126.5q0 -66 -34.5 -110t-87.5 -65zM289 312h41q62 0 87 36.5t25 126.5q0 62 -26.5 96t-75.5 34h-51v-293z" />
    <glyph glyph-name="uni0211" unicode="&#x211;" horiz-adv-x="433" 
d="M169 516q-15 9 -41.5 26t-41 26.5t-32.5 22.5t-30 25q-24 24 -21 50q2 20 20 34t46 14q39 0 55.5 -23.5t34.5 -86.5l23 -81zM207 616q-23 21 -20 49q2 21 20 35t46 14q39 0 56 -24t34 -86l22 -81l-13 -7q-120 78 -145 100zM374 472q62 0 62 -72q0 -29 -10 -53.5
t-21 -31.5q-27 11 -65 11q-56 0 -90 -25v-222q0 -31 7.5 -37t53.5 -12v-30h-285v30q27 6 31.5 12t4.5 37v233q0 50 -5.5 62.5t-39.5 35.5v16q132 36 233 45l-18 -143l11 -4q27 73 55.5 110.5t75.5 37.5z" />
    <glyph glyph-name="uni0212" unicode="&#x212;" horiz-adv-x="721" 
d="M224 679l-13 2q-5 44 3 78.5t38 60t82 25.5q75 0 102 -47t20 -117l-13 -2q-11 17 -19.5 25t-30.5 14.5t-57 6.5q-53 0 -74.5 -10.5t-37.5 -35.5zM624 135q31 -60 45 -77t35 -25v-35q-110 -3 -161 -3q-46 0 -72 22.5t-45 65.5l-83 186h-54v-187q0 -31 7.5 -37t50.5 -12
v-33h-315v33q44 6 51 12t7 37v484q0 31 -7 37t-51 12v33h322q162 0 232 -38.5t70 -126.5q0 -66 -34.5 -110t-87.5 -65zM289 312h41q62 0 87 36.5t25 126.5q0 62 -26.5 96t-75.5 34h-51v-293z" />
    <glyph glyph-name="uni0213" unicode="&#x213;" horiz-adv-x="433" 
d="M112 517l-17 3q-6 171 126 171t126 -171l-14 -3q-12 20 -20.5 29.5t-31 17t-60.5 7.5q-36 0 -59 -9t-31 -18t-19 -27zM374 472q62 0 62 -72q0 -29 -10 -53.5t-21 -31.5q-27 11 -65 11q-56 0 -90 -25v-222q0 -31 7.5 -37t53.5 -12v-30h-285v30q27 6 31.5 12t4.5 37v233
q0 50 -5.5 62.5t-39.5 35.5v16q132 36 233 45l-18 -143l11 -4q27 73 55.5 110.5t75.5 37.5z" />
    <glyph glyph-name="uni0214" unicode="&#x214;" horiz-adv-x="673" 
d="M337 698q-115 33 -160 57q-43 23 -43 56q0 26 18.5 43t43.5 17q20 0 41 -20t57 -67l56 -73zM528 698q-127 43 -158 58q-42 20 -42 55q0 26 20 43t49 17q25 0 46.5 -21.5t51.5 -67.5l46 -71zM352 -13q-143 0 -210.5 61t-67.5 184v334q0 31 -6.5 37t-45.5 12v33h304v-33
q-40 -6 -46.5 -12t-6.5 -37v-256q0 -70 4.5 -114.5t18 -83.5t41 -57t70.5 -18q75 0 114 58t39 190q0 116 -9 225q-5 55 -22 77.5t-64 27.5v33h201v-33q-20 -2 -27 -4t-14 -12t-9 -26t-4 -52q-4 -73 -4 -242q0 -155 -61.5 -223.5t-194.5 -68.5z" />
    <glyph glyph-name="uni0215" unicode="&#x215;" horiz-adv-x="584" 
d="M245 516q-15 9 -41.5 26t-41 26.5t-32.5 22.5t-30 25q-24 24 -21 50q2 20 20 34t46 14q39 0 55.5 -23.5t34.5 -86.5l23 -81zM283 616q-23 21 -20 49q2 21 20 35t46 14q39 0 56 -24t34 -86l22 -81l-13 -7q-120 78 -145 100zM527 127q0 -50 5.5 -62.5t39.5 -35.5v-16
q-21 -5 -106.5 -13t-126.5 -8l12 95l-7 5q-64 -105 -169 -105q-52 0 -88.5 33.5t-36.5 95.5v196q0 50 -5.5 62.5t-39.5 35.5v16q134 37 241 45q-8 -80 -8 -125v-148q0 -54 11.5 -78.5t38.5 -24.5t51 18v199q0 50 -5.5 62.5t-39.5 35.5v16q134 37 241 45q-8 -80 -8 -125v-219
z" />
    <glyph glyph-name="uni0216" unicode="&#x216;" horiz-adv-x="673" 
d="M271 679l-13 2q-5 44 3 78.5t38 60t82 25.5q75 0 102 -47t20 -117l-13 -2q-11 17 -19.5 25t-30.5 14.5t-57 6.5q-53 0 -74.5 -10.5t-37.5 -35.5zM352 -13q-143 0 -210.5 61t-67.5 184v334q0 31 -6.5 37t-45.5 12v33h304v-33q-40 -6 -46.5 -12t-6.5 -37v-256
q0 -70 4.5 -114.5t18 -83.5t41 -57t70.5 -18q75 0 114 58t39 190q0 116 -9 225q-5 55 -22 77.5t-64 27.5v33h201v-33q-20 -2 -27 -4t-14 -12t-9 -26t-4 -52q-4 -73 -4 -242q0 -155 -61.5 -223.5t-194.5 -68.5z" />
    <glyph glyph-name="uni0217" unicode="&#x217;" horiz-adv-x="584" 
d="M188 517l-17 3q-6 171 126 171t126 -171l-14 -3q-12 20 -20.5 29.5t-31 17t-60.5 7.5q-36 0 -59 -9t-31 -18t-19 -27zM527 127q0 -50 5.5 -62.5t39.5 -35.5v-16q-21 -5 -106.5 -13t-126.5 -8l12 95l-7 5q-64 -105 -169 -105q-52 0 -88.5 33.5t-36.5 95.5v196
q0 50 -5.5 62.5t-39.5 35.5v16q134 37 241 45q-8 -80 -8 -125v-148q0 -54 11.5 -78.5t38.5 -24.5t51 18v199q0 50 -5.5 62.5t-39.5 35.5v16q134 37 241 45q-8 -80 -8 -125v-219z" />
    <glyph glyph-name="uni0218" unicode="&#x218;" horiz-adv-x="565" 
d="M292 -13q-158 0 -236 36q-8 84 0 167h28q32 -84 75.5 -121t116.5 -37q41 0 67.5 19.5t26.5 55.5q0 42 -34 71t-82 49t-96 44t-82 69.5t-34 110.5q0 104 68.5 154.5t174.5 50.5q132 0 210 -36q8 -83 0 -167h-28q-31 82 -72 120t-97 38q-35 0 -58 -20t-23 -55
q0 -41 34 -70.5t82 -50.5t96 -45t82 -69t34 -108q0 -100 -76 -153t-177 -53zM208 -235q37 -2 61.5 10.5t24.5 34.5q0 17 -24 17q-27 0 -43 13.5t-16 34.5q0 27 18 46t53 19q39 0 61 -23t22 -64q0 -49 -32.5 -83t-97.5 -34q-16 0 -24 1z" />
    <glyph glyph-name="uni0219" unicode="&#x219;" horiz-adv-x="442" 
d="M27 301q0 86 56.5 128.5t161.5 42.5q74 0 136 -20q3 -3 3 -55t-3 -65h-23q-15 28 -26 44t-36.5 34t-57.5 19q-49 2 -49 -38q0 -23 24 -41t58.5 -32.5t69.5 -32t59 -48t24 -70.5q0 -89 -57 -134.5t-151 -45.5q-122 0 -173 21q-7 53 -4 125h25q39 -55 70 -79t75 -24
q23 0 38 13t15 35q0 25 -24 42.5t-59 30.5t-69.5 29t-58.5 46.5t-24 74.5zM139 -235q37 -2 61.5 10.5t24.5 34.5q0 17 -24 17q-27 0 -43 13.5t-16 34.5q0 27 18 46t53 19q39 0 61 -23t22 -64q0 -49 -32.5 -83t-97.5 -34q-16 0 -24 1z" />
    <glyph glyph-name="uni021A" unicode="&#x21a;" horiz-adv-x="626" 
d="M598 648q11 -70 7 -218h-28q-63 116 -88 146.5t-59 30.5h-19v-525q0 -31 7.5 -37t50.5 -12v-33h-315v33q44 6 51 12t7 37v525h-16q-45 0 -69.5 -30.5t-77.5 -146.5h-28q-4 148 7 218h570zM303 -60q39 0 61 -23t22 -64q0 -49 -32.5 -83t-97.5 -34q-16 0 -24 1l-3 28
q37 -2 61.5 10.5t24.5 34.5q0 17 -24 17q-27 0 -43 13.5t-16 34.5q0 27 18 46t53 19z" />
    <glyph glyph-name="uni021B" unicode="&#x21b;" horiz-adv-x="331" 
d="M326 88l5 -15q-53 -85 -153 -85q-68 0 -97.5 33t-29.5 112l1 283h-45v32q139 49 218 145h19l-4 -136h85v-41h-85q-1 -37 -1 -135v-103q0 -53 11.5 -73t38.5 -20zM155 -60q39 0 61 -23t22 -64q0 -49 -32.5 -83t-97.5 -34q-16 0 -24 1l-3 28q37 -2 61.5 10.5t24.5 34.5
q0 17 -24 17q-27 0 -43 13.5t-16 34.5q0 27 18 46t53 19z" />
    <glyph glyph-name="uni022A" unicode="&#x22a;" horiz-adv-x="725" 
d="M237 899v78h276v-78h-276zM266 701q-35 0 -59 23.5t-24 56.5q0 35 24 58.5t59 23.5q32 0 55 -24t23 -58q0 -32 -23 -56t-55 -24zM475 701q-35 0 -58.5 23.5t-23.5 56.5q0 35 23.5 58.5t58.5 23.5q33 0 55.5 -23.5t22.5 -58.5q0 -33 -22.5 -56.5t-55.5 -23.5zM363 656
q337 0 337 -322q0 -169 -87 -258t-250 -89q-166 0 -252 82t-86 245q0 166 87.5 254t250.5 88zM356 611q-35 0 -58 -20.5t-33.5 -62t-14 -84.5t-3.5 -106q0 -306 125 -306q24 0 41.5 10.5t29 31t19 44.5t11 59t4.5 64.5t1 70.5q0 69 -5.5 120t-19 93t-38 64t-59.5 22z" />
    <glyph glyph-name="uni022B" unicode="&#x22b;" horiz-adv-x="561" 
d="M144 756v77h275v-77h-275zM185 535q-34 0 -58 23.5t-24 55.5q0 34 23.5 57.5t58.5 23.5q32 0 54.5 -23.5t22.5 -57.5q0 -32 -22.5 -55.5t-54.5 -23.5zM380 535q-34 0 -57.5 23.5t-23.5 55.5q0 34 23.5 57.5t57.5 23.5q33 0 55.5 -23.5t22.5 -57.5q0 -32 -22.5 -55.5
t-55.5 -23.5zM278 -13q-122 0 -187 53t-65 183q0 126 68.5 187t191.5 61q125 0 187 -50.5t62 -183.5q0 -123 -65.5 -186.5t-191.5 -63.5zM283 30q22 0 32.5 14t15 53.5t4.5 122.5q0 113 -12.5 160.5t-43.5 47.5q-22 0 -32.5 -14.5t-15.5 -55t-5 -124.5q0 -108 12.5 -156
t44.5 -48z" />
    <glyph glyph-name="uni022C" unicode="&#x22c;" horiz-adv-x="725" 
d="M237 899v78h276v-78h-276zM302 852q26 0 78 -22.5t75 -22.5q25 0 41 12t32 37l13 -5q5 -53 -20.5 -101.5t-80.5 -48.5q-35 0 -85.5 23.5t-65.5 23.5q-40 0 -72 -47l-13 3q-2 55 22 101.5t76 46.5zM363 656q337 0 337 -322q0 -169 -87 -258t-250 -89q-166 0 -252 82
t-86 245q0 166 87.5 254t250.5 88zM356 611q-35 0 -58 -20.5t-33.5 -62t-14 -84.5t-3.5 -106q0 -306 125 -306q24 0 41.5 10.5t29 31t19 44.5t11 59t4.5 64.5t1 70.5q0 69 -5.5 120t-19 93t-38 64t-59.5 22z" />
    <glyph glyph-name="uni022D" unicode="&#x22d;" horiz-adv-x="561" 
d="M144 756v77h275v-77h-275zM210 694q27 0 79 -22.5t75 -22.5q42 0 73 48l13 -4q5 -53 -21 -101.5t-81 -48.5q-35 0 -85 23.5t-66 23.5q-40 0 -71 -47l-13 3q-2 33 6 65t32 57.5t59 25.5zM278 -13q-122 0 -187 53t-65 183q0 126 68.5 187t191.5 61q125 0 187 -50.5
t62 -183.5q0 -123 -65.5 -186.5t-191.5 -63.5zM283 30q22 0 32.5 14t15 53.5t4.5 122.5q0 113 -12.5 160.5t-43.5 47.5q-22 0 -32.5 -14.5t-15.5 -55t-5 -124.5q0 -108 12.5 -156t44.5 -48z" />
    <glyph glyph-name="uni0230" unicode="&#x230;" horiz-adv-x="725" 
d="M237 919v78h276v-78h-276zM372 698q-38 0 -65 27t-27 63q0 39 26.5 65.5t65.5 26.5q37 0 62.5 -26.5t25.5 -65.5q0 -36 -26 -63t-62 -27zM363 656q337 0 337 -322q0 -169 -87 -258t-250 -89q-166 0 -252 82t-86 245q0 166 87.5 254t250.5 88zM356 611q-35 0 -58 -20.5
t-33.5 -62t-14 -84.5t-3.5 -106q0 -306 125 -306q24 0 41.5 10.5t29 31t19 44.5t11 59t4.5 64.5t1 70.5q0 69 -5.5 120t-19 93t-38 64t-59.5 22z" />
    <glyph glyph-name="uni0231" unicode="&#x231;" horiz-adv-x="561" 
d="M144 756v77h275v-77h-275zM282 528q-38 0 -64.5 26t-26.5 61q0 39 26.5 65t64.5 26q36 0 61 -26t25 -65q0 -35 -25 -61t-61 -26zM278 -13q-122 0 -187 53t-65 183q0 126 68.5 187t191.5 61q125 0 187 -50.5t62 -183.5q0 -123 -65.5 -186.5t-191.5 -63.5zM283 30
q22 0 32.5 14t15 53.5t4.5 122.5q0 113 -12.5 160.5t-43.5 47.5q-22 0 -32.5 -14.5t-15.5 -55t-5 -124.5q0 -108 12.5 -156t44.5 -48z" />
    <glyph glyph-name="uni0232" unicode="&#x232;" horiz-adv-x="667" 
d="M484 800v-78h-276v78h276zM437 648h211v-33q-25 -3 -34.5 -10.5t-27.5 -39.5l-153 -271v-212q0 -31 7.5 -37t50.5 -12v-33h-315v33q44 6 51 12t7 37v199l-151 285q-16 31 -25 38.5t-33 10.5v33h304v-33q-41 -4 -45.5 -22.5t27.5 -80.5l94 -179l89 172q27 55 12 80t-69 30
v33z" />
    <glyph glyph-name="uni0233" unicode="&#x233;" horiz-adv-x="434" 
d="M372 649v-77h-275v77h275zM311 457h167v-30q-18 -4 -25 -11.5t-19 -38.5l-168 -411q-53 -131 -76 -164q-24 -33 -46 -34q-40 0 -79.5 44t-42.5 81l11 12q133 0 151 7q12 5 21 25l1 1l-189 440q-13 30 -20 37t-28 12v30h273v-30q-25 -4 -28 -12.5t8 -34.5l86 -214l42 141
q17 63 7.5 89t-46.5 31v30z" />
    <glyph glyph-name="uni0237" unicode="&#x237;" horiz-adv-x="287" 
d="M6 -243l-12 15q45 37 53.5 94t8.5 254v192q0 50 -5.5 62.5t-39.5 35.5v16q134 37 241 45q-8 -80 -8 -130v-340q0 -110 -72 -173t-166 -71z" />
    <glyph glyph-name="uni0259" unicode="&#x259;" horiz-adv-x="487" 
d="M231 472q102 0 166 -59.5t64 -176.5q0 -123 -66.5 -186t-170.5 -63q-105 0 -149.5 46.5t-44.5 139.5l17 17h241q-4 148 -137 148q-34 0 -61.5 -10t-37.5 -20l-11 -9l-15 15q1 6 3.5 17t16.5 38t34.5 48t60 38t90.5 17zM241 30q23 0 34 28t13 93h-89q-1 -71 8.5 -96
t33.5 -25z" />
    <glyph glyph-name="circumflex" unicode="&#x2c6;" horiz-adv-x="420" 
d="M350 531l-13 -13l-132 63q-42 -20 -122 -62l-13 13q19 43 65 101q51 66 74 66q22 0 74 -66t67 -102z" />
    <glyph glyph-name="caron" unicode="&#x2c7;" horiz-adv-x="420" 
d="M337 706l13 -13q-19 -43 -65 -101q-51 -66 -74 -66q-22 0 -74 66t-67 102l13 13l132 -63q42 20 122 62z" />
    <glyph glyph-name="breve" unicode="&#x2d8;" horiz-adv-x="392" 
d="M87 711q11 -18 19 -27t31 -18t59 -9q54 0 74.5 12t37.5 42l14 -3q6 -171 -126 -171t-126 171z" />
    <glyph glyph-name="dotaccent" unicode="&#x2d9;" horiz-adv-x="317" 
d="M161 528q-38 0 -64.5 26t-26.5 61q0 39 26.5 65t64.5 26q36 0 61 -26t25 -65q0 -35 -25 -61t-61 -26z" />
    <glyph glyph-name="ring" unicode="&#x2da;" horiz-adv-x="327" 
d="M166 528q-40 0 -68 27.5t-28 65.5q0 41 28 68.5t68 27.5q38 0 64.5 -28t26.5 -68q0 -38 -26.5 -65.5t-64.5 -27.5zM165 574q18 0 30 13.5t12 33.5q0 22 -12 36t-30 14q-20 0 -32.5 -14t-12.5 -36q0 -20 13 -33.5t32 -13.5z" />
    <glyph glyph-name="ogonek" unicode="&#x2db;" horiz-adv-x="383" 
d="M313 30v-30q-10 -3 -27.5 -7.5t-27 -7.5t-23 -7.5t-21.5 -9t-15.5 -11t-11 -15t-3.5 -18.5q0 -46 59 -46q27 0 53 17l10 -15q-27 -95 -129 -95q-52 0 -79.5 25t-27.5 62q0 48 36 78t96 37v23z" />
    <glyph glyph-name="tilde" unicode="&#x2dc;" horiz-adv-x="478" 
d="M167 694q27 0 79 -22.5t75 -22.5q42 0 73 48l13 -4q5 -53 -21 -101.5t-81 -48.5q-35 0 -85 23.5t-66 23.5q-40 0 -71 -47l-13 3q-2 33 6 65t32 57.5t59 25.5z" />
    <glyph glyph-name="hungarumlaut" unicode="&#x2dd;" horiz-adv-x="502" 
d="M83 516l-13 7l22 81q17 62 34 86t56 24q28 0 46 -14t20 -35q3 -28 -20 -49q-25 -22 -145 -100zM266 516l-13 7l23 81q18 63 34.5 86.5t55.5 23.5q28 0 46 -14t20 -34q3 -26 -21 -50q-12 -12 -30 -25t-32.5 -22.5t-41 -26.5t-41.5 -26z" />
    <glyph glyph-name="gravecomb" unicode="&#x300;" 
d="M-83 513q-91 43 -146 82q-41 29 -39 61q2 26 24 43t58 16q32 -1 51 -25t38 -85l27 -86z" />
    <glyph glyph-name="acutecomb" unicode="&#x301;" 
d="M-268 516l-13 7l35 84q26 62 45.5 84.5t50.5 22.5q37 0 58.5 -18t21.5 -44q0 -30 -29 -50q-39 -27 -169 -86z" />
    <glyph glyph-name="uni0302" unicode="&#x302;" 
d="M-70 531l-13 -13l-132 63q-42 -20 -122 -62l-13 13q19 43 65 101q51 66 74 66q22 0 74 -66t67 -102z" />
    <glyph glyph-name="tildecomb" unicode="&#x303;" 
d="M-311 694q27 0 79 -22.5t75 -22.5q42 0 73 48l13 -4q5 -53 -21 -101.5t-81 -48.5q-35 0 -85 23.5t-66 23.5q-40 0 -71 -47l-13 3q-2 33 6 65t32 57.5t59 25.5z" />
    <glyph glyph-name="uni0304" unicode="&#x304;" 
d="M-345 572v77h275v-77h-275z" />
    <glyph glyph-name="uni0306" unicode="&#x306;" 
d="M-305 711q11 -18 19 -27t31 -18t59 -9q54 0 74.5 12t37.5 42l14 -3q6 -171 -126 -171t-126 171z" />
    <glyph glyph-name="uni0307" unicode="&#x307;" 
d="M-156 528q-38 0 -64.5 26t-26.5 61q0 39 26.5 65t64.5 26q36 0 61 -26t25 -65q0 -35 -25 -61t-61 -26z" />
    <glyph glyph-name="uni0308" unicode="&#x308;" 
d="M-343 535q-34 0 -58 23.5t-24 55.5q0 34 23.5 57.5t58.5 23.5q32 0 54.5 -23.5t22.5 -57.5q0 -32 -22.5 -55.5t-54.5 -23.5zM-148 535q-34 0 -57.5 23.5t-23.5 55.5q0 34 23.5 57.5t57.5 23.5q33 0 55.5 -23.5t22.5 -57.5q0 -32 -22.5 -55.5t-55.5 -23.5z" />
    <glyph glyph-name="uni030A" unicode="&#x30a;" 
d="M-161 528q-40 0 -68 27.5t-28 65.5q0 41 27.5 68.5t68.5 27.5q38 0 64.5 -28t26.5 -68q0 -38 -26.5 -65.5t-64.5 -27.5zM-162 574q18 0 30 13.5t12 33.5q0 22 -12 36t-30 14q-20 0 -32.5 -14t-12.5 -36q0 -20 13 -33.5t32 -13.5z" />
    <glyph glyph-name="uni030B" unicode="&#x30b;" 
d="M-419 516l-13 7l22 81q17 62 34 86t56 24q28 0 46 -14t20 -35q3 -28 -20 -49q-25 -22 -145 -100zM-236 516l-13 7l23 81q18 63 34.5 86.5t55.5 23.5q28 0 46 -14t20 -34q3 -26 -21 -50q-12 -12 -30 -25t-32.5 -22.5t-41 -26.5t-41.5 -26z" />
    <glyph glyph-name="uni030C" unicode="&#x30c;" 
d="M-83 706l13 -13q-19 -43 -65 -101q-51 -66 -74 -66q-22 0 -74 66t-67 102l13 13l132 -63q42 20 122 62z" />
    <glyph glyph-name="uni030F" unicode="&#x30f;" 
d="M-266 516q-15 9 -41.5 26t-41 26.5t-32.5 22.5t-30 25q-24 24 -21 50q2 20 20 34t46 14q39 0 55.5 -23.5t34.5 -86.5l23 -81zM-83 516q-120 78 -145 100q-23 21 -20 49q2 21 20 35t46 14q39 0 56 -24t34 -86l22 -81z" />
    <glyph glyph-name="uni0311" unicode="&#x311;" 
d="M-305 517l-17 3q-6 171 126 171t126 -171l-14 -3q-12 20 -20.5 29.5t-31 17t-60.5 7.5q-36 0 -59 -9t-31 -18t-19 -27z" />
    <glyph glyph-name="uni0312" unicode="&#x312;" 
d="M-144 532q-39 0 -61 23t-22 64q0 49 32.5 83t97.5 34q16 0 24 -1l3 -28q-37 2 -61.5 -10.5t-24.5 -34.5q0 -17 24 -17q27 0 43 -13.5t16 -34.5q0 -27 -18 -46t-53 -19z" />
    <glyph glyph-name="dotbelowcomb" unicode="&#x323;" 
d="M-156 -238q-38 0 -64.5 26t-26.5 61q0 39 26.5 65t64.5 26q36 0 61 -26t25 -65q0 -35 -25 -61t-61 -26z" />
    <glyph glyph-name="uni0326" unicode="&#x326;" 
d="M-227 -235q37 -2 61.5 10.5t24.5 34.5q0 17 -24 17q-27 0 -43 13.5t-16 34.5q0 27 18 46t53 19q39 0 61 -23t22 -64q0 -49 -32.5 -83t-97.5 -34q-16 0 -24 1z" />
    <glyph glyph-name="uni0327" unicode="&#x327;" 
d="M-179 -41q109 -17 109 -97q0 -46 -30.5 -74t-85.5 -28q-56 0 -83 30t-31 64l18 10l3 -3q3 -3 7 -6t10 -6.5t15.5 -5.5t20.5 -2q42 0 42 37q0 34 -60 46l45 79l37 3z" />
    <glyph glyph-name="uni0328" unicode="&#x328;" 
d="M-70 30v-30q-10 -3 -27.5 -7.5t-27 -7.5t-23 -7.5t-21.5 -9t-15.5 -11t-11 -15t-3.5 -18.5q0 -46 59 -46q28 0 53 17l10 -15q-27 -95 -129 -95q-52 0 -79.5 25t-27.5 62q0 48 36 78t96 37v23z" />
    <glyph glyph-name="uni0335" unicode="&#x335;" 
d="M-458 220v31h388v-31h-388z" />
    <glyph glyph-name="uni0336" unicode="&#x336;" 
d="M-841 220v31h771v-31h-771z" />
    <glyph glyph-name="uni0337" unicode="&#x337;" 
d="M-394 192l-22 26l324 260l22 -28z" />
    <glyph glyph-name="uni0338" unicode="&#x338;" 
d="M-585 -11l-28 23l519 632l26 -21z" />
    <glyph glyph-name="Wgrave" unicode="&#x1e80;" horiz-adv-x="973" 
d="M431 747q-53 14 -53 52q0 30 22.5 48.5t48.5 18.5q45 0 104 -59l96 -96l-13 -13q-112 24 -205 49zM755 648h211v-33q-31 -4 -38.5 -10.5t-20.5 -39.5l-213 -573h-40l-150 400l-172 -400h-40l-217 574q-13 34 -19 39.5t-35 9.5v33h301v-33q-39 -4 -46 -27.5t14 -80.5
l97 -275l91 230l-39 104q-12 33 -18.5 39t-35.5 10v33h301v-33q-39 -4 -46.5 -27.5t13.5 -80.5l90 -255l81 251q19 59 4 83t-73 29v33z" />
    <glyph glyph-name="wgrave" unicode="&#x1e81;" horiz-adv-x="708" 
d="M312 595q-41 29 -39 61q2 26 24 43t58 16q32 -1 51 -25t38 -85l27 -86l-13 -6q-91 43 -146 82zM589 457h169v-30q-21 -5 -28.5 -12t-21.5 -38l-175 -390h-30l-127 276l-154 -276h-30l-165 387q-15 35 -21.5 42t-29.5 11v30h275v-30q-26 -2 -30 -11t7 -36l68 -177l56 111
l-29 64q-15 33 -21 39t-22 10v30h262v-30q-23 -4 -26 -12t8 -35l68 -160l32 87q21 57 13 85.5t-48 34.5v30z" />
    <glyph glyph-name="Wacute" unicode="&#x1e82;" horiz-adv-x="973" 
d="M625 745q-59 -17 -191 -46l-13 13l94 94q65 65 104 65q31 0 52.5 -19t21.5 -47q0 -40 -68 -60zM755 648h211v-33q-31 -4 -38.5 -10.5t-20.5 -39.5l-213 -573h-40l-150 400l-172 -400h-40l-217 574q-13 34 -19 39.5t-35 9.5v33h301v-33q-39 -4 -46 -27.5t14 -80.5l97 -275
l91 230l-39 104q-12 33 -18.5 39t-35.5 10v33h301v-33q-39 -4 -46.5 -27.5t13.5 -80.5l90 -255l81 251q19 59 4 83t-73 29v33z" />
    <glyph glyph-name="wacute" unicode="&#x1e83;" horiz-adv-x="708" 
d="M505 602q-39 -27 -169 -86l-13 7l35 84q26 62 45.5 84.5t50.5 22.5q37 0 58.5 -18t21.5 -44q0 -30 -29 -50zM589 457h169v-30q-21 -5 -28.5 -12t-21.5 -38l-175 -390h-30l-127 276l-154 -276h-30l-165 387q-15 35 -21.5 42t-29.5 11v30h275v-30q-26 -2 -30 -11t7 -36
l68 -177l56 111l-29 64q-15 33 -21 39t-22 10v30h262v-30q-23 -4 -26 -12t8 -35l68 -160l32 87q21 57 13 85.5t-48 34.5v30z" />
    <glyph glyph-name="Wdieresis" unicode="&#x1e84;" horiz-adv-x="973" 
d="M416 701q-35 0 -59 23.5t-24 56.5q0 35 24 58.5t59 23.5q32 0 55 -24t23 -58q0 -32 -23 -56t-55 -24zM625 701q-35 0 -58.5 23.5t-23.5 56.5q0 35 23.5 58.5t58.5 23.5q33 0 55.5 -23.5t22.5 -58.5q0 -33 -22.5 -56.5t-55.5 -23.5zM755 648h211v-33q-31 -4 -38.5 -10.5
t-20.5 -39.5l-213 -573h-40l-150 400l-172 -400h-40l-217 574q-13 34 -19 39.5t-35 9.5v33h301v-33q-39 -4 -46 -27.5t14 -80.5l97 -275l91 230l-39 104q-12 33 -18.5 39t-35.5 10v33h301v-33q-39 -4 -46.5 -27.5t13.5 -80.5l90 -255l81 251q19 59 4 83t-73 29v33z" />
    <glyph glyph-name="wdieresis" unicode="&#x1e85;" horiz-adv-x="708" 
d="M290 535q-34 0 -58 23.5t-24 55.5q0 34 23.5 57.5t58.5 23.5q32 0 54.5 -23.5t22.5 -57.5q0 -32 -22.5 -55.5t-54.5 -23.5zM485 535q-34 0 -57.5 23.5t-23.5 55.5q0 34 23 57.5t58 23.5q33 0 55.5 -23.5t22.5 -57.5q0 -32 -22.5 -55.5t-55.5 -23.5zM589 457h169v-30
q-21 -5 -28.5 -12t-21.5 -38l-175 -390h-30l-127 276l-154 -276h-30l-165 387q-15 35 -21.5 42t-29.5 11v30h275v-30q-26 -2 -30 -11t7 -36l68 -177l56 111l-29 64q-15 33 -21 39t-22 10v30h262v-30q-23 -4 -26 -12t8 -35l68 -160l32 87q21 57 13 85.5t-48 34.5v30z" />
    <glyph glyph-name="uni1E9E" unicode="&#x1e9e;" horiz-adv-x="829" 
d="M606 413q106 -51 154.5 -102t48.5 -126q0 -98 -68 -148t-173 -50q-94 0 -164 17q-3 30 -3 79.5t2 64.5h28q27 -57 58 -86.5t78 -29.5q30 0 49 18t19 48q0 64 -51.5 111t-211.5 126l107 203q26 46 19.5 56.5t-61.5 10.5h-148v-523q0 -31 7.5 -37t50.5 -12v-33h-315v33
q44 6 51 12t7 37v484q0 31 -7 37t-51 12v33h710q-4 -12 -16 -33t-38 -64t-44 -74z" />
    <glyph glyph-name="uni1EA0" unicode="&#x1ea0;" horiz-adv-x="701" 
d="M624 82q11 -33 17 -39t36 -10v-33h-304v33q38 3 46.5 28t-8.5 80l-17 54h-215l-17 -50q-19 -59 -5 -83t69 -29v-33h-211v33q31 4 38.5 10.5t20.5 39.5l172 448q18 47 14 62t-34 22v33h214zM193 237l188 1l-90 287zM319 -60q36 0 61 -26t25 -65q0 -35 -25 -61t-61 -26
q-38 0 -64.5 26t-26.5 61q0 39 26.5 65t64.5 26z" />
    <glyph glyph-name="uni1EA1" unicode="&#x1ea1;" horiz-adv-x="547" 
d="M540 69l8 -15q-20 -30 -55.5 -48.5t-76.5 -18.5q-51 0 -80 20.5t-37 71.5q-27 -48 -59.5 -70t-83.5 -22q-67 0 -99.5 34t-32.5 83q0 21 5.5 38t19.5 31t25.5 23.5t37 20.5t41 16.5t50 17t50.5 17.5l43 15v53q0 93 -45 93q-48 0 -37 -129q-41 -6 -76 -5t-58 17.5t-23 46.5
q0 49 63 81t143 32q127 0 174 -37.5t47 -141.5v-157q0 -46 6 -59.5t23 -13.5q3 0 27 6zM260 87q20 0 36 17v17v122q-5 -2 -20 -9.5t-18.5 -9.5t-14 -8.5t-13 -11t-7.5 -12.5t-6 -17.5t-1 -22.5q0 -65 44 -65zM281 -60q36 0 61 -26t25 -65q0 -35 -25 -61t-61 -26
q-38 0 -64.5 26t-26.5 61q0 39 26.5 65t64.5 26z" />
    <glyph glyph-name="uni1EB8" unicode="&#x1eb8;" horiz-adv-x="628" 
d="M567 217h30q-7 -133 -23 -217h-542v33q44 6 51 12t7 37v484q0 31 -7 37t-51 12v33h536q9 -88 0 -199h-28q-34 90 -75.5 123t-117.5 33h-58v-259h40q52 1 73 17.5t41 71.5h29q5 -118 0 -230h-28q-22 62 -42.5 80t-72.5 18h-40v-211q0 -32 9.5 -40.5t52.5 -8.5h34
q61 0 100.5 38.5t81.5 135.5zM340 -60q36 0 61 -26t25 -65q0 -35 -25 -61t-61 -26q-38 0 -64.5 26t-26.5 61q0 39 26.5 65t64.5 26z" />
    <glyph glyph-name="uni1EB9" unicode="&#x1eb9;" horiz-adv-x="474" 
d="M446 160l15 -15q-1 -6 -3.5 -17t-16.5 -38t-34.5 -48t-60 -38t-90.5 -17q-102 0 -166 59.5t-64 176.5q0 123 66.5 186t170.5 63q105 0 149.5 -46.5t44.5 -139.5l-17 -17h-241q4 -148 137 -148q34 0 61.5 9.5t38.5 19.5zM246 429q-23 0 -34 -28t-13 -93h89q1 71 -8.5 96
t-33.5 25zM270 -60q36 0 61 -26t25 -65q0 -35 -25 -61t-61 -26q-38 0 -64.5 26t-26.5 61q0 39 26.5 65t64.5 26z" />
    <glyph glyph-name="uni1ECA" unicode="&#x1eca;" horiz-adv-x="379" 
d="M32 0v33q44 6 51 12t7 37v484q0 31 -7 37t-51 12v33h315v-33q-43 -6 -50.5 -12t-7.5 -37v-484q0 -31 7.5 -37t50.5 -12v-33h-315zM192 -238q-38 0 -64.5 26t-26.5 61q0 39 26.5 65t64.5 26q36 0 61 -26t25 -65q0 -35 -25 -61t-61 -26z" />
    <glyph glyph-name="uni1ECB" unicode="&#x1ecb;" horiz-adv-x="298" 
d="M163 528q-38 0 -64.5 26t-26.5 61q0 39 26.5 65t64.5 26q36 0 61 -26t25 -65q0 -35 -25 -61t-61 -26zM26 0v30q27 6 31.5 12t4.5 37v233q0 50 -5.5 62.5t-39.5 35.5v16q134 37 241 45q-8 -80 -8 -125v-267q0 -31 4.5 -37t31.5 -12v-30h-260zM159 -238q-38 0 -64.5 26
t-26.5 61q0 39 26.5 65t64.5 26q36 0 61 -26t25 -65q0 -35 -25 -61t-61 -26z" />
    <glyph glyph-name="uni1ECC" unicode="&#x1ecc;" horiz-adv-x="725" 
d="M363 656q337 0 337 -322q0 -169 -87 -258t-250 -89q-166 0 -252 82t-86 245q0 166 87.5 254t250.5 88zM356 611q-35 0 -58 -20.5t-33.5 -62t-14 -84.5t-3.5 -106q0 -306 125 -306q24 0 41.5 10.5t29 31t19 44.5t11 59t4.5 64.5t1 70.5q0 69 -5.5 120t-19 93t-38 64
t-59.5 22zM391 -238q-38 0 -64.5 26t-26.5 61q0 39 26.5 65t64.5 26q36 0 61 -26t25 -65q0 -35 -25 -61t-61 -26z" />
    <glyph glyph-name="uni1ECD" unicode="&#x1ecd;" horiz-adv-x="561" 
d="M278 -13q-122 0 -187 53t-65 183q0 126 68.5 187t191.5 61q125 0 187 -50.5t62 -183.5q0 -123 -65.5 -186.5t-191.5 -63.5zM283 30q22 0 32.5 14t15 53.5t4.5 122.5q0 113 -12.5 160.5t-43.5 47.5q-22 0 -32.5 -14.5t-15.5 -55t-5 -124.5q0 -108 12.5 -156t44.5 -48z
M283 -238q-38 0 -64.5 26t-26.5 61q0 39 26.5 65t64.5 26q36 0 61 -26t25 -65q0 -35 -25 -61t-61 -26z" />
    <glyph glyph-name="uni1EE4" unicode="&#x1ee4;" horiz-adv-x="673" 
d="M352 -13q-143 0 -210.5 61t-67.5 184v334q0 31 -6.5 37t-45.5 12v33h304v-33q-40 -6 -46.5 -12t-6.5 -37v-256q0 -70 4.5 -114.5t18 -83.5t41 -57t70.5 -18q75 0 114 58t39 190q0 116 -9 225q-5 55 -22 77.5t-64 27.5v33h201v-33q-20 -2 -27 -4t-14 -12t-9 -26t-4 -52
q-4 -73 -4 -242q0 -155 -61.5 -223.5t-194.5 -68.5zM360 -238q-38 0 -64.5 26t-26.5 61q0 39 26.5 65t64.5 26q36 0 61 -26t25 -65q0 -35 -25 -61t-61 -26z" />
    <glyph glyph-name="uni1EE5" unicode="&#x1ee5;" horiz-adv-x="584" 
d="M527 127q0 -50 5.5 -62.5t39.5 -35.5v-16q-21 -5 -106.5 -13t-126.5 -8l12 95l-7 5q-64 -105 -169 -105q-52 0 -88.5 33.5t-36.5 95.5v196q0 50 -5.5 62.5t-39.5 35.5v16q134 37 241 45q-8 -80 -8 -125v-148q0 -54 11.5 -78.5t38.5 -24.5t51 18v199q0 50 -5.5 62.5
t-39.5 35.5v16q134 37 241 45q-8 -80 -8 -125v-219zM317 -60q36 0 61 -26t25 -65q0 -35 -25 -61t-61 -26q-38 0 -64.5 26t-26.5 61q0 39 26.5 65t64.5 26z" />
    <glyph glyph-name="Ygrave" unicode="&#x1ef2;" horiz-adv-x="667" 
d="M252 747q-53 14 -53 52q0 30 22.5 48.5t48.5 18.5q45 0 104 -59l96 -96l-13 -13q-112 24 -205 49zM437 648h211v-33q-25 -3 -34.5 -10.5t-27.5 -39.5l-153 -271v-212q0 -31 7.5 -37t50.5 -12v-33h-315v33q44 6 51 12t7 37v199l-151 285q-16 31 -25 38.5t-33 10.5v33h304
v-33q-41 -4 -45.5 -22.5t27.5 -80.5l94 -179l89 172q27 55 12 80t-69 30v33z" />
    <glyph glyph-name="ygrave" unicode="&#x1ef3;" horiz-adv-x="434" 
d="M160 595q-41 29 -39 61q2 26 24 43t58 16q32 -1 51 -25t38 -85l27 -86l-13 -6q-91 43 -146 82zM311 457h167v-30q-18 -4 -25 -11.5t-19 -38.5l-168 -411q-53 -131 -76 -164q-24 -33 -46 -34q-40 0 -79.5 44t-42.5 81l11 12q133 0 151 7q12 5 21 25l1 1l-189 440
q-13 30 -20 37t-28 12v30h273v-30q-25 -4 -28 -12.5t8 -34.5l86 -214l42 141q17 63 7.5 89t-46.5 31v30z" />
    <glyph glyph-name="uni1EF8" unicode="&#x1ef8;" horiz-adv-x="667" 
d="M188 701l-13 3q-2 55 22 101.5t76 46.5q26 0 78 -22.5t75 -22.5q25 0 41 12t32 37l13 -5q5 -53 -20.5 -101.5t-80.5 -48.5q-35 0 -85.5 23.5t-65.5 23.5q-40 0 -72 -47zM437 648h211v-33q-25 -3 -34.5 -10.5t-27.5 -39.5l-153 -271v-212q0 -31 7.5 -37t50.5 -12v-33h-315
v33q44 6 51 12t7 37v199l-151 285q-16 31 -25 38.5t-33 10.5v33h304v-33q-41 -4 -45.5 -22.5t27.5 -80.5l94 -179l89 172q27 55 12 80t-69 30v33z" />
    <glyph glyph-name="uni1EF9" unicode="&#x1ef9;" horiz-adv-x="434" 
d="M79 543l-13 3q-2 33 6 65t32 57.5t59 25.5q27 0 79 -22.5t75 -22.5q42 0 73 48l13 -4q5 -53 -21 -101.5t-81 -48.5q-35 0 -85 23.5t-66 23.5q-40 0 -71 -47zM311 457h167v-30q-18 -4 -25 -11.5t-19 -38.5l-168 -411q-53 -131 -76 -164q-24 -33 -46 -34q-40 0 -79.5 44
t-42.5 81l11 12q133 0 151 7q12 5 21 25l1 1l-189 440q-13 30 -20 37t-28 12v30h273v-30q-25 -4 -28 -12.5t8 -34.5l86 -214l42 141q17 63 7.5 89t-46.5 31v30z" />
    <glyph glyph-name="uni2000" unicode="&#x2000;" horiz-adv-x="420" 
 />
    <glyph glyph-name="uni2001" unicode="&#x2001;" horiz-adv-x="840" 
 />
    <glyph glyph-name="uni2002" unicode="&#x2002;" horiz-adv-x="420" 
 />
    <glyph glyph-name="uni2003" unicode="&#x2003;" horiz-adv-x="840" 
 />
    <glyph glyph-name="uni2004" unicode="&#x2004;" horiz-adv-x="280" 
 />
    <glyph glyph-name="uni2005" unicode="&#x2005;" horiz-adv-x="210" 
 />
    <glyph glyph-name="uni2006" unicode="&#x2006;" horiz-adv-x="140" 
 />
    <glyph glyph-name="uni2007" unicode="&#x2007;" horiz-adv-x="600" 
 />
    <glyph glyph-name="uni2008" unicode="&#x2008;" horiz-adv-x="245" 
 />
    <glyph glyph-name="uni2009" unicode="&#x2009;" horiz-adv-x="168" 
 />
    <glyph glyph-name="uni200A" unicode="&#x200a;" horiz-adv-x="84" 
 />
    <glyph glyph-name="uni200B" unicode="&#x200b;" 
 />
    <glyph glyph-name="endash" unicode="&#x2013;" horiz-adv-x="604" 
d="M52 222v65h501v-65h-501z" />
    <glyph glyph-name="emdash" unicode="&#x2014;" horiz-adv-x="777" 
d="M52 222v65h674v-65h-674z" />
    <glyph glyph-name="quoteleft" unicode="&#x2018;" horiz-adv-x="233" 
d="M199 745l11 -27q-50 -17 -73.5 -34t-23.5 -47t32 -30q68 0 68 -66q0 -32 -22.5 -54t-64.5 -22q-44 0 -73 27t-29 82q0 71 45.5 116t129.5 55z" />
    <glyph glyph-name="quoteright" unicode="&#x2019;" horiz-adv-x="233" 
d="M38 443l-11 27q50 17 73.5 34t23.5 47t-32 30q-68 0 -68 66q0 32 22.5 54t64.5 22q44 0 73 -27t29 -82q0 -71 -45.5 -116t-129.5 -55z" />
    <glyph glyph-name="quotesinglbase" unicode="&#x201a;" horiz-adv-x="233" 
d="M38 -122l-11 27q50 17 73.5 34t23.5 47t-32 30q-68 0 -68 66q0 32 22.5 54t64.5 22q44 0 73 -27t29 -82q0 -71 -45.5 -116t-129.5 -55z" />
    <glyph glyph-name="quotedblleft" unicode="&#x201c;" horiz-adv-x="458" 
d="M126 465q-44 0 -73 27t-29 82q0 71 45.5 116t129.5 55l11 -27q-50 -17 -73.5 -34t-23.5 -47t32 -30q68 0 68 -66q0 -32 -22.5 -54t-64.5 -22zM351 465q-44 0 -73 27t-29 82q0 71 45.5 116t129.5 55l11 -27q-50 -17 -73.5 -34t-23.5 -47t32 -30q68 0 68 -66
q0 -32 -22.5 -54t-64.5 -22z" />
    <glyph glyph-name="quotedblright" unicode="&#x201d;" horiz-adv-x="458" 
d="M38 443l-11 27q50 17 73.5 34t23.5 47t-32 30q-68 0 -68 66q0 32 22.5 54t64.5 22q44 0 73 -27t29 -82q0 -71 -45.5 -116t-129.5 -55zM263 443l-11 27q50 17 73.5 34t23.5 47t-32 30q-68 0 -68 66q0 32 22.5 54t64.5 22q44 0 73 -27t29 -82q0 -71 -45.5 -116t-129.5 -55z
" />
    <glyph glyph-name="quotedblbase" unicode="&#x201e;" horiz-adv-x="458" 
d="M38 -122l-11 27q50 17 73.5 34t23.5 47t-32 30q-68 0 -68 66q0 32 22.5 54t64.5 22q44 0 73 -27t29 -82q0 -71 -45.5 -116t-129.5 -55zM263 -122l-11 27q50 17 73.5 34t23.5 47t-32 30q-68 0 -68 66q0 32 22.5 54t64.5 22q44 0 73 -27t29 -82q0 -71 -45.5 -116
t-129.5 -55z" />
    <glyph glyph-name="dagger" unicode="&#x2020;" horiz-adv-x="428" 
d="M337 504q32 0 51.5 -20.5t19.5 -51.5t-19.5 -52.5t-51.5 -21.5q-20 0 -50.5 27t-57.5 32q3 -23 13.5 -57t19.5 -56l9 -23l-39 -291q-4 -3 -19 -3q-13 0 -18 3l-38 291q36 84 42 136q-27 -5 -57.5 -32t-50.5 -27q-32 0 -51.5 21.5t-19.5 52.5t19.5 51.5t51.5 20.5
q19 0 50 -27t58 -32q-4 36 -30 75.5t-26 62.5q0 31 21 52t51 21q29 0 49.5 -21t20.5 -52q0 -24 -26 -63t-30 -75q27 5 58 32t50 27z" />
    <glyph glyph-name="daggerdbl" unicode="&#x2021;" horiz-adv-x="428" 
d="M337 285q32 0 51.5 -21.5t19.5 -52.5t-19.5 -51.5t-51.5 -20.5q-19 0 -50 27t-58 32q4 -36 30 -75t26 -63q0 -31 -20.5 -52t-49.5 -21q-30 0 -51 21t-21 52q0 23 26 62.5t30 75.5q-27 -5 -58 -32t-50 -27q-32 0 -51.5 20.5t-19.5 51.5t19.5 52.5t51.5 21.5q19 0 50 -27
t58 -32q-3 20 -13.5 44t-19.5 38l-9 14q36 49 42 95q-27 -5 -58 -32t-50 -27q-32 0 -51.5 21.5t-19.5 52.5t19.5 51.5t51.5 20.5q19 0 50 -27t58 -32q-4 36 -30 75.5t-26 62.5q0 31 21 52t51 21q29 0 49.5 -21t20.5 -52q0 -24 -26 -63t-30 -75q27 5 58 32t50 27
q32 0 51.5 -20.5t19.5 -51.5t-19.5 -52.5t-51.5 -21.5q-19 0 -50 27t-58 32q3 -20 13.5 -44t19.5 -37l9 -14q-36 -50 -42 -96q27 5 58 32t50 27z" />
    <glyph glyph-name="bullet" unicode="&#x2022;" horiz-adv-x="248" 
d="M127 199q-47 0 -79.5 34t-32.5 80q0 50 32.5 84t79.5 34q45 0 76 -34t31 -84q0 -46 -31 -80t-76 -34z" />
    <glyph glyph-name="ellipsis" unicode="&#x2026;" horiz-adv-x="728" 
d="M124 -12q-38 0 -64.5 24.5t-26.5 58.5q0 37 26 61.5t65 24.5q36 0 61 -24.5t25 -61.5q0 -33 -25 -58t-61 -25zM366 -12q-38 0 -64.5 25t-26.5 58q0 37 26.5 61.5t64.5 24.5q37 0 62 -24.5t25 -61.5q0 -33 -25.5 -58t-61.5 -25zM609 -12q-38 0 -64.5 24.5t-26.5 58.5
q0 37 26 61.5t65 24.5q36 0 61 -24.5t25 -61.5q0 -33 -25 -58t-61 -25z" />
    <glyph glyph-name="uni202F" unicode="&#x202f;" horiz-adv-x="168" 
 />
    <glyph glyph-name="perthousand" unicode="&#x2030;" horiz-adv-x="1087" 
d="M134 -14l-32 25l476 645l32 -24zM189 344q-79 0 -121.5 33.5t-42.5 112.5q0 165 169 165q80 0 120.5 -31.5t40.5 -112.5q0 -83 -47.5 -125t-118.5 -42zM197 373q18 0 24.5 27t6.5 98q0 76 -8.5 101.5t-30.5 25.5q-21 0 -28.5 -26t-7.5 -94q0 -75 10.5 -103.5t33.5 -28.5z
M521 -14q-78 0 -121 33.5t-43 112.5q0 165 169 165q80 0 120.5 -31.5t40.5 -113.5q0 -83 -47.5 -124.5t-118.5 -41.5zM895 -14q-78 0 -121 33.5t-43 112.5q0 165 169 165q81 0 121.5 -31.5t40.5 -113.5q0 -83 -47.5 -124.5t-119.5 -41.5zM529 15q18 0 24.5 27t6.5 97
q0 77 -8.5 102.5t-30.5 25.5q-21 0 -28.5 -26t-7.5 -94q0 -75 10.5 -103.5t33.5 -28.5zM903 15q18 0 24.5 27t6.5 97q0 77 -8.5 102.5t-30.5 25.5q-21 0 -28.5 -26t-7.5 -94q0 -75 10.5 -103.5t33.5 -28.5z" />
    <glyph glyph-name="minute" unicode="&#x2032;" horiz-adv-x="232" 
d="M220 723l2 -19l-127 -277h-67l74 296h118z" />
    <glyph glyph-name="second" unicode="&#x2033;" horiz-adv-x="425" 
d="M220 723l2 -19l-127 -277h-67l74 296h118zM413 723l2 -19l-127 -277h-67l74 296h118z" />
    <glyph glyph-name="guilsinglleft" unicode="&#x2039;" horiz-adv-x="280" 
d="M260 453q-52 -138 -74 -208q9 -29 73 -193l-13 -13q-55 39 -124 105.5t-94 100.5v13q31 39 100 106t119 102z" />
    <glyph glyph-name="guilsinglright" unicode="&#x203a;" horiz-adv-x="283" 
d="M33 466q50 -35 119 -102t100 -106v-13q-25 -34 -94 -100.5t-123 -105.5l-13 13q58 149 72 193q-22 70 -74 208z" />
    <glyph glyph-name="fraction" unicode="&#x2044;" horiz-adv-x="172" 
d="M-125 0l353 648h69l-352 -648h-70z" />
    <glyph glyph-name="colonmonetary" unicode="&#x20a1;" horiz-adv-x="625" 
d="M601 217q0 -114 -23 -196q-59 -16 -151 -20l-4 -56h-29l4 55h-21q-25 0 -38 1l-4 -56h-29l5 59q-60 7 -108.5 26.5t-90 55t-64.5 95t-23 138.5q0 154 90 240.5t247 88.5l4 49h29l-4 -49q40 -2 59 -4l4 53h29l-5 -57q59 -9 101 -28q7 -79 0 -177h-28q-34 95 -78 135
l-42 -523q78 17 140 170h30zM345 65q26 -17 57 -20l43 544q-23 12 -58 14zM247 338q0 -169 71 -249l40 512q-111 -23 -111 -263z" />
    <glyph glyph-name="franc" unicode="&#x20a3;" horiz-adv-x="435" 
d="M421 490q7 -63 0 -160h-23q-32 71 -64 97t-88 26h-4v-172q39 1 55 13t34 54h25q3 -103 0 -182h-24q-20 48 -36 62t-54 15v-92h76v-29h-76v-64q0 -18 7 -22t47 -8v-28h-282v28q30 4 35 8t5 22v64h-56v29h56v281q0 18 -5 21.5t-35 8.5v28h407z" />
    <glyph glyph-name="lira" unicode="&#x20a4;" horiz-adv-x="457" 
d="M413 204h24l-30 -204h-389l-2 11l37 61q19 32 26 53.5t9 64.5h-63v19l63 9q1 10 1 34h-64v19l64 9v43q0 88 55.5 134t154.5 46q62 0 99.5 -20t37.5 -57q0 -76 -132 -76q3 51 1 77.5t-6 34.5t-14 8q-14 0 -17.5 -14t-2.5 -53q2 -91 -4 -122h86v-29h-95q-7 -16 -27 -34h122
v-28h-164q-15 -9 -33 -18l-1 -11h176q44 0 55.5 5t32.5 38z" />
    <glyph glyph-name="peseta" unicode="&#x20a7;" horiz-adv-x="515" 
d="M565 350v-29h-49q-8 -77 -60.5 -110t-127.5 -33h-81v-120q0 -18 6.5 -22t47.5 -8v-28h-282v28q30 4 35 8t5 22v263h-52v29h52v82q0 18 -5 21.5t-35 8.5v28h276q129 0 176 -28.5t47 -111.5h47zM247 453v-103h76q-1 53 -16 78t-53 25h-7zM263 215q30 0 44 25.5t16 80.5h-76
v-106h16z" />
    <glyph glyph-name="Euro" unicode="&#x20ac;" horiz-adv-x="485" 
d="M464 162q2 -74 -19 -152q-47 -10 -149 -10q-45 0 -84 10t-75 32.5t-59.5 66t-28.5 104.5h-52v29h51v5q0 24 1 36h-52v29h56q15 92 75.5 141.5t163.5 49.5q104 0 155 -21q6 -61 0 -147h-23q-28 73 -53.5 101.5t-64.5 28.5q-36 0 -51 -40t-18 -113h137v-29h-138v-22v-19
h138v-29h-136q5 -76 27.5 -123.5t61.5 -47.5q24 0 47.5 21.5t35 41.5t30.5 57h24z" />
    <glyph glyph-name="uni2113" unicode="&#x2113;" horiz-adv-x="481" 
d="M436 165l28 -11q-14 -83 -66.5 -125t-134.5 -42q-97 0 -143 49t-46 163v25q-12 -5 -34.5 -13.5t-30.5 -11.5l-11 31l76 31v133q0 254 226 254q145 0 145 -109q0 -121 -174 -224v-77q-1 -92 16 -122.5t55 -30.5q35 0 59.5 24.5t34.5 55.5zM272 479v-118q95 69 95 168
q0 81 -48 81q-28 0 -37.5 -25.5t-9.5 -105.5z" />
    <glyph glyph-name="uni2116" unicode="&#x2116;" horiz-adv-x="1052" 
d="M866 302q-86 0 -132 38t-46 131q0 91 48.5 134.5t135.5 43.5q88 0 132 -36t44 -131q0 -88 -47 -134t-135 -46zM446 605v33h206v-33q-23 -2 -31 -3.5t-16 -12t-10 -26.5t-4 -52q-4 -60 -6 -306l-2 -214h-30l-419 401v-25q0 -158 6 -229q5 -55 22 -77.5t64 -27.5v-33h-206
v33q23 2 31 3.5t16 12t10 26.5t4 52q8 122 8 288v72q0 68 -9 87.5t-43 30.5v33h138l364 -352v42q0 88 -7 172q-5 55 -22 77.5t-64 27.5zM867 620q-24 0 -32.5 -27t-8.5 -114q0 -78 10 -113t34 -35t32 26.5t8 112.5q0 81 -10 115.5t-33 34.5zM727 208v42h295v-42h-295z" />
    <glyph glyph-name="trademark" unicode="&#x2122;" horiz-adv-x="644" 
d="M14 651h245q6 -38 4 -94h-17q-26 47 -36 59t-24 12h-9v-225q0 -15 3.5 -18t22.5 -6v-18h-134v18q19 3 22.5 6t3.5 18v225h-8q-19 0 -29 -11.5t-32 -59.5h-16q0 69 4 94zM614 408q1 -18 4.5 -22t20.5 -7v-18h-128v18q15 2 18 6t2 20l-16 154l-82 -199h-14l-68 192l-1 -6
q-11 -82 -14 -126q-2 -21 4.5 -30t25.5 -11v-18h-92v18q15 2 21.5 9t10.5 30q13 75 19 125l4 33q7 56 -26 56v19h98l57 -171l60 171h101v-19q-20 -2 -23 -8t-1 -32z" />
    <glyph glyph-name="uni2150" unicode="&#x2150;" horiz-adv-x="739" 
d="M14 259v20q40 4 46.5 10.5t6.5 42.5v199q0 41 -8.5 53t-47.5 26v11q109 25 178 29q-3 -54 -3 -76v-242q0 -36 6.5 -42.5t44.5 -10.5v-20h-223zM137 0l353 648h69l-352 -648h-70zM669 292h-122q-26 0 -37 -7.5t-26 -33.5h-17l21 138h244l2 -18l-142 -376l-61 1v20l138 268
v8z" />
    <glyph glyph-name="uni2151" unicode="&#x2151;" horiz-adv-x="765" 
d="M14 279q40 4 46.5 10.5t6.5 42.5v199q0 41 -8.5 53t-47.5 26v11q109 25 178 29q-3 -54 -3 -76v-242q0 -36 6.5 -42.5t44.5 -10.5v-20h-223v20zM490 648h69l-352 -648h-70zM601 394q151 0 151 -166q-1 -102 -70 -168.5t-193 -67.5l-6 22q123 24 149 158l-4 1
q-29 -31 -77 -31q-46 0 -74.5 30t-28.5 83q0 67 40.5 103t112.5 36zM615 188q10 0 20 4q3 24 3 49q1 127 -44 127q-32 0 -32 -78q0 -48 15 -75t38 -27z" />
    <glyph glyph-name="uni2152" unicode="&#x2152;" horiz-adv-x="1050" 
d="M14 259v20q40 4 46.5 10.5t6.5 42.5v199q0 41 -8.5 53t-47.5 26v11q109 25 178 29q-3 -54 -3 -76v-242q0 -36 6.5 -42.5t44.5 -10.5v-20h-223zM137 0l353 648h69l-352 -648h-70zM875 -8q-90 0 -125 43.5t-35 150.5q0 108 36.5 158t125.5 50q84 0 119 -45t35 -145
q0 -113 -36 -162.5t-120 -49.5zM463 0v20q40 4 46.5 10.5t6.5 42.5v199q0 41 -8.5 52.5t-47.5 25.5v12q109 25 178 29q-3 -54 -3 -77v-241q0 -36 6.5 -42.5t44.5 -10.5v-20h-223zM876 18q21 0 27.5 33t6.5 143q0 103 -8 138.5t-29 35.5q-23 0 -29.5 -33.5t-6.5 -140.5
q0 -108 8 -142t31 -34z" />
    <glyph glyph-name="uni2153" unicode="&#x2153;" horiz-adv-x="738" 
d="M14 259v20q40 4 46.5 10.5t6.5 42.5v199q0 41 -8.5 53t-47.5 26v11q109 25 178 29q-3 -54 -3 -76v-242q0 -36 6.5 -42.5t44.5 -10.5v-20h-223zM137 0l353 648h69l-352 -648h-70zM569 -8q-127 0 -127 74q0 25 26 38.5t67 11.5q-3 -48 5.5 -73t36.5 -25q42 0 42 63
q0 105 -107 102l-4 17q93 19 93 72q0 21 -17 35.5t-45 14.5q-21 0 -38.5 -9t-24.5 -19l-7 -9l-11 5q29 104 137 104q53 0 83.5 -22.5t30.5 -62.5q0 -70 -91 -89v-8q108 -11 108 -102q0 -54 -39 -86t-118 -32z" />
    <glyph glyph-name="uni2154" unicode="&#x2154;" horiz-adv-x="773" 
d="M9 259l-1 9l55 64q47 56 71 98.5t24 84.5q0 31 -16 47t-43 16q-20 0 -36.5 -11t-22.5 -22l-7 -11l-12 3q7 50 40.5 83t94.5 33q51 0 80.5 -26.5t29.5 -72.5q0 -58 -39.5 -102t-114.5 -88l-1 -8h90q28 0 39.5 6.5t26.5 34.5h17l-21 -138h-254zM172 0l353 648h69l-352 -648
h-70zM604 -8q-127 0 -127 74q0 25 26 38.5t67 11.5q-3 -48 5.5 -73t36.5 -25q42 0 42 63q0 105 -107 102l-4 17q93 19 93 72q0 21 -17 35.5t-45 14.5q-21 0 -38.5 -9t-24.5 -19l-7 -9l-11 5q29 104 137 104q53 0 83.5 -22.5t30.5 -62.5q0 -70 -91 -89v-8q108 -11 108 -102
q0 -54 -39 -86t-118 -32z" />
    <glyph glyph-name="uni2155" unicode="&#x2155;" horiz-adv-x="745" 
d="M14 279q40 4 46.5 10.5t6.5 42.5v199q0 41 -8.5 53t-47.5 26v11q109 25 178 29q-3 -54 -3 -76v-242q0 -36 6.5 -42.5t44.5 -10.5v-20h-223v20zM490 648h69l-352 -648h-70zM507 254q116 5 167 -24t51 -103q0 -135 -154 -135q-62 0 -96 20.5t-34 53.5q0 25 26 38.5t68 11.5
q-4 -48 5.5 -73t43.5 -25q23 0 34 16t11 40q0 92 -166 83l42 232h205l5 -5l-14 -92h-186z" />
    <glyph glyph-name="uni2156" unicode="&#x2156;" horiz-adv-x="780" 
d="M284 397l-21 -138h-254l-1 9l55 64q47 56 71 98.5t24 84.5q0 31 -16 47t-43 16q-20 0 -36.5 -11t-22.5 -22l-7 -11l-12 3q7 50 40.5 83t94.5 33q51 0 80.5 -26.5t29.5 -72.5q0 -58 -39.5 -102t-114.5 -88l-1 -8h90q28 0 39.5 6.5t26.5 34.5h17zM525 648h69l-352 -648h-70
zM542 254q116 5 167 -24t51 -103q0 -135 -154 -135q-62 0 -96 20.5t-34 53.5q0 25 26 38.5t68 11.5q-4 -48 5.5 -73t43.5 -25q23 0 34 16t11 40q0 92 -166 83l42 232h205l5 -5l-14 -92h-186z" />
    <glyph glyph-name="uni2157" unicode="&#x2157;" horiz-adv-x="787" 
d="M292 370q0 -55 -39 -87t-118 -32q-65 0 -96 20t-31 54q0 25 26 39t67 11q-3 -48 5.5 -73t36.5 -25q42 0 42 63q0 105 -107 102l-4 17q93 19 93 73q0 21 -17 35t-45 14q-21 0 -38.5 -9.5t-24.5 -18.5l-7 -9l-11 5q29 104 137 104q53 0 83.5 -22.5t30.5 -62.5
q0 -70 -91 -89v-8q108 -11 108 -101zM532 648h69l-352 -648h-70zM549 254q116 5 167 -24t51 -103q0 -135 -154 -135q-62 0 -96 20.5t-34 53.5q0 25 26 38.5t68 11.5q-4 -48 5.5 -73t43.5 -25q23 0 34 16t11 40q0 92 -166 83l42 232h205l5 -5l-14 -92h-186z" />
    <glyph glyph-name="uni2158" unicode="&#x2158;" horiz-adv-x="835" 
d="M97 279q38 4 44.5 10.5t6.5 42.5v11h-147l-4 8l177 297h96q-3 -25 -3 -52v-227h53l4 -5l-9 -21h-48v-11q0 -36 6 -42.5t43 -10.5v-20h-219v20zM580 648h69l-352 -648h-70zM44 369h104v186l-104 -179v-7zM597 254q116 5 167 -24t51 -103q0 -135 -154 -135q-62 0 -96 20.5
t-34 53.5q0 25 26 38.5t68 11.5q-4 -48 5.5 -73t43.5 -25q23 0 34 16t11 40q0 92 -166 83l42 232h205l5 -5l-14 -92h-186z" />
    <glyph glyph-name="uni2159" unicode="&#x2159;" horiz-adv-x="765" 
d="M14 279q40 4 46.5 10.5t6.5 42.5v199q0 41 -8.5 53t-47.5 26v11q109 25 178 29q-3 -54 -3 -76v-242q0 -36 6.5 -42.5t44.5 -10.5v-20h-223v20zM490 648h69l-352 -648h-70zM647 244q47 0 75.5 -30t28.5 -83q0 -67 -40.5 -103t-112.5 -36q-152 0 -151 166q1 101 70 168
t192 68l6 -23q-122 -24 -148 -157l4 -2q27 32 76 32zM604 18q33 0 33 78q0 48 -15.5 74.5t-38.5 26.5q-8 0 -20 -4q-3 -23 -3 -48q-1 -127 44 -127z" />
    <glyph glyph-name="uni215A" unicode="&#x215a;" horiz-adv-x="814" 
d="M291 386q0 -135 -154 -135q-62 0 -96 20.5t-34 53.5q0 25 26.5 39t67.5 11q-4 -48 5.5 -73t43.5 -25q23 0 34 16t11 40q0 92 -166 83l42 232h205l5 -5l-14 -92h-186l-8 -38q116 5 167 -24t51 -103zM539 648h69l-352 -648h-70zM696 244q47 0 75.5 -30t28.5 -83
q0 -67 -40.5 -103t-112.5 -36q-152 0 -151 166q1 101 70 168t192 68l6 -23q-122 -24 -148 -157l4 -2q27 32 76 32zM653 18q33 0 33 78q0 48 -15.5 74.5t-38.5 26.5q-8 0 -20 -4q-3 -23 -3 -48q-1 -127 44 -127z" />
    <glyph glyph-name="oneeighth" unicode="&#x215b;" horiz-adv-x="761" 
d="M14 279q40 4 46.5 10.5t6.5 42.5v199q0 41 -8.5 53t-47.5 26v11q109 25 178 29q-3 -54 -3 -76v-242q0 -36 6.5 -42.5t44.5 -10.5v-20h-223v20zM490 648h69l-352 -648h-70zM658 228q41 -28 64 -55.5t23 -66.5q0 -59 -40 -86.5t-104 -27.5q-150 0 -150 88q0 60 88 79v7
q-39 28 -61.5 55t-22.5 63q0 110 143 110q139 0 139 -83q0 -63 -79 -77v-6zM594 368q-16 0 -25.5 -10t-9.5 -27q0 -24 17.5 -42.5t51.5 -41.5q7 25 7 61q0 60 -41 60zM603 18q38 0 38 46q0 23 -19.5 41.5t-58.5 44.5q-10 -32 -10 -67q0 -29 13 -47t37 -18z" />
    <glyph glyph-name="threeeighths" unicode="&#x215c;" horiz-adv-x="803" 
d="M292 370q0 -55 -39 -87t-118 -32q-65 0 -96 20t-31 54q0 25 26 39t67 11q-3 -48 5.5 -73t36.5 -25q42 0 42 63q0 105 -107 102l-4 17q93 19 93 73q0 21 -17 35t-45 14q-21 0 -38.5 -9.5t-24.5 -18.5l-7 -9l-11 5q29 104 137 104q53 0 83.5 -22.5t30.5 -62.5
q0 -70 -91 -89v-8q108 -11 108 -101zM532 648h69l-352 -648h-70zM700 228q41 -28 64 -55.5t23 -66.5q0 -59 -40 -86.5t-104 -27.5q-150 0 -150 88q0 60 88 79v7q-39 28 -61.5 55t-22.5 63q0 110 143 110q139 0 139 -83q0 -63 -79 -77v-6zM636 368q-16 0 -25.5 -10t-9.5 -27
q0 -24 17.5 -42.5t51.5 -41.5q7 25 7 61q0 60 -41 60zM645 18q38 0 38 46q0 23 -19.5 41.5t-58.5 44.5q-10 -32 -10 -67q0 -29 13 -47t37 -18z" />
    <glyph glyph-name="fiveeighths" unicode="&#x215d;" horiz-adv-x="810" 
d="M291 386q0 -135 -154 -135q-62 0 -96 20.5t-34 53.5q0 25 26.5 39t67.5 11q-4 -48 5.5 -73t43.5 -25q23 0 34 16t11 40q0 92 -166 83l42 232h205l5 -5l-14 -92h-186l-8 -38q116 5 167 -24t51 -103zM539 648h69l-352 -648h-70zM707 228q41 -28 64 -55.5t23 -66.5
q0 -59 -40 -86.5t-104 -27.5q-150 0 -150 88q0 60 88 79v7q-39 28 -61.5 55t-22.5 63q0 110 143 110q139 0 139 -83q0 -63 -79 -77v-6zM643 368q-16 0 -25.5 -10t-9.5 -27q0 -24 17.5 -42.5t51.5 -41.5q7 25 7 61q0 60 -41 60zM652 18q38 0 38 46q0 23 -19.5 41.5
t-58.5 44.5q-10 -32 -10 -67q0 -29 13 -47t37 -18z" />
    <glyph glyph-name="seveneighths" unicode="&#x215e;" horiz-adv-x="754" 
d="M268 648l2 -18l-142 -376l-61 1v20l138 269v7h-122q-26 0 -37 -7.5t-26 -33.5h-17l21 138h244zM483 648h69l-352 -648h-70zM651 228q41 -28 64 -55.5t23 -66.5q0 -59 -40 -86.5t-104 -27.5q-150 0 -150 88q0 60 88 79v7q-39 28 -61.5 55t-22.5 63q0 110 143 110
q139 0 139 -83q0 -63 -79 -77v-6zM587 368q-16 0 -25.5 -10t-9.5 -27q0 -24 17.5 -42.5t51.5 -41.5q7 25 7 61q0 60 -41 60zM596 18q38 0 38 46q0 23 -19.5 41.5t-58.5 44.5q-10 -32 -10 -67q0 -29 13 -47t37 -18z" />
    <glyph glyph-name="uni215F" unicode="&#x215f;" horiz-adv-x="434" 
d="M14 259v20q40 4 46.5 10.5t6.5 42.5v199q0 41 -8.5 53t-47.5 26v11q109 25 178 29q-3 -54 -3 -76v-242q0 -36 6.5 -42.5t44.5 -10.5v-20h-223zM137 0l353 648h69l-352 -648h-70z" />
    <glyph glyph-name="uni2189" unicode="&#x2189;" horiz-adv-x="830" 
d="M179 251q-90 0 -125 43.5t-35 150.5q0 108 36.5 158t125.5 50q84 0 119 -45t35 -145q0 -113 -36 -162.5t-120 -49.5zM229 0l353 648h69l-352 -648h-70zM180 277q21 0 27.5 33t6.5 144q0 103 -8 138.5t-29 35.5q-23 0 -29.5 -34t-6.5 -141q0 -108 8 -142t31 -34zM661 -8
q-127 0 -127 74q0 25 26 38.5t67 11.5q-3 -48 5.5 -73t36.5 -25q42 0 42 63q0 105 -107 102l-4 17q93 19 93 72q0 21 -17 35.5t-45 14.5q-21 0 -38.5 -9t-24.5 -19l-7 -9l-11 5q29 104 137 104q53 0 83.5 -22.5t30.5 -62.5q0 -70 -91 -89v-8q108 -11 108 -102q0 -54 -39 -86
t-118 -32z" />
    <glyph glyph-name="arrowleft" unicode="&#x2190;" horiz-adv-x="649" 
d="M615 208l-472 -2v-4q25 -12 43 -30l109 -109l-51 -51l-221 222v13l221 223l51 -51l-111 -111q-20 -20 -41 -30v-3h472v-67z" />
    <glyph glyph-name="arrowup" unicode="&#x2191;" horiz-adv-x="544" 
d="M280 507l223 -221l-51 -51l-111 111q-20 20 -30 41h-3v-472h-71l-2 472h-4q-12 -25 -30 -43l-109 -109l-51 51l222 221h17z" />
    <glyph glyph-name="arrowright" unicode="&#x2192;" horiz-adv-x="649" 
d="M405 470l221 -223v-13l-221 -222l-51 51l109 109q18 18 43 30v4l-472 2v67h472v3q-21 10 -41 30l-111 111z" />
    <glyph glyph-name="arrowdown" unicode="&#x2193;" horiz-adv-x="544" 
d="M452 187l51 -51l-223 -221h-17l-222 221l51 51l109 -109q18 -18 30 -43h4l2 472h71v-472h3q10 21 30 41z" />
    <glyph glyph-name="uni2196" unicode="&#x2196;" horiz-adv-x="557" 
d="M483 -21l-357 354l-3 -3q9 -25 9 -51v-154h-72v313l12 13h314v-72h-157q-26 0 -50 8l-2 -2l356 -356z" />
    <glyph glyph-name="uni2197" unicode="&#x2197;" horiz-adv-x="557" 
d="M485 451l12 -13v-313h-72v154q0 25 9 51l-3 3l-357 -354l-50 50l356 356l-2 2q-24 -8 -50 -8h-157v72h314z" />
    <glyph glyph-name="uni2198" unicode="&#x2198;" horiz-adv-x="557" 
d="M425 326h72v-313l-12 -13h-314v72h157q26 0 50 -8l2 2l-356 356l50 50l357 -354l3 3q-9 25 -9 51v154z" />
    <glyph glyph-name="uni2199" unicode="&#x2199;" horiz-adv-x="557" 
d="M179 64q24 8 50 8h157v-72h-314l-12 13v313h72v-154q0 -26 -9 -51l3 -3l357 354l50 -50l-356 -356z" />
    <glyph glyph-name="partialdiff" unicode="&#x2202;" horiz-adv-x="577" 
d="M210 656q67 0 127 -20t109.5 -60t79 -106.5t29.5 -152.5q0 -81 -19.5 -143t-48 -96.5t-67 -56t-69.5 -28t-62 -6.5q-123 0 -194 53.5t-71 159.5q0 51 14.5 90t36.5 62.5t51.5 38.5t57.5 20.5t57 5.5q73 0 120 -19v1q0 111 -19 160.5t-76 49.5q-45 0 -102.5 -45t-88.5 -96
l-18 8q-27 104 5 142t148 38zM268 31q40 0 64 96.5t28 230.5q-22 9 -45 9q-47 0 -67.5 -48t-30.5 -140q-16 -148 51 -148z" />
    <glyph glyph-name="emptyset" unicode="&#x2205;" horiz-adv-x="646" 
d="M529 556q94 -89 94 -232q0 -137 -87 -225.5t-213 -88.5q-98 0 -176 56l-70 -90l-29 26l69 89q-94 91 -94 233q0 137 87 225.5t213 88.5q98 0 177 -57l67 86l29 -25zM72 324q0 -121 72 -199l330 423q-65 52 -151 52q-107 0 -179 -78t-72 -198zM323 48q107 0 179 78t72 198
t-72 198l-329 -423q63 -51 150 -51z" />
    <glyph glyph-name="product" unicode="&#x220f;" horiz-adv-x="766" 
d="M29 -144v33q43 6 50.5 12t7.5 37v628q0 31 -7.5 37t-50.5 12v33h708v-33q-43 -6 -50.5 -12t-7.5 -37v-628q0 -31 7.5 -37t50.5 -12v-33h-315v33q44 6 51 12t7 37v628q0 23 -6 31t-24 8h-134q-18 0 -24 -8t-6 -31v-628q0 -31 7 -37t51 -12v-33h-315z" />
    <glyph glyph-name="summation" unicode="&#x2211;" horiz-adv-x="627" 
d="M576 69h28l-32 -213h-556v14l272 348l-258 411v19h532q9 -87 0 -204h-28q-40 94 -85 127.5t-128 33.5h-107l190 -304l-204 -300h266q47 0 65.5 11t44.5 57z" />
    <glyph glyph-name="minus" unicode="&#x2212;" horiz-adv-x="334" 
d="M17 302l1 39h299v-39h-300z" />
    <glyph glyph-name="radical" unicode="&#x221a;" horiz-adv-x="565" 
d="M556 726l9 -12l-267 -722h-40l-196 400q-15 31 -25 38.5t-39 10.5v33l259 -1l98 -219l130 472h71z" />
    <glyph glyph-name="infinity" unicode="&#x221e;" horiz-adv-x="606" 
d="M456 459q54 0 90.5 -39t36.5 -103q0 -60 -36.5 -96t-90.5 -38q-41 -1 -77 26t-75 75q-37 -47 -73 -74t-81 -27q-54 0 -90.5 37t-36.5 97q0 64 36.5 103t90.5 39q43 0 79 -26.5t75 -74.5q37 48 72.5 74.5t79.5 26.5zM158 222q30 0 56 24.5t62 73.5q-27 34 -42.5 51.5
t-38.5 33.5t-44 16q-35 0 -58.5 -29t-23.5 -75q0 -44 26.5 -69.5t62.5 -25.5zM455 221q37 0 60 25.5t23 71.5t-23.5 74.5t-62.5 28.5q-21 0 -43.5 -16t-37 -33t-39.5 -50q26 -34 41.5 -51.5t38 -33.5t43.5 -16z" />
    <glyph glyph-name="integral" unicode="&#x222b;" horiz-adv-x="497" 
d="M125 -208q-155 0 -155 97q0 73 131 94q2 -55 6 -85.5t15 -49.5t31 -19q37 0 37 79q0 47 -16.5 259t-16.5 287q0 140 59.5 206t180.5 66q151 0 151 -88q0 -74 -131 -95q-2 80 -11 112.5t-35 32.5q-27 0 -36 -26t-9 -80q0 -65 16.5 -284.5t17.5 -293.5q0 -98 -60.5 -155
t-174.5 -57z" />
    <glyph glyph-name="approxequal" unicode="&#x2248;" horiz-adv-x="405" 
d="M283 331q-32 0 -85.5 30.5t-80.5 30.5q-39 0 -77 -57l-25 14q36 85 109 85q31 0 84.5 -30.5t80.5 -30.5q29 0 45.5 16t31.5 46l24 -14q-25 -90 -107 -90zM283 217q-32 0 -85.5 30.5t-80.5 30.5q-39 0 -77 -57l-25 14q36 85 109 85q31 0 84.5 -30.5t80.5 -30.5
q29 0 45.5 16t31.5 46l24 -14q-25 -90 -107 -90z" />
    <glyph glyph-name="notequal" unicode="&#x2260;" horiz-adv-x="351" 
d="M222 367l-58 -91h167l-1 -39h-192l-71 -110l-24 16l60 94h-83l1 39h108l58 91h-167l1 39h191l71 110l25 -17l-60 -93h83l-1 -39h-108z" />
    <glyph glyph-name="lessequal" unicode="&#x2264;" horiz-adv-x="412" 
d="M370 475l-254 -114l254 -111l-20 -37l-315 143v14l315 142zM39 142h323l1 -38h-324v38z" />
    <glyph glyph-name="greaterequal" unicode="&#x2265;" horiz-adv-x="422" 
d="M72 512l315 -142v-14l-315 -143l-20 37l254 111l-254 114zM45 104l1 38h323v-38h-324z" />
    <glyph glyph-name="uni2460" unicode="&#x2460;" horiz-adv-x="608" 
d="M304 17q-119 0 -198.5 81.5t-79.5 206.5q0 127 79.5 210t199.5 83q118 0 197.5 -83t79.5 -210q0 -125 -79.5 -206.5t-198.5 -81.5zM306 48q104 0 170.5 72.5t66.5 185.5q0 115 -66.5 188t-171.5 73q-104 0 -172 -73t-68 -188q0 -113 68 -185.5t173 -72.5zM214 149v17
q35 3 41 8.5t6 34.5v170q0 34 -7.5 44t-42.5 23v10q101 22 156 25q-2 -30 -2 -52v-220q0 -29 5.5 -34.5t40.5 -8.5v-17h-197z" />
    <glyph glyph-name="uni2461" unicode="&#x2461;" horiz-adv-x="608" 
d="M304 17q-119 0 -198.5 81.5t-79.5 206.5q0 127 79.5 210t199.5 83q118 0 197.5 -83t79.5 -210q0 -125 -79.5 -206.5t-198.5 -81.5zM306 48q104 0 170.5 72.5t66.5 185.5q0 115 -66.5 188t-171.5 73q-104 0 -172 -73t-68 -188q0 -113 68 -185.5t173 -72.5zM175 149l-2 7
l51 57q43 49 64.5 83.5t21.5 68.5q0 25 -15 39t-38 14q-18 0 -32.5 -9t-20.5 -18l-5 -9l-10 2q6 43 35.5 71.5t82.5 28.5q44 0 70.5 -22.5t26.5 -60.5q0 -51 -35 -88t-100 -74l-1 -7h79q26 0 35.5 5t23.5 27h14l-18 -115h-227z" />
    <glyph glyph-name="uni2462" unicode="&#x2462;" horiz-adv-x="608" 
d="M304 17q-119 0 -198.5 81.5t-79.5 206.5q0 127 79.5 210t199.5 83q118 0 197.5 -83t79.5 -210q0 -125 -79.5 -206.5t-198.5 -81.5zM306 48q104 0 170.5 72.5t66.5 185.5q0 115 -66.5 188t-171.5 73q-104 0 -172 -73t-68 -188q0 -113 68 -185.5t173 -72.5zM288 142
q-56 0 -84 17.5t-28 45.5q0 23 23 35t60 8q-6 -84 37 -84q38 0 38 54q0 80 -97 83l-3 15q85 22 85 65q0 19 -14.5 31t-40.5 12q-19 0 -34 -8t-20 -16l-6 -9l-11 4q27 89 122 89q46 0 72 -19t26 -51q0 -37 -26 -55.5t-57 -22.5v-7q98 -10 98 -87q0 -46 -35 -73t-105 -27z" />
    <glyph glyph-name="uni2463" unicode="&#x2463;" horiz-adv-x="608" 
d="M305 598q118 0 197.5 -83t79.5 -210q0 -125 -79.5 -206.5t-198.5 -81.5t-198.5 81.5t-79.5 206.5q0 127 79.5 210t199.5 83zM306 48q104 0 170.5 72.5t66.5 185.5q0 115 -66.5 188t-171.5 73q-104 0 -172 -73t-68 -188q0 -113 68 -185.5t173 -72.5zM421 215h-40v-6
q0 -29 5.5 -34.5t39.5 -8.5v-17h-195v17q35 3 40.5 8.5t5.5 34.5v6h-129l-4 7l154 257h85q-2 -28 -2 -48v-192h46l4 -4zM185 239h92v161l-92 -154v-7z" />
    <glyph glyph-name="uni2464" unicode="&#x2464;" horiz-adv-x="608" 
d="M305 598q118 0 197.5 -83t79.5 -210q0 -125 -79.5 -206.5t-198.5 -81.5t-198.5 81.5t-79.5 206.5q0 127 79.5 210t199.5 83zM306 48q104 0 170.5 72.5t66.5 185.5q0 115 -66.5 188t-171.5 73q-104 0 -172 -73t-68 -188q0 -113 68 -185.5t173 -72.5zM231 364
q103 4 148 -22.5t45 -85.5q0 -56 -35 -85t-98 -29q-58 0 -89 17.5t-31 46.5q0 24 23 36t60 8q-3 -44 6.5 -65t38.5 -21q43 0 43 44q0 78 -149 70l38 201h179l4 -4l-13 -80h-162z" />
    <glyph glyph-name="uni2465" unicode="&#x2465;" horiz-adv-x="608" 
d="M305 598q118 0 197.5 -83t79.5 -210q0 -125 -79.5 -206.5t-198.5 -81.5t-198.5 81.5t-79.5 206.5q0 127 79.5 210t199.5 83zM306 48q104 0 170.5 72.5t66.5 185.5q0 115 -66.5 188t-171.5 73q-104 0 -172 -73t-68 -188q0 -113 68 -185.5t173 -72.5zM339 359q43 0 68 -27
t25 -72q0 -57 -36.5 -87.5t-98.5 -30.5q-134 0 -134 138q0 96 64 149.5t169 54.5l3 -18q-112 -26 -133 -135l3 -1q24 29 70 29zM302 164q32 0 32 67q0 38 -12.5 62t-36.5 24q-12 0 -22 -5q-2 -22 -2 -36q-1 -112 41 -112z" />
    <glyph glyph-name="uni2466" unicode="&#x2466;" horiz-adv-x="608" 
d="M304 17q-119 0 -198.5 81.5t-79.5 206.5q0 127 79.5 210t199.5 83q118 0 197.5 -83t79.5 -210q0 -125 -79.5 -206.5t-198.5 -81.5zM306 48q104 0 170.5 72.5t66.5 185.5q0 115 -66.5 188t-171.5 73q-104 0 -172 -73t-68 -188q0 -113 68 -185.5t173 -72.5zM367 396h-112
q-23 0 -33.5 -6t-22.5 -26h-15l19 115h221l2 -11l-130 -323h-61v17l132 227v7z" />
    <glyph glyph-name="uni2467" unicode="&#x2467;" horiz-adv-x="608" 
d="M305 598q118 0 197.5 -83t79.5 -210q0 -125 -79.5 -206.5t-198.5 -81.5t-198.5 81.5t-79.5 206.5q0 127 79.5 210t199.5 83zM306 48q104 0 170.5 72.5t66.5 185.5q0 115 -66.5 188t-171.5 73q-104 0 -172 -73t-68 -188q0 -113 68 -185.5t173 -72.5zM357 344
q77 -49 77 -103q0 -51 -34.5 -75t-91.5 -24q-133 0 -133 75q0 53 79 67v5q-75 48 -75 99q0 96 125 96q124 0 124 -70q0 -58 -71 -65v-5zM301 462q-31 0 -31 -32q0 -20 16 -36t47 -35q6 23 6 50q0 24 -10 38.5t-28 14.5zM309 164q35 0 35 39q0 14 -12 28t-22.5 21.5
t-36.5 24.5q-9 -29 -9 -56q0 -25 11.5 -41t33.5 -16z" />
    <glyph glyph-name="uni2468" unicode="&#x2468;" horiz-adv-x="608" 
d="M305 598q118 0 197.5 -83t79.5 -210q0 -125 -79.5 -206.5t-198.5 -81.5t-198.5 81.5t-79.5 206.5q0 127 79.5 210t199.5 83zM306 48q104 0 170.5 72.5t66.5 185.5q0 115 -66.5 188t-171.5 73q-104 0 -172 -73t-68 -188q0 -113 68 -185.5t173 -72.5zM310 484
q134 0 134 -138q0 -96 -64 -149.5t-169 -54.5l-3 18q112 26 133 135l-3 1q-26 -29 -70 -29q-43 0 -68 27t-25 72q0 57 36.5 87.5t98.5 30.5zM321 308q13 0 23 5q2 24 2 37q1 112 -41 112q-32 0 -32 -67q0 -38 12.5 -62.5t35.5 -24.5z" />
    <glyph glyph-name="uni24EA" unicode="&#x24ea;" horiz-adv-x="608" 
d="M304 17q-119 0 -198.5 81.5t-79.5 206.5q0 127 79.5 210t199.5 83q118 0 197.5 -83t79.5 -210q0 -125 -79.5 -206.5t-198.5 -81.5zM306 48q104 0 170.5 72.5t66.5 185.5q0 115 -66.5 188t-171.5 73q-104 0 -172 -73t-68 -188q0 -113 68 -185.5t173 -72.5zM308 142
q-79 0 -109.5 36.5t-30.5 128.5t32 134.5t110 42.5q75 0 105 -37.5t30 -124.5q0 -96 -31.5 -138t-105.5 -42zM310 164q18 0 23.5 28.5t5.5 121.5q0 89 -6.5 118.5t-26.5 29.5t-26 -29.5t-6 -118.5q0 -92 7.5 -121t28.5 -29z" />
    <glyph glyph-name="uni24FF" unicode="&#x24ff;" horiz-adv-x="608" 
d="M304 17q-119 0 -198.5 81.5t-79.5 206.5q0 127 79.5 210t199.5 83q118 0 197.5 -83t79.5 -210q0 -125 -79.5 -206.5t-198.5 -81.5zM308 142q74 0 105.5 42t31.5 138q0 87 -30 124.5t-105 37.5q-78 0 -110 -42.5t-32 -134.5t30.5 -128.5t109.5 -36.5zM310 164
q-21 0 -28.5 29t-7.5 121q0 89 6 118.5t26 29.5t26.5 -29.5t6.5 -118.5q0 -93 -5.5 -121.5t-23.5 -28.5z" />
    <glyph glyph-name="lozenge" unicode="&#x25ca;" horiz-adv-x="519" 
d="M272 726l242 -364l-249 -382h-18l-241 365l248 381h18zM127 461l210 -318l55 101l-210 319z" />
    <glyph glyph-name="uni261A" unicode="&#x261a;" horiz-adv-x="1098" 
d="M796 246q9 -50 37.5 -87.5t70.5 -37.5q53 0 86 53.5t33 138.5q0 118 -38 173.5t-98 55.5q-34 0 -62.5 -33t-31.5 -92q18 -6 43 -6q72 -5 72 -90q0 -36 -25 -53.5t-87 -21.5zM863 380q-74 3 -154.5 34t-150 60t-119.5 29q-72 0 -230.5 -50t-153.5 -72q2 -9 9 -13t33.5 -1
t73.5 16q153 41 196 47q55 7 92 1l10 -26q-67 6 -142 -12q-46 -11 -39 -40q4 -21 26 -29q35 15 77 21q39 6 76 3l7 -25q-33 1 -66 -3q-37 -3 -57 -11.5t-22 -18.5t0 -22q7 -21 35 -25q41 13 75 14q39 3 58 -2l9 -24l-43 -1q-60 -2 -68 -4q-24 -9 -13 -37q10 -26 83 -26
q52 0 90 5.5t75.5 23.5t59 31.5t70.5 48.5q72 1 96 13.5t24 47.5q0 29 -17 47z" />
    <glyph glyph-name="uni261B" unicode="&#x261b;" horiz-adv-x="1098" 
d="M302 246q-62 4 -87 21.5t-25 53.5q0 85 72 90q25 0 43 6q-3 59 -31.5 92t-62.5 33q-60 0 -98 -55.5t-38 -173.5q0 -85 33 -138.5t86 -53.5q42 0 70.5 37.5t37.5 87.5zM235 380q-17 -18 -17 -47q0 -35 24 -47.5t96 -13.5q49 -35 70.5 -48.5t59 -31.5t75.5 -23.5t90 -5.5
q73 0 83 26q11 28 -13 37q-8 2 -68 4l-43 1l9 24q19 5 58 2q34 -1 75 -14q28 4 35 25q2 12 0 22t-22 18.5t-57 11.5q-33 4 -66 3l7 25q37 3 76 -3q42 -6 77 -21q22 8 26 29q7 29 -39 40q-75 18 -142 12l10 26q37 6 92 -1q43 -6 196 -47q47 -13 73.5 -16t33.5 1t9 13
q5 22 -153.5 72t-230.5 50q-50 0 -119.5 -29t-150 -60t-154.5 -34z" />
    <glyph glyph-name="uni261C" unicode="&#x261c;" horiz-adv-x="1140" 
d="M929 542q60 0 98 -55.5t38 -173.5q0 -85 -33 -138.5t-86 -53.5q-42 0 -70.5 38t-37.5 88q-7 -1 -21 -1q-82 -64 -145 -89t-143 -24q-125 2 -140 54q-6 19 6 34q-41 7 -53 45q-5 17 3 33q-15 4 -28.5 18t-15.5 28q-2 23 6 35q-6 -1 -68 -19q-160 -46 -180 0
q-10 23 7.5 42.5t74.5 43.5q79 33 179 59.5t159 26.5q63 0 189 -53.5t167 -62.5q3 59 31.5 92t62.5 33zM941 151q42 0 66 49t24 115q0 89 -28.5 143t-72.5 54q-23 0 -45 -26t-23 -74q2 0 8 -0.5t8 -0.5q72 -5 72 -90q0 -33 -20 -50t-64 -22q25 -98 75 -98zM507 163
q52 0 90 5.5t75.5 23.5t59 31.5t70.5 48.5q72 1 96 13.5t24 47.5q0 29 -16 46q-74 3 -155 34.5t-150.5 60.5t-119.5 29q-72 0 -230.5 -50t-153.5 -72q2 -9 9 -13t33.5 -1t73.5 16q153 41 196 47q55 7 92 1l10 -26q-67 6 -142 -12q-46 -11 -39 -40q4 -21 26 -29q35 15 77 21
q39 6 76 3l7 -25q-33 1 -66 -3q-37 -3 -57 -11.5t-22 -18.5t0 -22q7 -21 35 -25q41 13 75 14q39 3 58 -2l9 -24l-43 -1q-60 -2 -68 -4q-24 -9 -13 -37q10 -26 83 -26z" />
    <glyph glyph-name="uni261D" unicode="&#x261d;" horiz-adv-x="587" 
d="M396 41q50 -9 88 -37.5t38 -70.5q0 -53 -53.5 -86t-138.5 -33q-118 0 -173.5 38t-55.5 98q0 34 33 62.5t92 31.5q-9 41 -62.5 167t-53.5 189q0 59 26.5 159t59.5 179q24 57 43.5 74.5t42.5 7.5q46 -20 0 -180q-18 -62 -19 -68q12 8 35 6q14 -2 28 -15.5t18 -28.5
q16 8 33 3q38 -12 45 -53q15 12 34 6q52 -15 54 -140q1 -80 -24 -143t-89 -145q0 -14 -1 -21zM262 782q-22 5 -72 -153.5t-50 -230.5q0 -50 29 -119.5t60.5 -150.5t34.5 -155q17 -16 46 -16q35 0 47.5 24t13.5 96q35 49 48.5 70.5t31.5 59t23.5 75.5t5.5 90q0 73 -26 83
q-28 11 -37 -13q-2 -8 -4 -68l-1 -43l-24 9q-5 19 -2 58q1 34 14 75q-4 28 -25 35q-12 2 -22 0t-18.5 -22t-11.5 -57q-4 -33 -3 -66l-25 7q-3 37 3 76q6 42 21 77q-8 22 -29 26q-29 7 -40 -39q-18 -75 -12 -142l-26 10q-6 37 1 92q6 43 47 196q13 47 16 73.5t-1 33.5t-13 9z
M328 -152q66 0 115 24t49 66q0 50 -98 75q-5 -44 -22 -64t-50 -20q-85 0 -90 72q0 3 -0.5 8.5t-0.5 7.5q-48 -1 -74 -23t-26 -45q0 -44 54 -72.5t143 -28.5z" />
    <glyph glyph-name="uni261E" unicode="&#x261e;" horiz-adv-x="1140" 
d="M999 447q57 -24 74.5 -43.5t7.5 -42.5q-20 -46 -180 0q-62 18 -68 19q8 -12 6 -35q-2 -14 -15.5 -28t-28.5 -18q8 -16 3 -33q-12 -38 -53 -45q12 -15 6 -34q-15 -52 -140 -54q-80 -1 -143 24t-145 89q-14 0 -21 1q-9 -50 -37.5 -88t-70.5 -38q-53 0 -86 53.5t-33 138.5
q0 118 38 173.5t98 55.5q34 0 62.5 -33t31.5 -92q41 9 167 62.5t189 53.5q59 0 159 -26.5t179 -59.5zM199 151q50 0 75 98q-44 5 -64 22t-20 50q0 85 72 90q2 0 8 0.5t8 0.5q-1 48 -23 74t-45 26q-44 0 -72.5 -54t-28.5 -143q0 -66 24 -115t66 -49zM1043 381q5 22 -153.5 72
t-230.5 50q-50 0 -119.5 -29t-150.5 -60.5t-155 -34.5q-16 -17 -16 -46q0 -35 24 -47.5t96 -13.5q49 -35 70.5 -48.5t59 -31.5t75.5 -23.5t90 -5.5q73 0 83 26q11 28 -13 37q-8 2 -68 4l-43 1l9 24q19 5 58 2q34 -1 75 -14q28 4 35 25q2 12 0 22t-22 18.5t-57 11.5
q-33 4 -66 3l7 25q37 3 76 -3q42 -6 77 -21q22 8 26 29q7 29 -39 40q-75 18 -142 12l10 26q37 6 92 -1q43 -6 196 -47q47 -13 73.5 -16t33.5 1t9 13z" />
    <glyph glyph-name="uni261F" unicode="&#x261f;" horiz-adv-x="587" 
d="M486 688q0 -34 -33 -62.5t-92 -31.5q9 -41 62.5 -167t53.5 -189q0 -59 -26.5 -159t-59.5 -179q-24 -57 -43.5 -74.5t-42.5 -7.5q-46 20 0 180q18 62 19 68q-12 -8 -35 -6q-14 2 -28 15.5t-18 28.5q-16 -8 -33 -3q-38 12 -45 53q-15 -12 -34 -6q-52 15 -54 140
q-1 80 24 143t89 145q0 14 1 21q-50 9 -88 37.5t-38 70.5q0 53 53.5 86t138.5 33q118 0 173.5 -38t55.5 -98zM95 700q0 -50 98 -75q5 44 22 64t50 20q85 0 90 -72q0 -3 0.5 -8t0.5 -8q48 1 74 23t26 45q0 44 -54 72.5t-143 28.5q-66 0 -115 -24t-49 -66zM325 -144
q22 -5 72 153.5t50 230.5q0 50 -29 119.5t-60.5 150.5t-34.5 155q-17 16 -46 16q-35 0 -47.5 -24t-13.5 -96q-35 -49 -48.5 -70.5t-31.5 -59t-23.5 -75.5t-5.5 -90q0 -73 26 -83q28 -11 37 13q2 8 4 68l1 43l24 -9q5 -19 2 -58q-1 -34 -14 -75q4 -28 25 -35q12 -2 22 0
t18.5 22t11.5 57q4 33 3 66l25 -7q3 -37 -3 -76q-6 -42 -21 -77q8 -22 29 -26q29 -7 40 39q18 75 12 142l26 -10q6 -37 -1 -92q-6 -43 -47 -196q-13 -47 -16 -73.5t1 -33.5t13 -9z" />
    <glyph glyph-name="uni2776" unicode="&#x2776;" horiz-adv-x="608" 
d="M304 17q-119 0 -198.5 81.5t-79.5 206.5q0 127 79.5 210t199.5 83q118 0 197.5 -83t79.5 -210q0 -125 -79.5 -206.5t-198.5 -81.5zM214 149h197v17q-35 3 -40.5 8.5t-5.5 34.5v220q0 22 2 52q-55 -3 -156 -25v-10q35 -13 42.5 -23t7.5 -44v-170q0 -29 -6 -34.5t-41 -8.5
v-17z" />
    <glyph glyph-name="uni2777" unicode="&#x2777;" horiz-adv-x="608" 
d="M304 17q-119 0 -198.5 81.5t-79.5 206.5q0 127 79.5 210t199.5 83q118 0 197.5 -83t79.5 -210q0 -125 -79.5 -206.5t-198.5 -81.5zM175 149h227l18 115h-14q-14 -22 -23.5 -27t-35.5 -5h-79l1 7q65 37 100 74t35 88q0 38 -26.5 60.5t-70.5 22.5q-53 0 -82.5 -28.5
t-35.5 -71.5l10 -2q2 4 6 10t19 16t33 10q23 0 38 -14t15 -39q0 -34 -21.5 -68.5t-64.5 -83.5l-51 -57z" />
    <glyph glyph-name="uni2778" unicode="&#x2778;" horiz-adv-x="608" 
d="M304 17q-119 0 -198.5 81.5t-79.5 206.5q0 127 79.5 210t199.5 83q118 0 197.5 -83t79.5 -210q0 -125 -79.5 -206.5t-198.5 -81.5zM288 142q70 0 105 27t35 73q0 77 -98 87v7q31 4 57 22.5t26 55.5q0 32 -26 51t-72 19q-95 0 -122 -89l11 -4q2 4 6 9.5t19.5 14.5t34.5 9
q26 0 40.5 -12t14.5 -31q0 -43 -85 -65l3 -15q97 -3 97 -83q0 -54 -38 -54q-43 0 -37 84q-37 4 -60 -8t-23 -35q0 -28 28 -45.5t84 -17.5z" />
    <glyph glyph-name="uni2779" unicode="&#x2779;" horiz-adv-x="608" 
d="M304 17q-119 0 -198.5 81.5t-79.5 206.5q0 127 79.5 210t199.5 83q118 0 197.5 -83t79.5 -210q0 -125 -79.5 -206.5t-198.5 -81.5zM144 222l4 -7h129v-6q0 -29 -5.5 -34.5t-40.5 -8.5v-17h195v17q-34 3 -39.5 8.5t-5.5 34.5v6h40l10 20l-4 4h-46v192q0 20 2 48h-85z
M185 239v7l92 154v-161h-92z" />
    <glyph glyph-name="uni277A" unicode="&#x277a;" horiz-adv-x="608" 
d="M304 17q-119 0 -198.5 81.5t-79.5 206.5q0 127 79.5 210t199.5 83q118 0 197.5 -83t79.5 -210q0 -125 -79.5 -206.5t-198.5 -81.5zM291 142q63 0 98 29t35 85q0 59 -45 85.5t-148 22.5l8 31h162l13 80l-4 4h-179l-38 -201q149 8 149 -70q0 -44 -43 -44q-29 0 -38.5 21
t-6.5 65q-37 4 -60 -8t-23 -36q0 -29 31 -46.5t89 -17.5z" />
    <glyph glyph-name="uni277B" unicode="&#x277b;" horiz-adv-x="608" 
d="M304 17q-119 0 -198.5 81.5t-79.5 206.5q0 127 79.5 210t199.5 83q118 0 197.5 -83t79.5 -210q0 -125 -79.5 -206.5t-198.5 -81.5zM163 280q0 -138 134 -138q62 0 98.5 30.5t36.5 87.5q0 45 -25 72t-68 27q-46 0 -70 -29l-3 1q21 109 133 135l-3 18q-105 -1 -169 -54.5
t-64 -149.5zM261 276q0 14 2 36q10 5 22 5q24 0 36.5 -24t12.5 -62q0 -67 -32 -67q-42 0 -41 112z" />
    <glyph glyph-name="uni277C" unicode="&#x277c;" horiz-adv-x="608" 
d="M304 17q-119 0 -198.5 81.5t-79.5 206.5q0 127 79.5 210t199.5 83q118 0 197.5 -83t79.5 -210q0 -125 -79.5 -206.5t-198.5 -81.5zM235 145h61l130 323l-2 11h-221l-19 -115h15q12 20 22.5 26t33.5 6h112v-7l-132 -227v-17z" />
    </font>
</defs>
</svg>
